<?xml version="1.0" encoding="UTF-8"?>
<!DOCTYPE svg PUBLIC "-//W3C//DTD SVG 1.1//EN" "http://www.w3.org/Graphics/SVG/1.1/DTD/svg11.dtd">
<!-- Creator: CorelDRAW (Оценочная версия) -->
<svg xmlns="http://www.w3.org/2000/svg" xml:space="preserve" width="68.134mm" height="66.3663mm" version="1.1" style="shape-rendering:geometricPrecision; text-rendering:geometricPrecision; image-rendering:optimizeQuality; fill-rule:evenodd; clip-rule:evenodd"
viewBox="0 0 597.09 581.6"
 xmlns:xlink="http://www.w3.org/1999/xlink"
 xmlns:xodm="http://www.corel.com/coreldraw/odm/2003">
 <defs>
  <style type="text/css">
   <![CDATA[
    .fil0 {fill:white}
   ]]>
  </style>
 </defs>
 <g id="Слой_x0020_3">
  <metadata id="CorelCorpID_0Corel-Layer"/>
  <path class="fil0" d="M401.48 212.5c0.03,-32.02 -14.11,-60.47 -31.94,-76.91 -3.26,-3.01 -9.94,-7.37 -14.25,-10.52 -5.84,-4.26 -10.58,-6.36 -17.03,-9.32 -33,-15.17 -70.14,-10.87 -99.39,10.53 -7.78,5.69 -13.78,11.85 -19.04,17.95 -2.03,2.35 -2.31,2.81 -4.13,5.24l-3.92 5.47c-54.5,87.93 39.19,185.35 127.3,147.37 34.72,-14.96 61.71,-49.06 62.4,-89.79zm-161.4 124.06c-17.74,0.02 -38.03,6.08 -51.91,12.65 -19.32,9.14 -70.26,39.53 -62.45,64.2 4.38,13.84 19.84,28.08 28.83,36.2 25.41,22.97 44.11,33.64 84.9,44.78 56.66,15.48 129.63,6.53 179.75,-27.01 14.32,-9.59 29.37,-21.24 40.07,-34.1 15.27,-18.36 14.43,-24.93 0.75,-43.42 -5.46,-7.38 -8.3,-8.76 -16.77,-15.72 -7.82,-6.42 -8.27,-7.77 -16.72,-12.54 -29.6,-16.68 -57.19,-32.01 -95.24,-22.88 -27.98,6.71 -27.8,11.08 -64.23,3.02 -9.16,-2.03 -18.36,-5.19 -26.97,-5.17zm-238.76 -25.13c6.45,47.34 9.34,71.71 31.99,115.57 32.16,62.26 91.72,113.12 156.69,137.04 43.68,16.08 76.87,17.81 128.96,17.53 35.37,-0.19 75.83,-12.48 108.22,-25.69l8.37 -4.04c8.07,-4.2 16.03,-8.4 23.85,-13.31 9.55,-6 13.79,-9.12 21.91,-15.23 9.11,-6.86 11.53,-7.95 20.32,-16.79 21.15,-21.25 34.63,-33.29 50.36,-59.34 58.46,-96.8 59.31,-196.54 7,-296.92 -1.09,-2.09 -1.68,-2.98 -3.44,-5.88 -10.38,-17.13 -26,-38.61 -39.87,-52.89l-30.9 -27.74c-0.54,-0.46 -1.94,-1.72 -2.57,-2.24 -1.88,-1.57 -3.3,-2.58 -5.18,-3.97 -59.02,-43.69 -123.22,-58.05 -199.89,-57.51 -24.84,0.18 -80.05,13.09 -104.97,25.6 -3.21,1.61 -7.61,3.67 -11.38,5.51l-34.95 20.66c-18.31,12.49 -33.67,26.25 -48.99,42.15l-30.12 39.53c-0.24,0.39 -0.9,1.56 -1.13,1.96l-14.47 24.38c-18.6,40.23 -36.18,104.99 -29.83,151.63zm53.59 3.09c1.45,7.56 2.37,19.01 3.58,27.47 8.3,57.88 51.71,116.44 95.62,146.66 55.42,38.15 128.52,51.87 195.41,37.52 8.43,-1.81 17.44,-3.6 25.29,-6.06l30.14 -11.18c0.32,-0.15 0.71,-0.36 1.03,-0.52l11.38 -5.84c13.74,-7.07 25.1,-14.93 36.66,-23.68 11.21,-8.49 22.53,-20.5 30.64,-29.45 4.36,-4.82 8.97,-11.15 13.61,-17.39l22.49 -37.69c19.79,-40.84 23.78,-81.85 20.24,-126.2 -1.49,-18.59 -5.69,-34.82 -10.75,-50.62 -8.79,-27.47 -16.37,-37.73 -30.26,-60.87l-6.16 -9.3c-24.38,-30.27 -21.03,-24.51 -44.59,-45.05 -16.93,-14.76 -46.55,-30.34 -68.17,-38.34 -75.32,-27.89 -163.87,-14.1 -229.23,32.57 -8.52,6.08 -32.38,27.57 -38.63,35.49 -8.8,11.15 -17.93,22.71 -24.95,35.27 -21.3,38.09 -42.41,99.94 -33.34,147.2z"/>
 </g>
</svg>
