<?xml version="1.0" encoding="UTF-8"?>
<!DOCTYPE svg PUBLIC "-//W3C//DTD SVG 1.1//EN" "http://www.w3.org/Graphics/SVG/1.1/DTD/svg11.dtd">
<!-- Creator: CorelDRAW (Оценочная версия) -->
<svg xmlns="http://www.w3.org/2000/svg" xml:space="preserve" width="64.482mm" height="50.0001mm" version="1.1" style="shape-rendering:geometricPrecision; text-rendering:geometricPrecision; image-rendering:optimizeQuality; fill-rule:evenodd; clip-rule:evenodd"
viewBox="0 0 244.83 189.84"
 xmlns:xlink="http://www.w3.org/1999/xlink"
 xmlns:xodm="http://www.corel.com/coreldraw/odm/2003">
 <defs>
  <style type="text/css">
   <![CDATA[
    .fil0 {fill:white}
   ]]>
  </style>
 </defs>
 <g id="Слой_x0020_3">
  <metadata id="CorelCorpID_0Corel-Layer"/>
  <path class="fil0" d="M101.78 10.57c2.68,-0.42 20.44,-0.16 24.68,-0.17 8.02,-0.02 16.79,-0.31 24.73,0.02 7.37,0.31 9.28,5.84 12.79,11.89 5.99,10.33 8.2,16.07 21.07,16.11 4.09,0.01 8.18,0.02 12.26,-0 6.71,-0.03 18.1,-0.67 23.65,1.11 2.81,0.9 5.57,2.55 7.77,4.66 8.03,7.7 6.62,19.49 6.58,30.44l-0 74.17c-0.01,9.29 0.36,14.16 -3.97,20.79 -3.37,5.16 -7.65,8.29 -14.56,10.17 -2.99,0.81 -8.42,0.54 -11.87,0.54 -20.53,-0 -41.23,0.16 -61.71,-0 -32.99,-0.26 -66.09,-0 -99.09,-0.02 -9.24,-0.01 -14.38,0.62 -21.37,-3.28 -5.78,-3.22 -8.9,-6.93 -11.71,-12.99 -2.33,-5.02 -1.6,-16.67 -1.58,-23.18 0.02,-8.24 -0.01,-16.48 -0.01,-24.72 0.01,-16.48 0.01,-32.96 0.01,-49.45 -0,-7.98 -0.31,-13.19 4.85,-19.89 7.48,-9.7 18.23,-8.3 28.84,-8.35l24.72 0.01c7.35,0 13.03,-0.26 17.34,-7.37 1.52,-2.51 3.16,-5.19 4.58,-7.7 1.55,-2.75 3.04,-5.14 4.63,-7.83 1.66,-2.8 3.82,-4.39 7.36,-4.95zm-77.81 18.7c-2.11,1 -4.86,0.98 -9.32,3.66 -2.7,1.62 -5.1,3.62 -7.03,5.79 -8.34,9.35 -7.58,19.32 -7.53,31.43l0.02 38.74c0.02,6.7 -0.41,45.84 0.35,51.42 1.8,13.21 11.69,23.5 23.94,27.87 6.18,2.21 16.83,1.6 24.39,1.55 8.61,-0.06 17.28,-0.03 25.89,0.01 43.05,0.18 86.36,-0.04 129.46,0 9.61,0.01 15.09,0.51 22.52,-3.43 5.28,-2.8 10.11,-7.27 13.24,-12.64 4.08,-7 4.87,-11.11 4.86,-20.98 -0.04,-25.76 0.17,-51.98 -0.01,-77.67 -0.06,-7.8 0.7,-17.76 -1.36,-24.44 -4.25,-13.8 -14.95,-21.84 -29.91,-21.85 -8.63,-0 -17.26,0 -25.89,0.01 -8.21,0.01 -9.29,-1.05 -12.49,-7.02l-7.14 -12.34c-3.86,-6.07 -8.92,-9.2 -16.57,-9.27l-38.74 0.02c-9.88,-0.02 -15.22,-1.17 -21.8,4.05 -4.59,3.64 -7.25,10.31 -10.51,15.37 -1.56,2.43 -2.88,5.87 -5.25,7.6 -2.98,2.16 -7,1.59 -11.35,1.58 -0.34,-2.9 0.21,-3.97 -1.41,-6.38 -1.05,-1.58 -2.46,-2.69 -4.32,-3.48 -3.44,-1.46 -10.18,-0.86 -14.47,-0.87 -7.2,-0.02 -14.98,-1.42 -18.5,4.66 -1.41,2.44 -0.7,3.75 -1.05,6.62zm99.89 24.99c4.33,-0.54 8.71,0.1 12.7,0.68 9.55,1.38 20.11,7.25 26.67,13.66 8.77,8.56 15.54,21.26 16.45,37.19 1.73,29.97 -21.9,55.83 -50.7,56.57 -17.88,0.46 -29.62,-6.31 -38.9,-14.96 -8.24,-7.68 -16.68,-22.21 -17.11,-36.56 -0.47,-15.73 4.6,-28.2 14.48,-39.2 6.51,-7.24 15.36,-12.45 24.83,-15.44 1.72,-0.54 3.67,-0.95 5.61,-1.27 3.22,-0.53 3.58,-0.38 5.96,-0.68zm-0.27 -11.77c-6.21,0.75 -7.22,0.44 -13.9,2.33 -12.2,3.44 -21.86,9.72 -30.25,18.22 -17.57,17.82 -23.55,48.86 -10.75,73.04 8.03,15.16 18,24.87 33.04,32.02 7.6,3.61 16.88,5.69 27.25,5.46 10.42,-0.23 18.21,-2.67 26.05,-6.48 17.63,-8.57 31.12,-27.73 34.63,-46.53 0.83,-4.46 1.45,-10.5 1.02,-15.27 -0.57,-6.31 -0.46,-7.68 -2.11,-14.12 -5.03,-19.61 -18.52,-36.28 -37.28,-44.08 -6.99,-2.9 -18.66,-5.68 -27.7,-4.59zm-0.73 30.22c9.07,-1.54 20.04,2.11 26.65,8.08 23.36,21.11 10.88,58.82 -19.45,62.29 -19.2,2.2 -36.54,-13.55 -38.56,-31.73 -2.03,-18.36 10.47,-34.19 27.54,-38.05 1.34,-0.3 2.41,-0.34 3.82,-0.58zm2.25 -8.85c-7.61,0.76 -10.04,0.99 -17.37,4.31 -14.66,6.64 -25.21,22.62 -24.54,40.92 0.45,12.08 6.91,23.52 13.68,29.97 7.49,7.15 17.86,12.66 31.14,12.45 23.77,-0.39 42.55,-20.7 41.72,-45.34 -0.42,-12.62 -6.03,-23.61 -13.19,-30.48 -4.11,-3.94 -7.52,-6.19 -13.18,-8.64 -4.54,-1.97 -12.42,-3.77 -18.27,-3.19zm-7.44 17.68c-12.59,2.16 -20.53,17.85 -18.15,22.17 0.72,1.31 2.43,2.25 4.29,1.63 1.63,-0.54 1.84,-2.09 2.35,-3.53 0.54,-1.51 1.2,-2.73 1.92,-3.92 2.35,-3.91 5.26,-6.55 9.2,-8.52 1.27,-0.63 3.16,-1.05 4.13,-1.89 1.9,-1.65 1.58,-6.86 -3.74,-5.95zm92.45 -29.01c-2.32,0.45 -3.59,0.89 -5.06,2.58 -1.22,1.41 -2.18,3.3 -1.92,5.9 0.39,3.89 4.39,7.29 8.79,6.86 3.78,-0.38 7.36,-3.99 6.8,-8.59 -0.45,-3.69 -4.23,-7.59 -8.61,-6.74z"/>
 </g>
</svg>
