<?xml version="1.0" encoding="UTF-8"?>
<!DOCTYPE svg PUBLIC "-//W3C//DTD SVG 1.1//EN" "http://www.w3.org/Graphics/SVG/1.1/DTD/svg11.dtd">
<!-- Creator: CorelDRAW (Оценочная версия) -->
<svg xmlns="http://www.w3.org/2000/svg" xml:space="preserve" width="59.6956mm" height="50.0001mm" version="1.1" style="shape-rendering:geometricPrecision; text-rendering:geometricPrecision; image-rendering:optimizeQuality; fill-rule:evenodd; clip-rule:evenodd"
viewBox="0 0 2670.51 2236.77"
 xmlns:xlink="http://www.w3.org/1999/xlink"
 xmlns:xodm="http://www.corel.com/coreldraw/odm/2003">
 <defs>
  <style type="text/css">
   <![CDATA[
    .fil0 {fill:white}
   ]]>
  </style>
 </defs>
 <g id="Слой_x0020_3">
  <metadata id="CorelCorpID_0Corel-Layer"/>
  <path class="fil0" d="M1248.9 323.73l39.12 -32.33c16.36,-13.6 30.72,-28.46 52.52,-8.94 295.31,237.3 596.98,466.93 893.24,703.98 24.34,17.53 40.76,28.02 42.11,51.56l-1.4 988.41c-2.87,21.34 -26.56,40.06 -46.84,44.78 -22.62,5.27 -337.92,4.62 -359.21,-1.07 -14.45,-98.65 9.7,-362.18 -8.07,-445.76 -14.97,-70.4 -40.61,-99.13 -85.44,-141.66 -16.24,-15.41 -44.33,-30.2 -73.35,-40.32 -97.72,-34.12 -232.28,-18.29 -303.1,60.55 -29.94,33.33 -49.41,66.07 -60.69,116.52 -15.96,71.34 4.59,344.45 -7.07,453.9l-817.2 0.51c-33.78,-0.52 -101.99,12.38 -110.86,-53.4 -6.29,-46.59 -2.2,-955.09 -2.06,-982.59 0.17,-35.21 3.26,-31.6 39.52,-60.43 266.99,-218.87 546.09,-430.72 808.78,-653.72zm193.28 -266.03c-51.26,-56.47 -76.94,-57.59 -138.8,-57.7 -26.78,-0.04 -32.99,2.13 -51.78,11.26 -28.54,13.88 -82.21,58.61 -108.72,80.38 -81.75,64.17 -165.53,129.4 -246,195.23 -12.42,10.16 -22.97,17.87 -35.21,27.82 -19.31,15.69 -6.93,9.77 -37.2,30.04 0,-40.62 0,-81.24 0,-121.87 0,-43.51 7.39,-83.08 -18.25,-103.61 -24.73,-19.8 -65.94,-14.05 -107.81,-14.05 -64.78,0 -126.29,-16.12 -152.99,31.91 -12.8,23.03 -6.69,146.74 -6.69,178.2 0,82.64 0,165.29 0,247.93l-26.23 19.98c-5.1,7.01 -3.1,3.14 -5.42,11.05 -156.7,132.64 -313.41,263.5 -470.46,395.58 -19.07,13.79 -26.25,13.32 -34.15,46.1 -14.59,60.52 38.35,68.04 86.61,68.02 29.39,-0.02 143.62,-6.01 153.09,3.76 9.91,12.04 4.33,719.02 4.21,846.44 -0.02,25.31 2.79,91.73 -2.33,116.28 -38.61,6.39 -72.87,-0.86 -105.79,8.99 -10.45,33.83 -12.61,118.52 1.88,147.6 51.96,16.16 507.4,7.14 600.29,7.79 505.1,3.59 1015.34,-2.32 1521.2,0.14l226.92 -0.3c28.73,0.04 50.08,5.39 64.44,-14.15 6.88,-28.69 4.89,-102.92 1.04,-132.77 -11.17,-26.44 -60.29,-5.55 -98.95,-18.42 -1.19,-0.4 -2.72,-1 -3.98,-1.7l-13.29 2.98 0.32 -961.09c51.8,0 103.75,-0.38 155.54,0.06 74.56,0.64 85.76,-47.26 71.49,-75.75 -13.4,-26.77 -307.85,-249.67 -347.93,-282.46 -29.36,-24.03 -56.05,-45.58 -86.87,-68.62 -203.58,-164.97 -410.17,-326.81 -615.29,-489.89 -7.94,-5.92 -163.31,-136.55 -172.89,-135.19zm-869.83 1375.42l0 121.86c0,64.08 63.88,54.63 138.67,54.63 116.9,0 88.71,-34.82 92.45,-100.91 8.2,-145.01 0.91,-126.01 -180.7,-126.01 -32.49,0 -50.43,17.94 -50.43,50.43zm314.06 -326.81c13.56,-3.83 85.96,-1.5 106.16,-1.49 93.96,0.09 97.02,-3.99 93.94,126.59 -2.2,92.97 -1.15,85.18 -135.96,84.42 -97.03,-0.55 -93.97,-1.35 -92.6,-126.22 0.42,-38.36 -3.57,-74.27 28.46,-83.32zm-36.71 352.02c0,156.68 -8.59,151.28 142.88,151.28 119.41,0 100.85,-13.89 100.85,-163.89 0,-40.89 -13.72,-63.03 -54.63,-63.03 -142.93,0 -189.1,-21.24 -189.1,75.64zm-243.68 -351.11c-34.04,9.12 -28.38,46.83 -28.13,77.9 1.08,133.51 -11.64,130.01 86.91,130.46 127.75,0.58 132.2,9.88 133.07,-79.85 1.28,-131.68 9.28,-130.5 -86.84,-130.91 -22.56,-0.09 -87.11,-2.39 -105.01,2.4z"/>
 </g>
</svg>
