<?xml version="1.0" encoding="UTF-8"?>
<!DOCTYPE svg PUBLIC "-//W3C//DTD SVG 1.1//EN" "http://www.w3.org/Graphics/SVG/1.1/DTD/svg11.dtd">
<!-- Creator: CorelDRAW (Оценочная версия) -->
<svg xmlns="http://www.w3.org/2000/svg" xml:space="preserve" width="76.9886mm" height="50mm" version="1.1" style="shape-rendering:geometricPrecision; text-rendering:geometricPrecision; image-rendering:optimizeQuality; fill-rule:evenodd; clip-rule:evenodd"
viewBox="0 0 862.61 560.22"
 xmlns:xlink="http://www.w3.org/1999/xlink"
 xmlns:xodm="http://www.corel.com/coreldraw/odm/2003">
 <defs>
  <style type="text/css">
   <![CDATA[
    .fil0 {fill:white}
   ]]>
  </style>
 </defs>
 <g id="Слой_x0020_2">
  <metadata id="CorelCorpID_0Corel-Layer"/>
  <path class="fil0" d="M0.09 102.28l-0.09 358.28c-0.03,41.21 16.91,67.29 39.59,82.49 35.69,23.93 97.79,15.83 144.99,15.92l562.07 -0.1c133.84,-0.29 114.92,-80.14 115.17,-196.93l-0.03 -203.79c-0.11,-103.08 12.18,-158.79 -115.14,-158.15l-654.1 0.21c-67.21,-0.4 -92.62,39.71 -92.46,102.07zm73.64 -45.12c1.32,14.15 18.45,21.18 38.37,38.68 56.82,49.92 181.42,149.02 244.73,199.03 96.84,76.49 47.14,83.59 212.58,-47.71l201.24 -163.66c9.22,-7.49 16.71,-12.19 18.24,-24.79 -15.88,-14.28 -142.2,-7.42 -170.43,-7.44 -78.83,-0.04 -501.08,-4.41 -544.72,5.88zm-23.54 48.75c12.55,6.71 31.83,24.27 45.86,35.55 15.32,12.32 32.6,25.76 47.46,38.08l233.17 190.89c14.79,11.93 28.55,29.96 54.53,30.18 36.67,0.3 79.35,-46.9 101.93,-64.79l233.69 -190.32c11.43,-9.64 34.37,-34.08 47.69,-36.42 -1.44,53.21 8.72,359.87 -8.58,384.44 -16.41,23.31 -44.38,18.06 -79.01,17.98l-591.65 0c-107.29,-0.64 -85.31,-13.62 -85.72,-208.72 -0.13,-62.42 -3.43,-135.72 0.63,-196.87z"/>
 </g>
</svg>
