<?xml version="1.0" encoding="UTF-8"?>
<!DOCTYPE svg PUBLIC "-//W3C//DTD SVG 1.1//EN" "http://www.w3.org/Graphics/SVG/1.1/DTD/svg11.dtd">
<!-- Creator: CorelDRAW (Оценочная версия) -->
<svg xmlns="http://www.w3.org/2000/svg" xml:space="preserve" width="72.8675mm" height="50.0001mm" version="1.1" style="shape-rendering:geometricPrecision; text-rendering:geometricPrecision; image-rendering:optimizeQuality; fill-rule:evenodd; clip-rule:evenodd"
viewBox="0 0 751.11 515.39"
 xmlns:xlink="http://www.w3.org/1999/xlink"
 xmlns:xodm="http://www.corel.com/coreldraw/odm/2003">
 <defs>
  <style type="text/css">
   <![CDATA[
    .fil0 {fill:white}
   ]]>
  </style>
 </defs>
 <g id="Слой_x0020_2">
  <metadata id="CorelCorpID_0Corel-Layer"/>
  <path class="fil0" d="M330.17 299.52c4.27,4.65 6.66,6.5 10.96,10.29l21.71 20.8c7.32,6.51 20.33,6.46 29.93,-3.39l113.78 -106.15c27.7,-24.17 56.12,-51.38 83.69,-75.26l16.58 -14.84c2.23,-2 3.93,-2.99 6.04,-5.06 11.77,-11.53 41.23,-36.37 55.48,-48.94 3.89,-3.43 7.89,-6.32 11.55,-9.71 9.09,-8.4 17.75,-17.39 27.71,-13.1 7.61,3.28 13.81,15.32 -0.87,27.01 -4.25,3.38 -7.16,6.38 -11.26,9.99l-61.49 54c-9.24,7.03 -30.03,26.94 -39.25,34.7l-33.15 29.69c-1.99,1.87 -3.57,2.82 -5.56,4.62l-50.02 46.18c3.82,5.71 19.21,16.57 20.14,19.98 5.38,2.34 68.86,67.98 75.71,74.64l99.17 100.44c4.94,5.11 23.51,19.49 10.3,31.41 -13.16,11.87 -25.87,-5.72 -31.49,-11.15 -8.92,-8.62 -16.22,-16.76 -24.4,-25.51l-61.87 -62.89c-4.43,-4.3 -7.62,-8.47 -12.12,-12.82l-69.11 -68.59c-3.24,-3.17 -4.71,-3.85 -6.38,-7.1 -4.3,-1.2 -15.46,-16.48 -22.18,-19.03l-74.14 68.97c-4.32,4.01 -6.86,7.06 -13.68,10.36 -35.72,17.26 -55.87,-12.45 -77.97,-32.59l-49.62 -46.33 -44.87 42.3c-7.28,7.38 -16.01,13.79 -22.94,21.42l-16.58 16.69c-1.68,1.56 -3.66,3.99 -5.82,4.74 -1.32,2.6 -0.88,1.87 -3.03,4.01 -1.24,1.23 -2.04,1.84 -3.34,3.09l-12.97 12.91c-1.4,1.27 -2.02,1.83 -3.33,3.1 -2.22,2.17 -1.11,1.62 -3.83,3.11 -0.42,1.22 0.46,0.44 -0.76,1.57 -1.28,1.19 -0.23,0.31 -1.52,0.79 -1.66,3.18 -53.43,55.1 -56.81,56.88l-19.17 20.09c-4.43,4.41 -14.27,16.95 -22.05,17.82 -13.16,1.46 -18.88,-12.55 -11.94,-22.25l20 -19.12c2.59,-4.99 17.4,-17.95 21.23,-21.88 20.24,-20.74 44.46,-43.8 63.41,-64.12l42.37 -42.64c9.16,-7.95 37.09,-37.86 43.96,-41.38 3.21,-6.84 12.61,-9.72 15.82,-16.88l-51.63 -46.2c-3.56,-3.68 -15.84,-13.17 -16.87,-16.06 -4.12,-2.04 -6.79,-4.9 -10.34,-8.48l-88.64 -78.63c-7.31,-6.1 -11.99,-11.14 -19.62,-17.34l-19.69 -17.29c-6.95,-7.85 -2.63,-21.65 7.4,-23.23 9.97,-1.57 18.4,9 23.86,13.24 20.87,16.22 49.49,44.31 69.61,60.68l29.9 26.48c5.47,5.09 37.32,32.79 38.98,36.17 4.14,1.36 7.75,6.34 10.98,9.04 3.93,3.29 7.24,6.83 11.26,10.01l98.73 90.72zm357.98 215.68c14.45,-5.01 22.27,-3.02 40.71,-19.16l9.75 -10.8c2.86,-7.24 8.24,-12.36 10.97,-26.71 2.11,-11.1 0.9,-241.34 0.9,-258.25 0.01,-24.64 0.04,-49.29 -0.01,-73.93 -0.09,-43.47 8.35,-89.14 -33.42,-114.84 -21.73,-13.37 -36.13,-10.9 -64.02,-11.02 -98.72,-0.43 -197.94,-0.72 -296.64,-0.03 -49.26,0.34 -98.6,-0.43 -147.86,-0.04 -35.92,0.29 -119.77,-1.69 -148.78,1.02 -2.83,1.48 -8.7,3.03 -11.7,2.72 -3.32,2.92 -9.6,4.63 -10.05,4.97 -1.89,2.64 -7.35,5.11 -10.39,7.45 -2.83,2.17 -7.48,6.72 -9.9,9.51 -22.96,26.51 -16.95,61.07 -17.14,97.48l0.03 305.89c-0.05,27.97 1.48,43.59 16.64,60.06 11.58,12.58 26.57,22.46 49.9,25.86l621 -0.18z"/>
 </g>
</svg>
