<?xml version="1.0" encoding="UTF-8"?>
<!DOCTYPE svg PUBLIC "-//W3C//DTD SVG 1.1//EN" "http://www.w3.org/Graphics/SVG/1.1/DTD/svg11.dtd">
<!-- Creator: CorelDRAW (Оценочная версия) -->
<svg xmlns="http://www.w3.org/2000/svg" xml:space="preserve" width="93.9717mm" height="55.0382mm" version="1.1" style="shape-rendering:geometricPrecision; text-rendering:geometricPrecision; image-rendering:optimizeQuality; fill-rule:evenodd; clip-rule:evenodd"
viewBox="0 0 4151.94 2431.75"
 xmlns:xlink="http://www.w3.org/1999/xlink"
 xmlns:xodm="http://www.corel.com/coreldraw/odm/2003">
 <defs>
  <style type="text/css">
   <![CDATA[
    .str0 {stroke:white;stroke-width:7.48;stroke-miterlimit:22.9256}
    .fil0 {fill:white}
   ]]>
  </style>
 </defs>
 <g id="Слой_x0020_3">
  <metadata id="CorelCorpID_0Corel-Layer"/>
  <path class="fil0 str0" d="M1766.67 707.66c128.18,-27.16 228.2,70.85 247.95,175.56 24.53,130.06 -68.98,235.69 -177.13,254.02 -268.55,45.52 -367.52,-366.71 -70.82,-429.58zm80.44 -689.5c-79.48,17.45 -165.28,25.9 -248.36,45.03 -212.85,49 -465.66,149.56 -649.79,250.95 -279.1,153.69 -621.78,421.07 -820.33,681.15 -113.32,148.43 -166.35,181.13 -87.19,286.99 28.59,38.22 179.26,212.43 211.61,238.82 26.02,21.23 49.25,49.83 75.21,74.94 75.82,73.33 149.85,148.23 235.41,215.03 374.33,292.27 702.55,493.98 1218.05,583.01 391.92,67.69 702.91,30.7 1058.82,-80.63 287.49,-89.93 541.73,-256.58 757.18,-443.49l78.78 -71.4c110.79,-86.12 414.59,-451.76 471.58,-574.31 3.1,-64.61 -45.36,-117.34 -72.71,-156.31 -53.79,-76.64 -229.68,-290.78 -302.7,-357.86 -347.44,-319.18 -623.58,-519.36 -1121.06,-644.34 -284.47,-71.47 -503.62,-71.79 -804.5,-47.58zm-1568.03 1194.11c24,39.85 88.07,101.7 118.73,140.04 14.55,18.19 27.55,28.81 43.94,46.06 15.38,16.19 24.25,28.4 38.62,45.65 16.65,19.98 28.75,25.46 46.85,43.09 14.66,14.28 24.57,30 39.09,45l140.16 124.15c31.33,30.66 63.77,52.81 95.82,78.32 200.33,159.43 430.09,285.53 688.73,368.65 598.17,192.23 1176.97,117.65 1681.6,-208.04 156.36,-100.92 179.94,-131.56 297.15,-225.3 19,-15.2 28.86,-27.59 46.96,-43.04l89.22 -85.07c18.52,-18.85 28.82,-23.64 46.03,-43.96l242.38 -284.06c-28.36,-68.45 -276.3,-329.82 -325.16,-372.32 -18.76,-16.32 -24.43,-20.73 -42.96,-41.13 -52.43,-57.74 -283.47,-222.84 -348.82,-263.81 -692.09,-433.99 -1468.99,-401.83 -2156.27,18.04 -92.47,56.49 -289.13,194.64 -375.55,273.12 -12.94,11.75 -12.02,13.16 -24.81,23.14 -31.03,24.19 -61.53,57.11 -90.81,83.36 -52.68,47.25 -176.93,182.68 -231.68,248.71l-19.23 29.4zm1798.94 -830.07c120.83,-9.13 245.1,13.33 348.13,52.88 291.99,112.1 482.81,376.26 494.77,729.06 20.99,619.1 -574.25,1038.46 -1124.65,789.52 -84.98,-38.43 -235.55,-140.73 -294.32,-216.04 -120.58,-154.52 -199.94,-277.66 -211.52,-503.31 -9.65,-188.02 54.88,-404.3 175.49,-541.39 10.38,-11.79 15.96,-15.52 25.8,-28.14 8.85,-11.36 11.3,-16.02 21.4,-26.69 58.42,-61.7 160.66,-130.22 239.25,-169.11 102.69,-50.81 197.45,-77.09 325.63,-86.78z"/>
 </g>
</svg>
