<?xml version="1.0" encoding="UTF-8"?>
<!DOCTYPE svg PUBLIC "-//W3C//DTD SVG 1.1//EN" "http://www.w3.org/Graphics/SVG/1.1/DTD/svg11.dtd">
<!-- Creator: CorelDRAW (Оценочная версия) -->
<svg xmlns="http://www.w3.org/2000/svg" xml:space="preserve" width="48.5512mm" height="54.316mm" version="1.1" style="shape-rendering:geometricPrecision; text-rendering:geometricPrecision; image-rendering:optimizeQuality; fill-rule:evenodd; clip-rule:evenodd"
viewBox="0 0 355.38 397.58"
 xmlns:xlink="http://www.w3.org/1999/xlink"
 xmlns:xodm="http://www.corel.com/coreldraw/odm/2003">
 <defs>
  <style type="text/css">
   <![CDATA[
    .fil0 {fill:white;fill-rule:nonzero}
   ]]>
  </style>
 </defs>
 <g id="Слой_x0020_3">
  <metadata id="CorelCorpID_0Corel-Layer"/>
  <path class="fil0" d="M104.53 93.57c45.2,-3.57 43.17,28.22 46.34,61.85 10.77,-0.14 73.03,-2.83 78.15,3.23 28.16,33.42 -58.27,24.76 -74.47,24.61 0.29,9.94 2.07,23.95 3.12,34.2 133.82,5.74 81.98,-18.15 156.1,105.41 9.18,-4.59 15.59,-7.24 25.02,-10.89 4.38,0.22 9.95,0.88 12.9,4.08 18.86,20.48 -40.07,42.54 -51.54,42.69 -14.62,-4.37 -54.19,-81.56 -64.78,-99.56 -28.16,0.22 -104.37,4.65 -126.14,-3.07 -5.52,-1.96 -9.53,-8.44 -12.01,-13.5 -6.97,-14.22 -21.05,-116.8 -15.78,-130.09 4.05,-10.2 13.67,-14.91 23.09,-18.97zm-35.31 64.89l1.65 0.96c2.5,6.19 3.45,17.99 4.32,25.05 -45.98,32.35 -64.86,83.21 -35.62,134.36 14.22,24.83 37.67,43.03 65.25,50.63 46.64,12.63 96.91,-12.83 117.19,-55.93 5.48,-11.64 8.02,-21.36 11.37,-33.74 5.02,7.48 11.08,16.01 14.99,24.02 3.91,7.96 2.81,8.46 0.39,15.54 -27.71,58.76 -90.87,91.6 -154.37,73.03 -33.66,-10.13 -61.93,-33.21 -78.61,-64.17 -34.76,-63.89 -9.9,-136.21 53.45,-169.76zm35.21 -157.59c22.47,-4.63 44.49,9.69 49.35,32.11 4.88,22.42 -9.18,44.59 -31.55,49.72 -14.68,3.37 -30.04,-1.42 -40.22,-12.53 -10.17,-11.11 -13.6,-26.84 -8.95,-41.18 4.63,-14.34 16.62,-25.07 31.37,-28.11z"/>
 </g>
</svg>
