<?xml version="1.0" encoding="UTF-8"?>
<!DOCTYPE svg PUBLIC "-//W3C//DTD SVG 1.1//EN" "http://www.w3.org/Graphics/SVG/1.1/DTD/svg11.dtd">
<!-- Creator: CorelDRAW (Оценочная версия) -->
<svg xmlns="http://www.w3.org/2000/svg" xml:space="preserve" width="54.0586mm" height="54.4601mm" version="1.1" style="shape-rendering:geometricPrecision; text-rendering:geometricPrecision; image-rendering:optimizeQuality; fill-rule:evenodd; clip-rule:evenodd"
viewBox="0 0 374.18 376.96"
 xmlns:xlink="http://www.w3.org/1999/xlink"
 xmlns:xodm="http://www.corel.com/coreldraw/odm/2003">
 <defs>
  <style type="text/css">
   <![CDATA[
    .fil0 {fill:white}
   ]]>
  </style>
 </defs>
 <g id="Слой_x0020_2">
  <metadata id="CorelCorpID_0Corel-Layer"/>
  <path class="fil0" d="M308.44 193.73c1.25,5.17 23.32,26.9 35.23,26.15 9.51,-0.6 32.36,-19.87 30.39,-33.26 -1.27,-8.68 -9.26,-13.18 -14.36,-18.47 -27.04,-28.03 -53.57,16.03 -51.26,25.58zm-44.13 56.16c1.32,6.01 18.33,25.26 32.63,22.07 11.32,-2.53 23.83,-16.83 19.84,-33.82 -8.45,-36.06 -60.03,-22.78 -52.47,11.75zm-52.53 48.84c0.16,0.4 12.63,13.43 14.35,15.24 23.99,25.06 46.95,-14.38 44.59,-24.43 -1.69,-7.2 -21.09,-26.35 -33.45,-24.15 -7.11,1.26 -30.5,20.58 -25.49,33.35zm0.32 61.74c8.34,-17.1 -4.82,-34.66 -13.81,-40.69 -26.43,-17.73 -59.61,31.42 -24.24,53.6 19.47,12.21 36.85,-10.44 38.05,-12.9zm-108.88 -61.74c0.8,3.67 10.73,13.34 14.04,16.68 22.15,22.33 47.52,-14.22 44.94,-25.48 -1.32,-5.77 -20.98,-28.31 -34.39,-24.24 -7.89,2.39 -27.45,19.95 -24.59,33.03zm3.51 -41.68c17.33,-21.89 -22.23,-61.89 -45.85,-26.39 -16.77,25.2 18.27,61.23 45.85,26.39zm-43.63 -58.44c11.95,-15.02 -13.71,-34.65 -21.04,-37.84 -11.86,-5.15 -17.44,-1.39 -24.27,4.77 -8.16,7.36 -29.16,22.37 -9.86,39.39 20.48,18.05 31.57,23.36 55.17,-6.32zm220.3 -90.55c-39.02,17.41 -13.77,63.21 13.34,53.84 31.47,-10.88 20.8,-69.07 -13.34,-53.84zm-48.99 -53.93c-8.65,3.78 -30.38,20.69 -23.51,35.38 0.27,0.57 18.74,30.11 37.46,20.89 7.56,-3.72 28.47,-20.02 23.02,-34.57 -0.21,-0.57 -18.73,-29.67 -36.97,-21.7zm-58.62 -51.19c-38.02,19.2 -3.52,70.33 20.15,55.1 36.54,-23.52 9.7,-70.17 -20.15,-55.1zm-49.74 50.39c-8.18,3.29 -28.79,19.45 -23.37,34.38 0.21,0.57 18.74,30.1 37.55,22.57 0.58,-0.23 28.67,-17.29 22.2,-35.03 -2.27,-6.23 -22.59,-27.46 -36.38,-21.91zm-50.39 54.42c-36.58,14.86 -6.93,65.15 17.66,53.18 37.02,-18.02 5.61,-62.63 -17.66,-53.18zm111.96 -8.74c-15.49,2.12 -27.12,21.5 -36.64,31.21 -32.42,33.06 -70,53.33 -45.6,72.5 10.9,8.56 23.09,22.19 33.21,32.72 57.45,59.77 43.66,47.53 71.27,24.51 8.34,-6.96 62.63,-60.14 66.07,-66.21 0.7,-16.32 -9.75,-19.53 -18.9,-27.93 -16.6,-15.22 -57.87,-61.34 -69.42,-66.79zm-57.82 89.84c3.61,-8.02 46.55,-51.4 55.38,-57.35 13.32,3.72 58.24,53.72 58.1,57.35 -5.73,12.97 -45.93,52.79 -58.1,57.33 -21.41,-13.06 -40.02,-38.43 -55.38,-57.33z"/>
 </g>
</svg>
