<?xml version="1.0" encoding="UTF-8"?>
<!DOCTYPE svg PUBLIC "-//W3C//DTD SVG 1.1//EN" "http://www.w3.org/Graphics/SVG/1.1/DTD/svg11.dtd">
<!-- Creator: CorelDRAW (Оценочная версия) -->
<svg xmlns="http://www.w3.org/2000/svg" xml:space="preserve" width="20.3609mm" height="50mm" version="1.1" style="shape-rendering:geometricPrecision; text-rendering:geometricPrecision; image-rendering:optimizeQuality; fill-rule:evenodd; clip-rule:evenodd"
viewBox="0 0 56.89 139.71"
 xmlns:xlink="http://www.w3.org/1999/xlink"
 xmlns:xodm="http://www.corel.com/coreldraw/odm/2003">
 <defs>
  <style type="text/css">
   <![CDATA[
    .fil0 {fill:white}
   ]]>
  </style>
 </defs>
 <g id="Слой_x0020_2">
  <metadata id="CorelCorpID_0Corel-Layer"/>
  <path class="fil0" d="M32.75 1.12c-22.35,7.39 -11.87,39.58 11.5,32.87 23.09,-6.62 11.72,-40.55 -11.5,-32.87zm-15.3 62.54c5.71,9.73 -16.98,49.25 -10.55,65.42 5.43,13.66 25.15,13.54 41.3,3.13 5.14,-3.31 8.5,-5.71 2.8,-11.38 -7.51,0.65 -7.7,6.59 -17.59,3.98 -3.98,-15.26 17.34,-60.13 12.55,-71.41 -4.28,-10.08 -24.26,-4.61 -33.24,-2.03 -5.17,1.49 -13.62,3.17 -12.64,9.43 0.59,3.79 3.65,2.92 7.11,2.31 3.57,-0.63 7.02,-2.02 10.27,0.55z"/>
 </g>
</svg>
