<?xml version="1.0" encoding="UTF-8"?>
<!DOCTYPE svg PUBLIC "-//W3C//DTD SVG 1.1//EN" "http://www.w3.org/Graphics/SVG/1.1/DTD/svg11.dtd">
<!-- Creator: CorelDRAW (Оценочная версия) -->
<svg xmlns="http://www.w3.org/2000/svg" xml:space="preserve" width="54.5693mm" height="54.5824mm" version="1.1" style="shape-rendering:geometricPrecision; text-rendering:geometricPrecision; image-rendering:optimizeQuality; fill-rule:evenodd; clip-rule:evenodd"
viewBox="0 0 530.98 531.11"
 xmlns:xlink="http://www.w3.org/1999/xlink"
 xmlns:xodm="http://www.corel.com/coreldraw/odm/2003">
 <defs>
  <style type="text/css">
   <![CDATA[
    .fil0 {fill:white}
   ]]>
  </style>
 </defs>
 <g id="Слой_x0020_2">
  <metadata id="CorelCorpID_0Corel-Layer"/>
  <path class="fil0" d="M230.68 2.32c145.28,-19.22 278.65,82.96 297.95,228.26 19.3,145.31 -82.77,278.77 -228.03,298.16 -145.38,19.41 -278.94,-82.79 -298.26,-228.22 -19.31,-145.43 82.94,-278.96 228.34,-298.2zm3.3 29.26c129.25,-17.49 248.17,73.22 265.5,202.52 17.34,129.3 -73.49,248.15 -202.79,265.33 -129.07,17.15 -247.64,-73.51 -264.95,-202.59 -17.31,-129.08 73.2,-247.79 202.23,-265.26zm-57.61 81.72c29.82,-2.49 33.88,18.99 46.64,42.86 6.8,12.72 14.82,33.56 14.07,47.43 -0.41,7.49 -24.04,21.91 -30.52,26.25 19.76,41.04 58.22,77.46 97.35,100.18 8.13,-10.04 16.19,-21.9 27.85,-27.27 20.46,-1.23 53.45,14.34 71.3,25.23 29.09,17.76 20.94,38.52 4.65,60.19 -32.35,26.93 -51.32,25 -91.34,14.86 -86.78,-21.99 -282.2,-223.7 -140,-289.73z"/>
 </g>
</svg>
