<?xml version="1.0" encoding="UTF-8"?>
<!DOCTYPE svg PUBLIC "-//W3C//DTD SVG 1.1//EN" "http://www.w3.org/Graphics/SVG/1.1/DTD/svg11.dtd">
<!-- Creator: CorelDRAW (Оценочная версия) -->
<svg xmlns="http://www.w3.org/2000/svg" xml:space="preserve" width="37.7045mm" height="50.0001mm" version="1.1" style="shape-rendering:geometricPrecision; text-rendering:geometricPrecision; image-rendering:optimizeQuality; fill-rule:evenodd; clip-rule:evenodd"
viewBox="0 0 132.48 175.68"
 xmlns:xlink="http://www.w3.org/1999/xlink"
 xmlns:xodm="http://www.corel.com/coreldraw/odm/2003">
 <defs>
  <style type="text/css">
   <![CDATA[
    .fil0 {fill:white}
   ]]>
  </style>
 </defs>
 <g id="Слой_x0020_2">
  <metadata id="CorelCorpID_0Corel-Layer"/>
  <path class="fil0" d="M60.36 0.53c-21.38,3.06 -36.57,10.61 -48.86,27.9 -12.17,17.13 -15.38,38.18 -6.24,59.71 3.68,8.66 9.29,17.1 14.18,24.35 5.4,8.01 10.24,14.92 15.81,22.72l24.21 33.58c10.45,14.66 12.35,4.35 27.8,-16.1 12.65,-16.75 38.11,-53.09 43.26,-72.27 6.3,-23.48 -3.6,-46.11 -15.21,-59.13 -12.46,-13.97 -34.28,-23.72 -54.95,-20.76zm-21.94 69.92c-3.14,-16.88 10.05,-31.06 23.76,-33.19 26.23,-4.09 42.92,27.12 27.17,47.12 -0.99,1.25 -2.14,2.15 -3.27,3.34 -12.6,13.37 -42.65,9.65 -47.65,-17.27z"/>
 </g>
</svg>
