<?xml version="1.0" encoding="UTF-8"?>
<!DOCTYPE svg PUBLIC "-//W3C//DTD SVG 1.1//EN" "http://www.w3.org/Graphics/SVG/1.1/DTD/svg11.dtd">
<!-- Creator: CorelDRAW (Оценочная версия) -->
<svg xmlns="http://www.w3.org/2000/svg" xml:space="preserve" width="52.4676mm" height="51.3771mm" version="1.1" style="shape-rendering:geometricPrecision; text-rendering:geometricPrecision; image-rendering:optimizeQuality; fill-rule:evenodd; clip-rule:evenodd"
viewBox="0 0 520.39 509.57"
 xmlns:xlink="http://www.w3.org/1999/xlink"
 xmlns:xodm="http://www.corel.com/coreldraw/odm/2003">
 <defs>
  <style type="text/css">
   <![CDATA[
    .fil0 {fill:white}
   ]]>
  </style>
 </defs>
 <g id="Слой_x0020_3">
  <metadata id="CorelCorpID_0Corel-Layer"/>
  <path class="fil0" d="M83.16 382.76c40.36,-1.45 61.68,-11.57 57.54,40.58 -0.92,11.52 0.98,12.28 -8.33,20.91 -9.7,0.08 -47.75,2.23 -52.25,-3.8 -8.57,-11.48 -8.8,-47.42 3.04,-57.69zm-2.62 -91.08c13.91,-0.09 40.47,-4.08 51.74,1.91 12.92,6.87 10.11,48.48 2.79,58.85 -12.92,0.83 -42.95,5.08 -52.89,-2.45 -11.11,-8.42 -9.79,-47.95 -1.65,-58.31zm102.27 90.45c12.06,-0.09 40.59,-2.65 49.94,1.97 14.22,7.03 12.04,47.42 3.79,59.28 -13.5,0.43 -39.94,4.59 -50.97,-1.32 -13.01,-6.97 -10.74,-49.53 -2.77,-59.93zm103.3 0.37c11.81,0.05 44.36,-4.26 51.01,3.37 10.25,11.78 9.66,46.03 -1.12,57.98 -5.28,0.13 -27.47,-0.02 -30.87,1.04 -32.74,10.17 -31.81,-49.48 -19.02,-62.39zm-1.24 -90.92c11.96,-0.01 44.95,-4.34 52.09,3.17 10.11,10.63 9.77,46.79 -0.49,58.23 -32.68,0.3 -62.13,12.06 -57.96,-34.33 1.02,-11.37 -1.71,-16.91 6.36,-27.07zm-102.21 -0.01c14.52,-0.02 35.62,-3.01 48.73,0.83 15.94,4.66 12.2,49.02 6.34,60.02 -12.67,1.22 -42.58,4.22 -52.45,-1.57 -12.63,-7.42 -10.45,-48.79 -2.62,-59.27zm209.16 -91.73c12.58,-0.27 41.22,-3.05 50.19,3.78 7.5,13.07 4.66,34.52 2.5,49.2 -0.79,5.35 -5.25,6.66 -9.43,8.81 -12.04,0.21 -41.16,2.63 -49.78,-4.17 -6.95,-12.46 -5.71,-35.5 -2.93,-49.58 1,-5.09 5.64,-6.4 9.46,-8.04zm-102.58 -0.08c11.87,-0.24 41.5,-2.78 49.9,3.89 7.76,13.01 4.97,34.49 2.93,49.2 -0.68,4.95 -4.93,6.57 -8.65,8.72 -49.21,1.18 -61.18,7.26 -53.25,-52.75 0.77,-5.8 4.61,-6.79 9.07,-9.07zm-204.01 0.06c13.05,-0.46 40.46,-3.48 50.4,3.31 8.39,12.65 9.17,48.84 -4.75,58.53 -13.21,0.27 -40.9,2.75 -51.14,-3.95 -8.43,-12.78 -5.58,-34.03 -3.53,-48.78 0.73,-5.25 5.13,-6.93 9.03,-9.11zm101.9 -0.19c48.11,-1.43 61.2,-8.64 54.15,49.82 -0.88,7.29 -3.16,8.22 -8.43,12.11 -13.99,0.31 -40.44,2.83 -51.62,-3.98 -7.56,-11.88 -4.67,-35.89 -2.72,-49.6 0.69,-4.85 4.98,-6.4 8.62,-8.34zm-66.48 -199.64c6.89,1.32 15.84,3.77 18.49,11.53 7.6,22.3 5.71,52.93 1.13,75.76 -1.45,7.2 -8.81,10.56 -14.54,13.53 -27.03,-5.65 -24.09,-30.41 -24.41,-53.1 -0.29,-20.44 -1.28,-39.23 19.32,-47.72zm250.01 0.19c13.62,2.68 21.07,10.22 21.25,24.26 0.3,24.06 9.89,66.05 -17.77,76.22 -25.91,-5.37 -23.35,-32.15 -23.3,-53.57 0.06,-20.51 -1.77,-39.79 19.82,-46.91zm-344.23 161.63c154.46,-1.78 313.43,-0.37 468.04,-0.09l0.14 200.55c0.01,21.65 3.27,99.34 -5.33,113.92 -11.09,5.08 -15.46,4.53 -27.75,4.66l-287.62 0.04 -87.04 -0.02c-13.62,-0.01 -51.44,2.25 -55.26,-6.36 -8.6,-19.36 -5.39,-102.87 -5.4,-122.02l0.21 -190.68zm377.63 -110.87c27.83,-0.47 80.34,-7.04 102.86,12.15 4.84,4.12 11.37,15.79 11.79,22.39 2.3,36.67 1.27,74.1 1.21,110.93l-0.01 227.95c0.2,19.21 2.89,46.1 -7.14,62.27 -3.52,5.67 -12.32,16.3 -19.02,17.57 -11.52,2.21 -23.2,3.53 -34.93,3.96 -133.88,4.3 -271.17,-2.87 -405.39,0.14 -33.35,0.75 -52.54,-18.76 -52.82,-52.29 -0.98,-118.6 0.76,-237.23 -0.62,-355.83 -0.3,-25.57 12.28,-39.13 34.5,-48.71 13.76,-1.35 41.66,-0.67 56.47,-0.76 -0.39,18.95 -2.56,36.46 10.73,52.07 11.83,13.88 29.23,14.53 41.57,0.87 14.31,-15.83 12.35,-33.18 12.07,-52.92l185.06 0.21c-0.03,9.91 -0.64,22.27 0.25,31.71 2.64,27.94 39.74,41.59 56.26,15.92 10.08,-15.67 7.59,-30.5 7.14,-47.65zm-15.24 331.52c11.81,0.05 44.36,-4.26 51.01,3.37 10.25,11.78 9.66,46.03 -1.12,57.98 -5.28,0.13 -27.47,-0.02 -30.87,1.04 -32.74,10.17 -31.81,-49.48 -19.02,-62.39zm-1.24 -90.92c11.96,-0.01 44.95,-4.34 52.09,3.17 10.11,10.63 9.77,46.79 -0.49,58.23 -32.68,0.3 -62.13,12.06 -57.96,-34.33 1.02,-11.37 -1.71,-16.91 6.36,-27.07z"/>
 </g>
</svg>
