<?xml version="1.0" encoding="UTF-8"?>
<!DOCTYPE svg PUBLIC "-//W3C//DTD SVG 1.1//EN" "http://www.w3.org/Graphics/SVG/1.1/DTD/svg11.dtd">
<!-- Creator: CorelDRAW (Оценочная версия) -->
<svg xmlns="http://www.w3.org/2000/svg" xml:space="preserve" width="65.637mm" height="50mm" version="1.1" style="shape-rendering:geometricPrecision; text-rendering:geometricPrecision; image-rendering:optimizeQuality; fill-rule:evenodd; clip-rule:evenodd"
viewBox="0 0 493.22 375.72"
 xmlns:xlink="http://www.w3.org/1999/xlink"
 xmlns:xodm="http://www.corel.com/coreldraw/odm/2003">
 <defs>
  <style type="text/css">
   <![CDATA[
    .fil0 {fill:white}
   ]]>
  </style>
 </defs>
 <g id="Слой_x0020_3">
  <metadata id="CorelCorpID_0Corel-Layer"/>
  <path class="fil0" d="M0.4 98.9c-0.86,8.75 -0.06,64.33 -0.06,78.14l0.15 118.19c-0.03,11.04 -1.01,28.34 0.74,38.66 3.41,20.13 19.61,37.03 39.99,40.16l22.33 0.62c19.03,0 61.29,1.04 75.32,-0.17l-5.66 -0.55c0.9,-2.02 3.13,-0.09 0.62,-2.43 1.92,-1.96 1.16,-1.16 1.38,-4.08 -1.88,-1.69 -1.47,-0.13 -0.04,-3.16 -0.11,-0.1 -0.27,-0.44 -0.33,-0.31l-1.89 -0.59 2.05 -1.85 -9.17 -0.7c1.62,4.54 2.22,-4.04 2.56,1.98 0,0.04 -0.04,0.21 -0.04,0.25 -0.11,1.49 -0.57,0.42 -0.03,2.36 0.98,-0.31 2.23,-0.5 3.45,-0.11 -0.13,0.18 -0.68,3.24 -2.62,4.93l-0.96 -0.97c-0.95,3.39 -0.09,2.07 -2.28,2.57 -1.28,0.29 -1.45,-0.4 -2.39,-1l-2.05 2.06 -17.98 1.11c3.01,-3.58 1.61,-0.74 5.2,-0.82 -1.69,-1.45 -0.77,-2.57 -0.43,-5.63 -2.94,0.54 0.74,-1.45 -5.19,-1.37l1.73 -1.65 -2.79 -1.84c-0.25,1.81 -0.66,1.66 -3.16,1.95 2.34,-4.26 -0.25,-0.88 3.94,-3.6l-39.77 -0.17 0.78 -1.77c2.98,-7.22 6.03,-10.63 8.36,-19.18 5.5,-20.12 3.84,-58.66 3.83,-80.17 -0.01,-8.26 -0.7,-107.35 0.3,-112.6 -1.2,-5.79 -0.67,-56.32 -0.75,-66.65 -0.08,-11.16 0.02,-22.34 -0.12,-33.49 -0.12,-9.72 1.01,-17.96 8.89,-24.54 8.3,-6.92 17.81,-5.51 27.83,-5.5l100.46 0.01c77.73,-0.05 157.51,0.6 235.08,-0.03 13.11,-0.11 14.46,2.03 23.93,9.62 1.79,0.68 2.47,-0.03 4.07,-1.26l3.43 -2.15c-4.08,-1.18 -1.68,1.01 -3.75,-0.72 -1.59,-1.33 -1.21,-2.27 -3.53,-3.17 1.68,-1.63 2.77,-2.64 2.11,-4.78 -1.42,-4.65 -1.91,-0.79 0.74,-5.21l-0.94 -2.63c-18.03,-9.07 -35.13,-6.23 -54.98,-6.24l-302.68 0.02c-19.57,0.01 -32.43,-1.94 -47.21,13.17 -14.99,15.34 -9.11,30.88 -10.85,49.57 -15.53,1.22 -26.26,-2.67 -40.28,6.33 -10.07,6.47 -16.68,16.94 -17.35,29.4zm36.5 -18.49c-26.4,4.24 -19.94,32.33 -19.94,59.2l0 158.89c-0,10.29 -1.03,27.83 2.21,37.18 3.06,8.84 11.09,17.69 20.54,19.57 19.53,3.89 18.33,-49 18.35,-59.38l0.01 -198.29c0.01,-3.4 1.38,-16.62 -1.82,-17.62 -1.36,-0.42 -17.09,0.09 -19.37,0.45zm434.71 -53.83c1.04,5.32 4.13,6.26 4.38,15.18 0.18,6.32 0.06,12.73 0.06,19.06l0.17 116.21c0.16,49.25 0.14,98.51 0.32,147.76 0.04,9.9 -2.68,20.14 -10.84,26.55 -10.31,8.09 -17.35,7.55 -29.87,7.57 -24.73,0.04 -49.47,0.04 -74.19,0l-223.89 -0.01c-17.41,0 -59.44,-0.75 -73.96,0.21l-0.78 1.77 39.77 0.17c-4.19,2.72 -1.6,-0.66 -3.94,3.6 2.5,-0.29 2.91,-0.14 3.16,-1.95l2.79 1.84 -1.73 1.65c5.93,-0.08 2.25,1.92 5.19,1.37 -0.34,3.05 -1.26,4.18 0.43,5.63 -3.58,0.08 -2.19,-2.76 -5.2,0.82l17.98 -1.11 2.05 -2.06c0.94,0.61 1.11,1.29 2.39,1 2.18,-0.5 1.33,0.82 2.28,-2.57l0.96 0.97c1.94,-1.69 2.5,-4.76 2.62,-4.93 -1.22,-0.39 -2.48,-0.2 -3.45,0.11 -0.54,-1.93 -0.07,-0.87 0.03,-2.36 0,-0.04 0.04,-0.21 0.04,-0.25 -0.34,-6.02 -0.94,2.56 -2.56,-1.98l9.17 0.7 -2.05 1.85 1.89 0.59c0.06,-0.13 0.22,0.21 0.33,0.31 -1.43,3.03 -1.84,1.47 0.04,3.16 -0.22,2.92 0.54,2.11 -1.38,4.08 2.51,2.34 0.28,0.41 -0.62,2.43l5.66 0.55c-14.03,1.21 -56.29,0.17 -75.32,0.17l-22.33 -0.62c9.95,2.59 65.21,1.4 79.45,1.41l244.25 0.01c27.01,-0.01 54.5,0.5 81.46,-0.03 21.43,-0.43 40.57,-15.06 45.37,-36.14 2.38,-10.45 1.2,-65.65 1.06,-80.19 -0.25,-27.14 -0.12,-54.28 -0.22,-81.42 0.2,-31.93 0.3,-63.93 0.08,-95.86 -0.1,-14.48 1.08,-32.71 -0.31,-46.66 -1.24,-12.34 -8.65,-21.85 -18.62,-28.52l0.94 2.63c-2.64,4.43 -2.16,0.56 -0.74,5.21 0.66,2.14 -0.44,3.15 -2.11,4.78 2.32,0.9 1.94,1.84 3.53,3.17 2.06,1.73 -0.33,-0.46 3.75,0.72l-3.43 2.15c-1.61,1.23 -2.28,1.95 -4.07,1.26zm-353.56 220.77l32.14 -0.07c4.11,0.12 8.85,0.49 12.76,-0.44 0.39,-3.56 1.47,-2.92 3.14,-5.58 5.3,6.38 6.6,3.6 6.75,3.57 1.22,1.04 1.21,0.87 2.06,1.52 0.11,0.09 0.38,0.33 0.48,0.4 0.05,0.03 0.2,0.14 0.24,0.17 0.24,0.15 14.43,1.16 17.36,-0.77 -0.28,-3.42 -0.26,-3.17 -2.7,-3.58 3.06,-3.08 2.26,2.56 2.68,-3.72 -2.55,0.88 -0.48,1.88 -2.51,0.37 0.07,-0.11 0.19,-0.26 0.23,-0.31l0.76 -0.99c0.5,-0.62 0.68,-0.78 1.24,-1.46l-0.61 -0.62c-1.31,-1.32 -1.85,-1.68 -2.6,-3.81 2.21,0.75 1.19,0.13 2.55,2.76 1.28,-2.49 0.91,-1.61 0.78,-4.48 1.78,0.57 -0.28,0.76 2.04,0.11 -3.87,-3.39 -0.6,-1.66 -2.03,-4.43 -1.08,-2.1 0.21,0.9 -2.42,-2.45l2.42 -1.63c-1.34,-1.29 -2.99,-1.99 -1.94,-3.4 1.89,-2.57 -0.79,1.17 1.53,-0.75 1.48,-1.23 0.64,-0.56 0.73,-1.42l-0.3 -9.1c1.66,0.66 0.74,0.96 1.24,0.04 1.25,-2.28 0.03,1.19 -0.07,-0.83 -0,-0.07 -0.07,-0.29 -0.07,-0.37 0.02,-2.99 1.84,-1.62 2.77,0.43 0.39,-6.98 2.09,-1.96 1.93,-6.55 -1.75,1.37 -2.2,4.02 -4.69,3.09 -3.23,-1.21 0.39,-2.33 -2.2,-4.78 0.92,-1.18 1.05,-1.88 1.92,-2.91 2.27,-2.69 -0.37,0.19 1.97,-0.98 1.87,-0.94 -0.01,0.61 1.27,-1.56l1.19 -2.4c0.06,-0.18 0.25,-1.29 0.3,-1.5 -0.74,-1.09 -3.13,-1.46 -4.38,-0.12 -1.17,-3.62 0.72,-1.81 -3.3,-3.47l2.34 -1.98c-2.74,-0.67 -1.36,0.63 -3.52,-3.45 1.72,0.14 -0.1,0.91 2.24,-0.58 -6.35,-1.63 0.16,-3.78 1.89,-5.13 -3.06,-5.94 0.78,-6.35 1.07,-6.52 -3.34,-3.99 -0.41,-2.04 -2.45,-4.26l2.56 -1.11 2.25 2.92c2.73,-4.06 -0.52,0.38 -1.06,-5.24 3.14,0.13 0.04,0.92 2.19,0.51l1.23 -2.98 -6.56 -0.74c-0.14,-2.81 0.48,-1.59 -1.05,-2.39 -2.75,-1.44 1.05,0.91 -1.71,0.2l-0.17 -1.46c0.09,-0 1.42,-0.05 1.43,-0.05l1.49 -1.59c-2.25,0.73 -1.91,0.24 -4.15,-1.11 2,-0.92 4.48,-2.31 5.45,-3.09 -1.79,-2.3 -1.84,-2.52 0.43,-4.24 -1.67,-0.47 -2.18,0.92 -1.89,-2.38 0.16,-1.82 -0.46,-0.47 2.1,-1.69l-13.79 -0.18 1.97 -1.8c-16.63,-0.04 -33.27,-0.05 -49.9,-0 -20.32,0.06 -26.87,-0.54 -26.92,22.32 -0.03,16.41 -0,32.83 -0.01,49.24 -0,7.93 -0.42,17.17 0.05,24.95 0.43,7.19 4.52,12.73 11.77,13.85zm-5.71 -196.6c-5.87,1.84 -7.52,8.63 -3.6,13.41 3.76,4.57 14.15,3.2 19.82,3.2l274.45 0.01c7.75,0 40.53,0.96 45.53,-0.44 5.93,-1.67 8.53,-9.14 4.22,-13.84 -3.81,-4.15 -14.74,-2.84 -20.2,-2.83l-137.23 -0c-9.07,-0 -178.95,-0.78 -182.99,0.49zm-2.86 56.35c3.48,0.87 2.98,1.6 7.23,1.68l296.15 -0.03c8.75,0.07 17.52,0.01 26.27,0.01 6.85,-0 17.67,0.22 15.64,-10.34 -1.65,-8.6 -13.63,-6.42 -20.24,-6.43l-239 -0.01c-17.73,-0.02 -35.46,0.02 -53.18,0.01 -8.73,-0.01 -18.24,-0.36 -26.87,-0.03 -3.53,0.13 -6.72,1.52 -8.13,4.81 -2.05,4.77 0.14,6.73 2.13,10.34zm2.82 166.83c-6.04,1.6 -7.47,9.58 -2.68,13.96 3.66,3.35 15.81,2.19 20.91,2.2 15.1,0.01 30.2,0.01 45.3,0.01 17.68,-0 268.69,0.94 273.4,-0.52 6.01,-1.86 7.65,-9.83 2.91,-13.97 -3.71,-3.23 -15.82,-2.09 -20.9,-2.08l-227.83 0c-11.3,-0 -86.78,-0.76 -91.11,0.39zm-0.58 39.49c-5.08,1.95 -6.86,9.09 -3.27,13.12 3.49,3.92 12.56,2.81 17.48,2.82l203.54 0c10.77,-0.03 75.99,1.07 80.78,-0.64 5.02,-1.79 6.98,-8.56 3.54,-12.78 -3.53,-4.32 -12.13,-3.09 -17.35,-3.09 -43.87,0.01 -280.68,-0.98 -284.72,0.56zm6.33 -66.08c1.04,0.44 95,1.49 104.99,0.48 12.88,-1.3 13.03,-12.16 13,-22.22 -0.06,-23.64 0.03,-47.29 -0.03,-70.94 -0.03,-11.85 -5.47,-17.69 -17.49,-17.73 -11.79,-0.03 -23.69,-0.1 -35.48,0.02l-1.97 1.8 13.79 0.18c-2.56,1.22 -1.94,-0.13 -2.1,1.69 -0.29,3.3 0.22,1.91 1.89,2.38 -2.28,1.72 -2.22,1.94 -0.43,4.24 -0.96,0.78 -3.45,2.17 -5.45,3.09 2.25,1.34 1.9,1.84 4.15,1.11l-1.49 1.59c-0.01,0.01 -1.34,0.05 -1.43,0.05l0.17 1.46c2.76,0.71 -1.04,-1.64 1.71,-0.2 1.53,0.8 0.92,-0.43 1.05,2.39l6.56 0.74 -1.23 2.98c-2.15,0.41 0.95,-0.38 -2.19,-0.51 0.54,5.63 3.79,1.18 1.06,5.24l-2.25 -2.92 -2.56 1.11c2.04,2.21 -0.89,0.27 2.45,4.26 -0.29,0.17 -4.13,0.58 -1.07,6.52 -1.73,1.35 -8.24,3.5 -1.89,5.13 -2.34,1.5 -0.52,0.72 -2.24,0.58 2.15,4.08 0.77,2.78 3.52,3.45l-2.34 1.98c4.01,1.65 2.13,-0.15 3.3,3.47 1.25,-1.34 3.64,-0.97 4.38,0.12 -0.06,0.21 -0.24,1.32 -0.3,1.5l-1.19 2.4c-1.28,2.17 0.6,0.62 -1.27,1.56 -2.35,1.17 0.29,-1.71 -1.97,0.98 -0.87,1.03 -1,1.73 -1.92,2.91 2.59,2.45 -1.04,3.57 2.2,4.78 2.48,0.93 2.94,-1.72 4.69,-3.09 0.16,4.59 -1.53,-0.43 -1.93,6.55 -0.92,-2.05 -2.74,-3.42 -2.77,-0.43 -0,0.08 0.07,0.29 0.07,0.37 0.1,2.03 1.32,-1.45 0.07,0.83 -0.51,0.92 0.42,0.62 -1.24,-0.04l0.3 9.1c-0.09,0.85 0.75,0.19 -0.73,1.42 -2.32,1.93 0.36,-1.82 -1.53,0.75 -1.04,1.41 0.6,2.11 1.94,3.4l-2.42 1.63c2.63,3.35 1.34,0.35 2.42,2.45 1.43,2.77 -1.84,1.05 2.03,4.43 -2.33,0.66 -0.26,0.46 -2.04,-0.11 0.13,2.86 0.5,1.99 -0.78,4.48 -1.37,-2.64 -0.35,-2.01 -2.55,-2.76 0.76,2.13 1.29,2.48 2.6,3.81l0.61 0.62c-0.57,0.68 -0.74,0.84 -1.24,1.46l-0.76 0.99c-0.04,0.05 -0.16,0.2 -0.23,0.31 2.02,1.51 -0.05,0.51 2.51,-0.37 -0.42,6.28 0.38,0.64 -2.68,3.72 2.44,0.41 2.42,0.15 2.7,3.58 -2.93,1.93 -17.12,0.93 -17.36,0.77 -0.04,-0.03 -0.2,-0.14 -0.24,-0.17 -0.1,-0.07 -0.37,-0.31 -0.48,-0.4 -0.85,-0.66 -0.84,-0.48 -2.06,-1.52 -0.15,0.03 -1.45,2.81 -6.75,-3.57 -1.67,2.65 -2.75,2.02 -3.14,5.58 -3.91,0.93 -8.65,0.57 -12.76,0.44l-32.14 0.07zm145.1 -85.97c15.43,1.03 34.1,0.07 49.9,0.11l126.06 0c6.67,-0.01 16.63,0.53 15.79,-9.37 -0.78,-9.24 -11.86,-7.29 -18.42,-7.31 -8.32,-0.02 -16.63,0.01 -24.95,0 -47.97,-0.01 -103.46,-1.2 -149.7,0.03 -10.73,2.09 -9.84,15.43 1.31,16.53zm-3.69 26.59c-6.25,2.16 -6.73,10.98 -1.13,14.22 4.14,2.39 61.97,1.22 69.17,1.24 11.5,0.02 89,1.02 93.42,-0.59 6.13,-2.23 6.84,-10.93 1.28,-14.16 -4.04,-2.34 -17.27,-1.28 -22.48,-1.28 -15.54,-0.01 -31.08,-0 -46.62,0 -12.14,0.01 -88.49,-1.21 -93.64,0.57zm0.73 38.05c-4.98,1.6 -7.4,7.4 -4.84,12 2.93,5.27 9.61,4.15 15.02,4.15 17.43,0.01 108.94,0.86 113.19,-0.55 4.68,-1.55 7.14,-7.12 4.69,-11.73 -2.85,-5.38 -9.62,-4.31 -14.8,-4.3 -17.39,0.03 -109.31,-0.84 -113.27,0.43zm177.66 -22.18c1.93,-0.93 1.93,-0.83 0,-1.76 -0.62,1.03 -1.29,0.25 0,1.76z"/>
 </g>
</svg>
