<?xml version="1.0" encoding="UTF-8"?>
<!DOCTYPE svg PUBLIC "-//W3C//DTD SVG 1.1//EN" "http://www.w3.org/Graphics/SVG/1.1/DTD/svg11.dtd">
<!-- Creator: CorelDRAW (Оценочная версия) -->
<svg xmlns="http://www.w3.org/2000/svg" xml:space="preserve" width="56.1241mm" height="56.1379mm" version="1.1" style="shape-rendering:geometricPrecision; text-rendering:geometricPrecision; image-rendering:optimizeQuality; fill-rule:evenodd; clip-rule:evenodd"
viewBox="0 0 543.7 543.83"
 xmlns:xlink="http://www.w3.org/1999/xlink"
 xmlns:xodm="http://www.corel.com/coreldraw/odm/2003">
 <defs>
  <style type="text/css">
   <![CDATA[
    .fil0 {fill:white}
   ]]>
  </style>
 </defs>
 <g id="Слой_x0020_2">
  <metadata id="CorelCorpID_0Corel-Layer"/>
  <path class="fil0" d="M241.57 1.72c149.48,-16.76 284.15,91.09 300.49,240.65 16.35,149.56 -91.84,283.97 -241.41,299.91 -148.99,15.88 -282.74,-91.83 -299.02,-240.81 -16.28,-148.99 91.03,-283.05 239.94,-299.75zm16.35 112.72c20.67,-6.58 42.76,4.89 49.29,25.58 6.53,20.7 -4.99,42.76 -25.7,49.24 -20.64,6.45 -42.6,-5.01 -49.11,-25.64 -6.5,-20.63 4.91,-42.62 25.51,-49.18zm-22.28 108.3c24.81,-1.17 46.33,-1.36 71.04,-1.2 1.75,55.92 0.16,121.14 0.14,177.77l22.83 1.17 -0.16 29.79c-13.94,0.76 -32.24,0.4 -46.49,0.51 -22.65,0.16 -45.29,0.07 -67.94,-0.29l0.01 -29.99 23.12 -0.61 -0.19 -145.36 -26.84 -0.64 -0.01 -30.31 24.48 -0.83zm17.94 -187.34c130.78,-10.1 244.91,87.92 254.72,218.76 9.8,130.83 -88.45,244.77 -219.27,254.29 -130.41,9.48 -243.88,-88.42 -253.66,-218.84 -9.77,-130.42 87.85,-244.14 218.21,-254.21z"/>
 </g>
</svg>
