<?xml version="1.0" encoding="UTF-8"?>
<!DOCTYPE svg PUBLIC "-//W3C//DTD SVG 1.1//EN" "http://www.w3.org/Graphics/SVG/1.1/DTD/svg11.dtd">
<!-- Creator: CorelDRAW (Оценочная версия) -->
<svg xmlns="http://www.w3.org/2000/svg" xml:space="preserve" width="49.7736mm" height="63.3008mm" version="1.1" style="shape-rendering:geometricPrecision; text-rendering:geometricPrecision; image-rendering:optimizeQuality; fill-rule:evenodd; clip-rule:evenodd"
viewBox="0 0 527.73 671.16"
 xmlns:xlink="http://www.w3.org/1999/xlink"
 xmlns:xodm="http://www.corel.com/coreldraw/odm/2003">
 <defs>
  <style type="text/css">
   <![CDATA[
    .fil0 {fill:white}
   ]]>
  </style>
 </defs>
 <g id="Слой_x0020_2">
  <metadata id="CorelCorpID_0Corel-Layer"/>
  <path class="fil0" d="M32.31 306.58l463.89 0.19c3.36,104.59 -0.55,219.34 0.94,325.99l30.3 0.59c0.32,11.85 0.2,24.38 0.29,36.3 -9.26,0.76 -24.12,0.33 -33.8,0.34 -162.23,0.18 -332.2,2.79 -493.69,-0.49 -0.5,-11.26 0.24,-24.73 0.56,-36.17l30.78 -0.62 0.72 -326.14zm225.09 -306.58c6.46,1.11 6.13,1.03 11.58,4.74 1.45,5.84 1.3,7.24 5.41,11.24 40.78,2.57 66.55,13.57 104.97,7.03 4.33,118.8 -27.06,46.43 -106.55,61.26l-0.43 44.24c29.67,16.96 248.47,140.32 255.33,150.66 -2.3,9.1 -6.09,9.66 -15.41,9.97 -38.67,1.31 -79.23,0.54 -117.83,0.32l-254.8 0.08c-41.58,0 -83.16,0.06 -124.74,0.26 -8.93,0.04 -13.57,-2.69 -14.93,-11.17 4.68,-7.61 220.34,-130.89 251.57,-149.17 0.7,-25.9 -6.83,-112.55 5.82,-129.48zm108.74 451.69c19.03,-1.52 43.63,-1.19 62.56,0.37 2.06,19.46 2.93,41.62 -0.98,60.79 -11,2.19 -31.08,2.51 -42.41,2.88 -29.76,0.98 -21.81,-43.52 -19.17,-64.04zm-126.72 -1.05c19.19,-0.02 38.39,0.34 57.57,1.07 0.73,18.5 5.06,49.79 -5.21,62.69 -20.52,0.29 -38.16,0.58 -58.6,-0.84 -0.81,-14.77 -6.37,-55.11 6.24,-62.92zm-100.05 0.06c5.36,-0.25 10.49,-0.06 15.84,0.06 19.35,11.17 12.16,44.99 5.21,62.06 -8.44,3.08 -22.06,2.06 -31.58,1.94 -9.67,0.18 -16.92,1.63 -24.18,-3.84 -9.21,-13.01 -4.75,-40.58 -4.3,-58.84 11.85,-0.97 26.89,-1.01 39.01,-1.39zm97.22 -101.38c13.99,0.04 43.11,-4.4 53.89,2.35 11.37,7.12 9.65,52.14 2.17,62.13 -18.21,-0.72 -43.01,4.2 -54.78,-4.33 -8.24,-10.8 -8.9,-50.67 -1.29,-60.15zm132.47 -0.21c13.75,0.12 43.6,-4.24 53.87,2.61 11.37,7.58 10.47,50.46 2.37,60.78 -35.21,0.95 -66.39,13.99 -61.15,-35.72 1.08,-10.28 -1.86,-18.47 4.91,-27.66zm-264.64 0.23c14.11,-0.14 42.39,-4.65 53.67,2.03 11.39,6.75 10.01,52.26 2.48,61.58 -37.04,0.38 -66.38,14.19 -61.06,-37.7 1,-9.75 -1.7,-17.34 4.91,-25.91zm101.69 199.64c12.6,-0.37 109.28,-5.45 121.62,6.28 4.08,3.88 2.41,40.94 2.03,49.39 -0.38,8.5 3.83,28.82 -4.7,34.21 -41.63,-0.18 -84.3,0.37 -125.8,-0.95 0.08,-21.57 -5.78,-74.99 6.85,-88.93z"/>
 </g>
</svg>
