<?xml version="1.0" encoding="UTF-8"?>
<!DOCTYPE svg PUBLIC "-//W3C//DTD SVG 1.1//EN" "http://www.w3.org/Graphics/SVG/1.1/DTD/svg11.dtd">
<!-- Creator: CorelDRAW (Оценочная версия) -->
<svg xmlns="http://www.w3.org/2000/svg" xml:space="preserve" width="83.452mm" height="77.4045mm" version="1.1" style="shape-rendering:geometricPrecision; text-rendering:geometricPrecision; image-rendering:optimizeQuality; fill-rule:evenodd; clip-rule:evenodd"
viewBox="0 0 23250.55 21565.65"
 xmlns:xlink="http://www.w3.org/1999/xlink"
 xmlns:xodm="http://www.corel.com/coreldraw/odm/2003">
 <defs>
  <style type="text/css">
   <![CDATA[
    .fil0 {fill:white}
   ]]>
  </style>
 </defs>
 <g id="Слой_x0020_2">
  <metadata id="CorelCorpID_0Corel-Layer"/>
  <path class="fil0" d="M7840.44 6155.86l206.9 -5.6c1518.56,-34.21 3156.43,16.8 4684.21,-0.22 672.29,-7.55 2648.8,-47.34 3175.07,62.72 495.28,101.36 951.7,340.93 1316.49,691.01 673.54,654.37 783.59,1389.26 789.05,2278.67l3.18 2213.33c1.17,1227.28 152.43,2449.79 -793.84,3365.86 -752.41,728.4 -1422.28,716.08 -2384.15,712.77l-1252.71 -4.96 -2935.24 2.9c-925.21,628.63 -1882.57,1481.31 -2830.09,2124.71 -46.17,-591.88 -21.09,-1495.74 -22.57,-2110.47 -1699.85,-208.34 -2510.97,-1415.73 -2417.41,-3047.27 53.58,-934.21 -29.06,-1963.5 2.34,-2906.29 14.96,-449.62 -30.28,-850.85 61.63,-1302.58 79.68,-406.16 256.24,-786.99 514.76,-1110.23 483.81,-601.94 1128.51,-883.17 1882.4,-964.32zm1008.73 3987.3c405.96,-120.42 832.21,112.75 949.95,519.52 117.74,406.69 -118.21,831.51 -525.65,946.49 -403.73,113.98 -823.77,-119.27 -940.39,-522.28 -116.63,-402.93 113.87,-824.49 516.1,-943.74zm5241.6 -2.76c265.15,-71.3 548.16,5.46 740.93,200.88 192.8,195.42 265.74,479.43 190.85,743.55 -74.83,264.21 -285.88,467.73 -552.59,532.95 -405.88,99.24 -816.02,-146.52 -919.97,-551.23 -103.87,-404.76 137.27,-817.72 540.78,-926.15zm-2590.93 1.76c265.65,-65.75 546.21,16.66 734.19,215.7 187.98,199.04 254.23,483.81 173.46,745.34 -80.8,261.56 -296.13,459.32 -563.57,517.68 -405.68,88.54 -807.19,-165.16 -901.3,-569.65 -94.14,-404.4 154.13,-809.39 557.22,-909.08zm-590.85 -10103.06c2050.71,-224.03 4546.1,536.41 6201.6,1733.71 2304.21,1666.56 3545.06,3765.55 4023.49,6528.36 447.89,48.84 845.14,156.02 1220.14,419.34 451.13,319.2 755.06,806.21 843.66,1351.73 65.03,390.44 75.2,3416.4 0,3825.98 -53.08,305.61 -176.03,594.94 -359.3,845.22 -379.86,515.76 -898.88,756.68 -1511.15,850.15 -226.82,1167.15 -605.06,2009.19 -1438.85,2886.7 -1280.38,1347.66 -3499.28,2143.93 -5333.62,2186.17 -447.17,837.64 -1072.7,921.45 -1941.38,895.28 -470.74,-14.15 -899.6,-153.04 -1218.14,-516.46 -233.81,-263.95 -346.03,-614.11 -309.01,-964.77 94.5,-887.48 898.27,-1195.68 1674.5,-1164.59 801.89,32.1 1233.21,-23.68 1730.86,724.13 2508.97,-228.29 5211.45,-1330.86 5690.38,-4093.86 -402.42,-192.19 -786.18,-447.45 -941.12,-888.88 -160.12,-456.28 -143.23,-4451.07 -78.37,-5061.37 23.15,-218.49 74.53,-395.24 167.92,-595.33 158.64,-254.68 308.87,-373.09 540.78,-547.86 -239.21,-1446.6 -630.77,-2483.56 -1503.49,-3695.34 -1305.59,-1826.43 -3285.81,-3056.71 -5501.68,-3417.9 -2162.96,-345.28 -4373.62,200.07 -6127.91,1511.6 -1836.4,1338.97 -3054.76,3362.24 -3379.34,5611.59 762.44,617.59 743.5,1074.99 735.11,1994.09 -6.35,692.12 14.43,1401.24 -1.87,2092.86 -12.82,539.81 45.36,1145.31 -8.92,1673.64 -163.93,1595.35 -2149.47,1711.75 -3187.24,969.09 -450.99,-322.38 -750.85,-814.88 -830.17,-1363.54 -148.16,-980.34 -3.01,-2782.48 17.47,-3818.4 19.31,-971.57 1143.19,-1588.19 2030.56,-1701.78 199.85,-1739.19 1072.87,-3571.3 2207.7,-4894.37 1652.49,-1965.17 4027,-3181.84 6587.37,-3375.19z"/>
 </g>
</svg>
