<?xml version="1.0" encoding="UTF-8"?>
<!DOCTYPE svg PUBLIC "-//W3C//DTD SVG 1.1//EN" "http://www.w3.org/Graphics/SVG/1.1/DTD/svg11.dtd">
<!-- Creator: CorelDRAW (Оценочная версия) -->
<svg xmlns="http://www.w3.org/2000/svg" xml:space="preserve" width="14.6756mm" height="16.6511mm" version="1.1" style="shape-rendering:geometricPrecision; text-rendering:geometricPrecision; image-rendering:optimizeQuality; fill-rule:evenodd; clip-rule:evenodd"
viewBox="0 0 14.96 16.97"
 xmlns:xlink="http://www.w3.org/1999/xlink"
 xmlns:xodm="http://www.corel.com/coreldraw/odm/2003">
 <defs>
  <style type="text/css">
   <![CDATA[
    .fil0 {fill:#007ABD}
    .fil1 {fill:#1DAEAE}
    .fil2 {fill:#F89D26}
   ]]>
  </style>
 </defs>
 <g id="Слой_x0020_3">
  <metadata id="CorelCorpID_0Corel-Layer"/>
  <path class="fil0" d="M5.75 16.97c1.21,-0.1 0.95,-0.33 2.01,-0.58 0,-1.59 0.24,-2.02 0.27,-3.77 0.07,-4.57 3.45,1.41 5.7,0.28 0.63,-0.32 0.74,-0.38 0.94,-1.11 -1.38,-0.32 -7.96,-6.03 -8.63,-0.28 -0.22,1.92 -0.29,3.24 -0.29,5.46z"/>
  <path class="fil1" d="M8.63 8.34c1.15,0 2.6,-0.97 3.44,-1.45 0.83,-0.48 2.37,-1.29 2.89,-2 -2.84,-0.66 -0.6,-1.71 -5.12,0.95 -0.96,0.56 -0.71,0.45 -1.79,0.2l0 -4.89c-0.75,-0.5 -1.19,-0.72 -2.01,-1.15 0,2.3 -0.48,6.3 0.64,7.41 0.3,0.3 1.46,0.93 1.95,0.93z"/>
  <path class="fil2" d="M-0 5.75c4.24,2.24 5.42,2.81 2.21,4.51 -0.93,0.49 -1.37,0.81 -2.21,1.25l0 2.3c4.69,-2.48 6.04,-2.84 6.04,-5.75 0,-1.73 -4.11,-3.31 -6.04,-4.6l0 2.3z"/>
 </g>
</svg>
