<?xml version="1.0" encoding="UTF-8"?>
<!DOCTYPE svg PUBLIC "-//W3C//DTD SVG 1.1//EN" "http://www.w3.org/Graphics/SVG/1.1/DTD/svg11.dtd">
<!-- Creator: CorelDRAW (Оценочная версия) -->
<svg xmlns="http://www.w3.org/2000/svg" xml:space="preserve" width="65.7454mm" height="50.0001mm" version="1.1" style="shape-rendering:geometricPrecision; text-rendering:geometricPrecision; image-rendering:optimizeQuality; fill-rule:evenodd; clip-rule:evenodd"
viewBox="0 0 254.39 193.46"
 xmlns:xlink="http://www.w3.org/1999/xlink"
 xmlns:xodm="http://www.corel.com/coreldraw/odm/2003">
 <defs>
  <style type="text/css">
   <![CDATA[
    .fil0 {fill:white}
   ]]>
  </style>
 </defs>
 <g id="Слой_x0020_3">
  <metadata id="CorelCorpID_0Corel-Layer"/>
  <path class="fil0" d="M141.14 64.9c1,-0.23 1.53,-3.46 0.7,-4.01 -1.35,0.05 -0.53,-0.35 -2.3,-0.45 -0.35,0.51 -0.43,0.81 -1.07,0.4 0.96,0.71 0.88,-0.26 1.02,-0.57 -4.05,0.06 -8.16,-0.04 -12.23,-0.02 -4.18,0.02 -10.19,-1.28 -8.65,3.6 0.54,1.72 2.92,1.35 4.98,1.35 4.45,-0 14.28,0.29 17.56,-0.3zm20.89 0.1c2.63,1.36 2.93,0.84 6.68,0.87 2.59,0.02 5.17,0.02 7.76,0.01 8.04,-0.04 11.84,1.29 11.5,-4.25 -1.43,-2.64 -3.15,-2.19 -6.39,-2.18 -4.64,0.01 -14.06,-0.22 -17.98,-0.02 -4.14,0.21 -1.98,4.58 -1.57,5.56zm-42.53 -22.57c-0.87,0.7 -1.79,1.28 -1.8,2.86 -0.01,1.41 0.94,2.62 2.02,3.04 1.19,0.46 27.33,0.24 29.8,0.24 6.67,-0.02 13.34,0.01 20.01,-0.01l14.91 0.02c1.91,-0.01 2.3,-0.4 3.3,-1.64 0.95,-3.43 -0.83,-4.78 -4.12,-4.74l-54.93 -0.01c-2.68,-0 -6.83,-0.29 -9.19,0.24zm-80.41 52.28c0.71,3.06 4.02,2.47 7.3,2.48l48.19 -0.01c3.2,-0.01 6.4,0.02 9.6,0 1.82,-0.01 6.41,0.39 5.63,-3.86 -0.58,-3.15 -4.51,-2.52 -7.27,-2.52l-57.79 0.01c-1.65,0 -3.05,-0.27 -4.34,0.58 -1,0.66 -1.71,1.69 -1.33,3.32zm0.01 17.97c0.6,2.98 4.17,2.49 7.29,2.48l57.79 -0.02c1.53,0 3.24,0.2 4.35,-0.57 1,-0.69 1.52,-2.01 1.17,-3.49 -0.72,-3.06 -4.27,-2.41 -7.36,-2.41 -19.22,0.03 -38.6,-0.13 -57.79,0.01 -1.97,0.02 -6.3,-0.24 -5.45,4zm81.04 -87.62c-2.9,0.87 -3.26,4.23 -1.07,5.77 1.47,1.03 6.7,0.6 8.99,0.6 4.13,-0 56.11,0.22 57.53,-0.09 2.9,-0.64 3.17,-4.3 0.92,-5.9 -1.38,-0.98 -6.99,-0.52 -9.03,-0.53 -5.97,-0.03 -55.92,-0.27 -57.34,0.15zm89.48 96.53c0.36,-0.36 -0.23,-0.24 0.54,-0.18 0.65,0.05 0.18,-0.03 0.61,0.24 -1.03,1.35 -2.4,0.32 -2.33,5.73 0.04,2.74 -0.46,10.74 0.38,13.09l0.12 0.32c0.28,0.56 0.75,0.84 1.07,1.05 0.49,0.32 -0,0.1 0.68,0.37 1.16,0.45 13.41,0.18 14.98,0.23 2.66,0.08 4.26,-0.88 4.63,-3.81 0.2,-1.53 0.01,-9.41 0.02,-12.07 0.01,-1.74 -0.27,-2.35 -0.37,-3.66 -0.09,-1.08 -2.16,-2.11 -3.47,-2.19 -1.86,-0.1 -4.03,-0.01 -5.92,-0.01 -1.97,0 -3.95,-0 -5.92,0 -3,0 -2.8,-0.21 -5.02,0.88zm-70.46 2.09c0.5,1.97 0.3,6.63 0.22,9.01 -0.05,1.58 0.1,3.12 0.04,4.7 -0.08,2.23 0.05,4.1 2.22,4.88 1.08,0.39 15.56,0.15 16.74,0.09 0.96,-1.46 -0.08,-0.23 1.06,-0.72l0.77 -0.71c0.03,-0.03 0.07,-0.08 0.1,-0.11l0.71 -1.04c0.91,-1.19 -0.04,-13.97 0.25,-16.02 -0.06,-0.87 -0.5,-1.38 -1.37,-2.07 -0.67,-0.53 -1.45,-0.86 -2.43,-0.95 -2.12,-0.18 -4.94,-0.02 -7.13,-0.02 -2.76,0 -11.22,-0.99 -11.17,2.97zm33.91 3.49l-0.05 8.58c0,3.01 -0.27,4.79 1.72,6.41 1.9,1.54 5.69,0.97 8.86,0.98 13.75,0.02 12.67,1.11 12.65,-14.12 -0.01,-6.12 0.12,-8.32 -7.13,-8.31l-11.23 0.01c-1.66,-0 -2.99,0.65 -3.86,1.8 -1.12,1.48 -0.92,2.46 -0.96,4.67zm-30.56 26.03c-3.91,0.83 -3.88,3.44 -3.87,7.46 0.01,2.49 -0.32,9.38 0.12,11.36 0.92,4.14 5.14,3.56 7.88,3.55 2.63,-0.01 9.2,0.31 11.36,-0.09 4.32,-0.79 3.69,-5.17 3.69,-7.47 -0,-2.61 0.34,-9.21 -0.07,-11.37 -0.25,-1.31 -1.43,-2.52 -2.56,-3.11 -1.57,-0.81 -15.34,-0.6 -16.56,-0.34zm69.07 0.03c-3.99,0.78 -3.88,3.62 -3.86,7.43 0.04,12.46 -1.8,14.91 7.95,14.91 2.57,-0 9.28,0.31 11.37,-0.07 1.6,-0.29 2.64,-1.2 3.24,-2.29 0.86,-1.54 0.58,-3.37 0.58,-5.19 0,-2.34 0.32,-9.6 -0.1,-11.39 -1.01,-4.32 -5.61,-3.53 -7.94,-3.52 -2.75,0.01 -8.97,-0.31 -11.23,0.13zm-35.06 0.05c-3.88,1.03 -3.46,4.16 -3.47,7.99 -0.03,13.29 -1.3,14.23 8.51,14.29 2.14,0.01 9.76,0.25 11.3,-0.16 3.64,-0.97 3.4,-4.22 3.39,-8 -0,-2.14 0.24,-9.79 -0.24,-11.22 -1.29,-3.78 -5.29,-3.09 -8.32,-3.1 -2.31,-0 -9.48,-0.26 -11.17,0.2zm-69.08 -130.61c-1.33,-0.63 -2.35,-2.09 -5.38,-2.55 -2.42,-0.37 -52.94,-0.14 -55.26,-0.08 -3.11,0.8 -5.37,1.32 -7.27,4.72 -1.63,2.92 -1.2,7.47 -1.17,11.35 0.05,8.23 0.01,16.47 0.01,24.71 0,6.75 -1.61,15.53 7.06,17.74 2.32,0.59 20.72,0.27 24.64,0.28 8.23,0.02 16.47,-0 24.71,0.01 4.2,0.01 7.58,0.48 10.83,-1.46 2.42,-1.45 4.39,-4.11 4.42,-7.98l-0.01 -37.17c0.01,-3.3 0.2,-5.99 -2.06,-8.7 -0.37,-0.44 -0.52,-0.44 -0.51,-0.85zm-61.93 4.92c0.29,-0.11 0.85,-0.51 0.98,-0.62 0.28,-0.58 -0.72,-0.47 0.58,-0.47l-0.14 -0.22c8.67,-0.25 17.57,-0.04 26.2,-0.04 8.78,-0 17.56,-0.02 26.34,0 1.15,0 2.06,-0.22 2.75,0.38 0.92,0.81 1.16,0.71 1.44,1.72 0.37,1.35 0.22,17.43 0.18,19.39 -0.03,1.48 0.14,22.54 -0.15,23.22 -0.01,0.02 -0.03,0.06 -0.04,0.08 -0.01,0.02 -0.05,0.06 -0.06,0.08l-0.48 0.44c-2.07,1.82 -2.73,1.34 -6.28,1.36 -2.18,0.01 -4.36,0.01 -6.53,0.01l-39.41 -0c-1.07,0.01 -2.22,0.04 -3.28,0.01 -1.15,-0.03 -1.47,-0.49 -2.11,-1.03 -1.39,-1.19 -0.94,-3.08 -0.94,-5.37l0.14 -37.95c0.02,-0.06 0.04,-0.11 0.06,-0.16l0.35 -0.52c0.45,-0.46 -0.33,0.01 0.41,-0.31zm-23.93 -12.14l0.01 9.84c-0.05,1.86 -0.89,1.16 -5.22,1.16 -1.94,-0 -3.14,0.26 -4.9,0.42 -3.98,1.33 -6.75,3.15 -8.88,6.47 -2.66,4.14 -2.52,7.16 -2.55,12.97 -0.05,10.33 -0.04,20.7 -0,31.04 0.03,10.33 -0.12,20.71 -0.01,31.04 0.05,5.17 0,10.35 0.02,15.52 0.01,5.13 -0.01,9.33 2.38,13.35 1.98,3.32 4.4,5.91 7.84,7.65 4.4,2.23 7.51,2.37 13.25,2.37 10.41,-0.01 20.83,-0.04 31.24,-0.01l58.2 0c0.98,0 3.18,-0.31 3.77,0.24 0.44,0.56 0.17,22.05 0.17,24.79 -0,7.25 1.84,12.92 8.05,17.22 6.84,4.73 11.75,3.81 21.28,3.81l75.55 0.01c8.01,-0.02 16.54,0.98 22.51,-2.61 5.27,-3.17 7.92,-6.62 9.5,-12.56 0.15,-0.57 0.37,-2.55 0.43,-2.69 0.24,-4.98 0.12,-10.61 0.06,-15.63 -0.17,-15.52 0.06,-31.38 -0.01,-46.96 -0.02,-5.17 -0.02,-10.35 0.01,-15.52 0.03,-5.4 -0.64,-8.98 -3.15,-12.6 -2.13,-3.06 -5.09,-5.53 -8.75,-6.96 -4.74,-1.85 -8.78,-1.32 -14.3,-1.44 -0.31,-4.08 0.48,-6.1 -1.66,-9.17 -4.51,-6.45 -15.08,-3.75 -15.89,4.06 -0.57,5.5 2.05,5.8 -5.35,5.33 -0.56,-1.68 -0.14,-26.3 -0.15,-30.26 -0.01,-5.47 0.28,-26.96 -0.11,-30.47 -0.87,-7.92 -6.86,-14.75 -15,-15.62 -4.29,-0.46 -10.78,-0.08 -15.31,-0.09 -25.43,-0.05 -50.97,0.16 -76.37,-0.01l-45.94 0.02c-5.08,0.02 -10.48,-0.18 -15.52,0.06 -4.52,0.62 -7.73,2.37 -10.21,4.88 -2.13,2.15 -5.11,6.46 -5,10.38zm13.79 -7.87c1.25,-1.1 12.42,-0.72 14.07,-0.7 4.83,0.05 9.67,0.01 14.5,0.01l116.6 0c4.98,-0.02 9.38,-0.59 12.94,1.75 2.95,1.93 4.75,5.06 4.74,9.69 -0.02,9.73 -0.03,19.47 -0.01,29.2 0.02,9.57 0.21,19.39 -0,28.93 -2.04,0.54 -15.57,0.16 -18.7,0.13 -6.15,-0.06 -12.78,0.3 -18.86,-0.03 -0.04,-2.87 0.27,-4.72 -0.82,-7.12 -1.36,-3.01 -3.11,-3.42 -3.8,-4.23 -0.65,-0.01 -5.73,-2.48 -10.02,1.28 -3.08,2.71 -2.75,5.02 -2.92,9.95 -2.84,0.69 -7.72,-0.39 -10.94,0.46 -3.68,0.98 -4.96,1.36 -7.87,3.39 -4.69,3.27 -7.45,9.12 -7.45,15.22 -0,4.87 0.31,43.92 -0.17,44.94l-69.05 0.17c-4.26,-0 -20.17,0.22 -23.02,-0.04 0.13,-0.55 1.7,-2.96 2.66,-6.47 0.67,-2.47 1.02,-5.05 1.05,-7.98 0.06,-5.98 0,-11.99 -0,-17.97l-0 -89.85c0.01,-3.08 0.43,-4.86 1.89,-7.01 0.84,-1.24 3.36,-3.8 5.19,-3.74zm115.73 63.43c1.97,-0.76 3.03,1.03 3.04,2.85l-0 12.47c0.01,2.11 0.28,3.96 -1.38,4.69 -4.24,1.88 -3.1,-6.53 -3.11,-8.98 -0,-2.11 -0.01,-4.22 -0.01,-6.33 0,-2 -0.37,-3.99 1.46,-4.7zm67.32 -0.74c2.37,-0.85 3.09,0.96 3.09,2.98l-0.01 12.67c-0.01,1.96 0.38,4.3 -1.26,5.02 -2.32,1.01 -3.21,-1.1 -3.21,-2.98l0.01 -12.66c-0,-1.9 -0.44,-4.37 1.38,-5.03zm-86.25 13.2c1.52,-1.24 10.51,-0.69 10.97,-0.56 0.3,1.44 0.04,5.65 0.14,7.51 -0.24,3.94 5.71,9.08 11.92,6.69 7.79,-2.99 4.36,-12.76 5.57,-14 0.6,-0.61 32.09,-0.2 37.33,-0.23 2.75,-0.02 10.09,-0.34 12.32,0.11 0.41,3.64 -0.68,7.57 1.29,10.55 3.88,5.85 12.25,5.04 15.07,-0.15 1.89,-3.47 0.91,-6.3 1.24,-10.41 1.51,-0.36 8.56,-0.21 10.01,0.15 2.6,0.63 4.75,1.82 6.48,3.73 1.55,1.7 3.02,4.24 3.24,7.22 0.15,2.1 0.23,8.25 -0.05,10.21l-124.31 -0.03c-0.47,-3.06 -0.28,-11.08 0.96,-13.89 1.24,-2.82 4.38,-6.21 7.81,-6.9zm-125.35 -40.84c0.02,-8.92 7.04,-10.33 14.59,-9.66l0.06 79.7c0.01,6.09 0.53,16.37 -1.17,21.29 -0.69,1.99 -2.64,5.96 -4.54,5.96 -3.66,-0 -8.93,-5.65 -8.93,-11.93l0 -85.35zm116.85 133.53c-0.27,-0.23 -0.24,0.04 -0.39,-0.64l-0.07 -3.02c-0.04,-10.11 -0.18,-61.09 0.15,-61.89 1.32,-0.38 27.23,-0.08 31.04,-0.11 10.41,-0.08 20.83,0.03 31.24,-0.03l46.56 0.03c2.65,0.02 14.09,-0.35 15.71,0.15 0.21,1.25 0.05,13.36 0.08,15.9 0.07,5.36 -0.1,10.77 -0.03,16.13 0.07,5.36 -0.02,10.76 0,16.13l-0.33 15.93c0.26,2.28 -1.25,5.31 -2.29,6.61 -5.7,7.09 -12.73,5.54 -22.13,5.54l-73.51 -0.01c-4.63,-0 -14.02,0.54 -17.65,-0.8 -2.42,-0.9 -3.91,-2.03 -5.46,-3.74 -1.13,-1.25 -3.04,-4.13 -2.92,-6.17z"/>
 </g>
</svg>
