<?xml version="1.0" encoding="UTF-8"?>
<!DOCTYPE svg PUBLIC "-//W3C//DTD SVG 1.1//EN" "http://www.w3.org/Graphics/SVG/1.1/DTD/svg11.dtd">
<!-- Creator: CorelDRAW (Оценочная версия) -->
<svg xmlns="http://www.w3.org/2000/svg" xml:space="preserve" width="62.6902mm" height="52.3874mm" version="1.1" style="shape-rendering:geometricPrecision; text-rendering:geometricPrecision; image-rendering:optimizeQuality; fill-rule:evenodd; clip-rule:evenodd"
viewBox="0 0 739.13 617.66"
 xmlns:xlink="http://www.w3.org/1999/xlink"
 xmlns:xodm="http://www.corel.com/coreldraw/odm/2003">
 <defs>
  <style type="text/css">
   <![CDATA[
    .fil0 {fill:white;fill-rule:nonzero}
   ]]>
  </style>
 </defs>
 <g id="Слой_x0020_2">
  <metadata id="CorelCorpID_0Corel-Layer"/>
  <path class="fil0" d="M184.36 366.14c89.34,-9.01 126.18,37.21 208.76,57.33 35.78,10.88 78.52,6.37 112.15,20.78 11.07,4.75 19.31,35.63 9.39,42.4 -53.65,36.68 -157.22,-9.63 -213.84,-6.58 -6.15,3.57 -4.18,1.05 -6.36,7.63 28.45,15.51 104.85,22.81 137.91,27.12 43.11,5.63 91.87,7.38 105.47,-43.14 -1.87,-10.94 -3.59,-16.01 -7.05,-26.46 41.55,-23.07 82.29,-44.99 124.5,-66.79 40.4,-20.89 111.02,-6.74 72.93,41.77 -75.02,63.7 -212.28,172.84 -312.01,195.53 -61.27,13.95 -191.07,-53.4 -258.7,-47.44 -37.43,3.3 -80.92,32.72 -118.57,39.6 -16.28,-7.12 -45.11,-131.49 -37.75,-148.42 17.81,-13.06 39.27,-18.46 56.74,-29.2 44.8,-27.58 72.9,-54.26 126.43,-64.15zm225.91 -318.79c5.08,-5.29 10.32,-10.43 15.69,-15.44 24.71,-22.19 57.24,-33.6 90.4,-31.7 34.38,1.58 66.66,16.97 89.56,42.7 7.83,8.98 15.38,20.32 20,31.34 43.05,102.79 -53.81,178.45 -122.63,236.49 -25.7,21.61 -60.64,57.16 -90.65,72.77 -5.58,1.93 -17.91,-5.88 -21.84,-9.3 -59.8,-55.32 -154.32,-116.87 -194.06,-189.07 -42.52,-77.31 9.14,-171.17 94.96,-183.91 52.84,-4.69 81.95,9.37 118.57,46.12z"/>
 </g>
</svg>
