<?xml version="1.0" encoding="UTF-8"?>
<!DOCTYPE svg PUBLIC "-//W3C//DTD SVG 1.1//EN" "http://www.w3.org/Graphics/SVG/1.1/DTD/svg11.dtd">
<!-- Creator: CorelDRAW (Оценочная версия) -->
<svg xmlns="http://www.w3.org/2000/svg" xml:space="preserve" width="61.2786mm" height="50mm" version="1.1" style="shape-rendering:geometricPrecision; text-rendering:geometricPrecision; image-rendering:optimizeQuality; fill-rule:evenodd; clip-rule:evenodd"
viewBox="0 0 365.49 298.22"
 xmlns:xlink="http://www.w3.org/1999/xlink"
 xmlns:xodm="http://www.corel.com/coreldraw/odm/2003">
 <defs>
  <style type="text/css">
   <![CDATA[
    .fil0 {fill:white}
   ]]>
  </style>
 </defs>
 <g id="Слой_x0020_2">
  <metadata id="CorelCorpID_0Corel-Layer"/>
  <path class="fil0" d="M240.47 49.26c0.01,-16.83 3.28,-37.86 -8.21,-45.35 -9.17,-5.98 -36.95,-3.3 -50.13,-3.37 -62.54,-0.32 -61.08,-3.9 -61.11,46.32 -0.01,12.84 -2.34,41.24 3.29,50.6 7.5,12.49 28.3,8.1 45.69,8.65l-0.1 29.57c-30.31,-0.06 -60.68,-0.04 -90.99,0.07 -15.51,0.06 -27.2,0.27 -29.87,15.63 -2.21,12.7 1.39,33.39 -0.94,44.7 -17.59,1.22 -35.69,-4.26 -44.55,9.48 -5.25,8.13 -3.14,38.52 -3.08,50.15 0.25,47.36 4.56,41.95 64.03,41.99 13.35,0.01 38.99,2.66 48.26,-4.54 11.18,-8.69 8.13,-27.51 8.07,-44.65 -0.05,-14.39 2.66,-38.94 -5.75,-47 -8.56,-8.21 -32.29,-4.74 -46.88,-5.57 0.03,-10.36 -2.13,-35.07 0.92,-42.63 6.62,-1.98 143.08,-0.83 169.42,-0.69 9.58,0.05 19.23,0.07 28.81,0.03 4.53,-0.02 22.98,-1.74 26,1.45 2.54,2.69 1.36,35.49 1.12,41.26 -16.47,2.58 -36.53,-4.13 -46.42,7.43 -7.38,8.61 -4.68,34.96 -4.71,48.11 -0.1,48.13 1.05,47.83 60.02,46.92 12.6,-0.19 41.56,2.33 50.68,-3.44 13.88,-8.79 10.9,-23.48 10.83,-42.28 -0.05,-14.25 3.31,-39.59 -5.14,-49.18 -8.87,-10.06 -30.13,-6.73 -45.76,-7.04 -2.3,-41.29 10.93,-60.47 -32.22,-60.36 -30.7,0.07 -61.71,-0.25 -92.53,0.21l0.27 -29.76c58.49,0.99 50.94,-0.68 50.99,-56.71zm-100.91 -24.01l0.87 60.76c0.11,0.29 0.39,0.67 0.49,0.89 1.73,3.73 41.12,1.85 49.6,1.91 38.87,0.26 31.73,7.84 31.73,-43.15 0,-33.98 6.74,-27.33 -36.53,-27.38l-39.61 -0.08c-6.35,0.01 -6.59,0.52 -6.56,7.05zm-38.12 189.97c-3.22,-3.59 -6.58,-2.3 -12.91,-2.17 -82.12,1.72 -70.98,-11.84 -70.88,34.25 0.09,39.59 -12.78,33.09 56.46,33.31 8.89,0.03 23.96,1.6 27.36,-2.46 2.96,-3.6 2.89,-59.58 -0.03,-62.93zm159.51 -0.86c-1.45,10.39 -0.6,27.39 -0.63,38.95 -0.05,22.39 -2.66,27.09 10.53,27.39 12.6,0.28 25.84,-0.02 38.5,-0.1 8.73,-0.06 29.86,2.51 35.94,-2.08 2.5,-4.44 2.5,-58.88 0.5,-64 -1.51,-2.07 -5.2,-1.94 -9.98,-1.89 -15.86,0.16 -67.06,-1.37 -74.87,1.74z"/>
 </g>
</svg>
