<?xml version="1.0" encoding="UTF-8"?>
<!DOCTYPE svg PUBLIC "-//W3C//DTD SVG 1.1//EN" "http://www.w3.org/Graphics/SVG/1.1/DTD/svg11.dtd">
<!-- Creator: CorelDRAW (Оценочная версия) -->
<svg xmlns="http://www.w3.org/2000/svg" xml:space="preserve" width="188.664mm" height="165.42mm" version="1.1" style="shape-rendering:geometricPrecision; text-rendering:geometricPrecision; image-rendering:optimizeQuality; fill-rule:evenodd; clip-rule:evenodd"
viewBox="0 0 3620.72 3174.64"
 xmlns:xlink="http://www.w3.org/1999/xlink"
 xmlns:xodm="http://www.corel.com/coreldraw/odm/2003">
 <defs>
  <style type="text/css">
   <![CDATA[
    .str0 {stroke:white;stroke-width:3.25;stroke-miterlimit:22.9256}
    .fil0 {fill:#373535}
   ]]>
  </style>
 </defs>
 <g id="Слой_x0020_3">
  <metadata id="CorelCorpID_0Corel-Layer"/>
  <path class="fil0 str0" d="M1136.42 3018.91c-3.72,-80.3 41.78,-78.98 106.09,-78.81 62.05,0.16 124.11,-0.11 186.16,0.05 125.24,0.32 250.53,0.07 375.77,-0.04 125.21,-0.11 250.59,0.8 375.77,0.12 83.33,-0.45 304.43,-37.84 289.62,80.05l-1333.42 -1.37zm1472.52 -1086.37l808.43 0.72c-7.73,37.39 -125.98,109.41 -162.86,124.23 -158.49,63.67 -327.63,66.35 -485.73,-0.86 -33.25,-14.13 -158.87,-89.55 -159.84,-124.09zm-2407.69 -0.17l812.27 0.91c-12.75,39.78 -124.48,106.45 -163.97,123.26 -153.63,65.39 -334.29,66.25 -488.09,0.32 -33.84,-14.5 -154.1,-89.89 -160.2,-124.49zm2858.27 -132.4c-8.75,-166.09 1.17,-396.42 -1.21,-577.07 -1.31,-99.98 59.05,44.84 65.9,58.76 42.56,86.41 83.23,174.05 125.16,260.79 30.47,63.01 104.29,199.09 121.08,259.23l-310.94 -1.7zm-403.58 0.53c20.28,-64 90.17,-193.69 123.42,-258.75 42.71,-83.57 85.73,-175.42 125.57,-260.77 7.77,-16.64 68.13,-159.92 65.52,-54.58 -3.82,154.02 9.71,467.7 -2.21,575.22l-312.3 -1.11zm-2001.58 -2.24c-11.08,-30.33 -1.96,-476.89 -4.39,-575.34 -2.53,-102.56 60.19,43.09 67.24,58.39 40.16,87.16 86.38,173.42 125.68,260.56 26.02,57.68 109.26,210.01 120.18,259.59l-308.71 -3.21zm-96.32 -0.26c-16.18,8.56 -196.67,3.66 -229.58,3.47 -112.53,-0.66 -75.91,-7.71 -31.21,-104.9 68.31,-148.53 152.86,-316.74 225.69,-468.4 55.62,-115.82 38.73,80.91 38.58,113.76 -0.24,54.77 7,438.07 -3.48,456.07zm2424.3 -688.81c-19.94,-19.57 -17.3,-32.6 -17.43,-61.78 -0.13,-30.96 -6.84,-38.96 14.64,-59.17 12.48,1.34 16.68,6.45 33.39,6.66 16.38,0.2 20.85,-4.43 33.74,-4.63 15.32,20.71 9.82,31.24 9.84,57.14 0.04,80.92 -3.87,58.88 -40.21,56.58 -16.23,-1.03 -19.6,3.82 -33.97,5.21zm-2406.67 2.51c-23.74,-24.42 -25.74,-94.77 -6.88,-121.67 13.82,-0.68 21.46,4.03 37.28,4.01 15.64,-0.02 23.24,-5.63 35.07,-2.28 11.12,21.89 7.15,30.58 7.16,55.65 0.01,98.11 1.85,40.23 -72.63,64.29zm1205.11 -1108.6c-0.08,0.89 -25.18,29.91 -29.38,39.93 -19.04,45.37 -49.57,99.98 -70.74,149.58 -47.08,110.29 -8.92,135.35 42.8,215.19l-30.15 54.34c-667.66,-7.38 -757.93,221.11 -1182.04,220.28 -58.5,-0.12 -159.34,-8.46 -144.74,86.12 12.36,80.04 114.51,61.78 171.43,63.06 8.5,116.63 -12.55,55.78 -51.64,123.07 -17.26,29.72 -27.87,112.8 -16.02,144.92 15.01,40.71 -74.45,187.58 -96.75,233.31 -73.61,150.97 -144.83,322.24 -222.35,468 -100.34,2.81 -187.25,-13.8 -132.74,128.75 23.63,61.8 71.16,123.42 120.21,167.39 233.07,208.9 631.03,221.35 871.31,51.54 78.81,-55.7 273.51,-247.02 168.19,-341.66l-115.08 -6.01c-19.14,-29.4 -177.88,-372.87 -211.09,-441.04 -35.49,-72.87 -70.26,-149.36 -107.65,-220.77 -37,-70.65 62.12,-124.48 -80.7,-237.27l0.57 -70.31c167.43,-22.97 275.94,-78.13 429.17,-119.66 164.7,-44.64 301.74,-75.44 474.68,-71.25 9.76,136.46 -25.34,179.49 138.26,187.16 8.9,99.08 -5.84,1061.78 -24.81,1106.58l-17.67 397.26c-20.7,23.37 -54.07,17.96 -69.52,69.83 -14.75,49.5 7.58,68.63 22.88,105.02 -241.26,119.75 -319.61,275.9 -351.06,287.65 -48.38,18.06 -108.71,-14.25 -187.56,25.77 -48.78,24.76 -83.68,59.34 -100.71,112.33 -9.47,29.46 -13.29,172.37 -4.98,199.82 16.35,54.01 127.63,37.79 174.78,37.96 71.05,0.26 142.25,0.02 213.31,-0.14 284.31,-0.64 568.78,-0.55 853.1,-0.2 62.58,0.08 378.25,14.46 409.23,-16.93 23.74,-24.05 19.4,-158.19 13.79,-193.18 -9.43,-58.82 -38.9,-88.18 -81.12,-125.68 -121.32,-49.62 -98.54,-26.72 -219.33,-37.32 -19.58,-6.9 -141.74,-202.93 -346.5,-289.81 11.05,-37.06 43.06,-48.67 22.1,-106.64 -16.59,-45.89 -38.52,-44.21 -70.87,-67.28 -2.85,-244.22 -25.71,-497.57 -33.22,-743.83 -3.91,-127.93 -20.16,-671.27 -5.54,-761.28 155.31,-2.06 132.47,-57.66 135.08,-187.62 154,-8.35 333.1,28.89 480.67,72.42 68.69,20.26 136.44,47.7 205.45,68.99 81.89,25.27 142.42,33.46 224.68,49.18 0.8,125.16 -9.62,46.83 -54.66,121.42 -18.32,30.34 -25.98,116.23 -15.72,149.54 12.71,41.3 -74.68,189.06 -97.76,234.6 -70.31,138.7 -148.05,340.6 -224.35,465 -115.32,2.54 -184.89,-11.18 -128.38,136.48 24.86,64.96 79.73,127.6 131.86,172.56 122.45,105.61 293.51,156.59 453.42,155.55 161.98,-1.06 329,-49.01 454.61,-154.52 53.16,-44.65 106.21,-108.16 131.84,-173.13 67.23,-170.45 -51.68,-121.35 -130.18,-138.43l-146.31 -313.42c-10.65,-10 -122.15,-249.42 -139.25,-284.4 -51.04,-104.4 -31.77,-50.76 -34.74,-161.37 -2.59,-96.54 -17.41,-81.57 -73.8,-137.51l-0.41 -71.21c56.15,-2.25 163.4,16.6 170.93,-66.02 8.42,-92.44 -89.01,-83.39 -147.93,-83.42 -367.07,-0.19 -500.78,-176.05 -952.59,-216.11 -74.38,-6.59 -162.03,3.34 -228.66,-5.1l-28.33 -53.6c24.4,-58.04 101.75,-73.99 30.73,-232.77 -26.62,-59.52 -57.34,-188.43 -138.02,-171.71z"/>
 </g>
</svg>
