<?xml version="1.0" encoding="UTF-8"?>
<!DOCTYPE svg PUBLIC "-//W3C//DTD SVG 1.1//EN" "http://www.w3.org/Graphics/SVG/1.1/DTD/svg11.dtd">
<!-- Creator: CorelDRAW (Оценочная версия) -->
<svg xmlns="http://www.w3.org/2000/svg" xml:space="preserve" width="49.1389mm" height="50.0001mm" version="1.1" style="shape-rendering:geometricPrecision; text-rendering:geometricPrecision; image-rendering:optimizeQuality; fill-rule:evenodd; clip-rule:evenodd"
viewBox="0 0 229.84 233.87"
 xmlns:xlink="http://www.w3.org/1999/xlink"
 xmlns:xodm="http://www.corel.com/coreldraw/odm/2003">
 <defs>
  <style type="text/css">
   <![CDATA[
    .fil0 {fill:white}
   ]]>
  </style>
 </defs>
 <g id="Слой_x0020_2">
  <metadata id="CorelCorpID_0Corel-Layer"/>
  <path class="fil0" d="M120.62 114.31c11.06,5.89 25.62,16.36 36.9,23.14 3.97,2.39 10.23,5.44 6.99,12.72 -3.83,8.62 -16.6,-2.36 -26.33,-8.67 -8.52,-5.53 -16.61,-10.4 -25.4,-15.44 -5.75,-3.3 -6.66,-5.15 -6.6,-12.86 0.08,-10.09 -0.67,-57.29 0.85,-60.35 2.45,-4.92 10.67,-4.4 12.83,0.68 1.6,3.77 0.54,53.78 0.75,60.79zm-16 -100.9c17.69,-1.49 29.72,-0.09 44.98,5.3 23.35,8.25 43.3,26.38 55.41,48.3 25.03,45.29 11.86,102.44 -25.2,131.75 -4.91,3.88 -8.86,7.16 -14.92,10.61 -10.7,6.1 -24.3,11.04 -38.32,12.47 -16.57,1.69 -32.18,-0.82 -45.51,-6.24 -11.81,-4.8 -24.51,-12.49 -32.36,-19.49l-12.94 -13.39c-3.83,-5.03 -6.74,-8.96 -10.22,-15.28 -36.76,-66.72 8.53,-148.08 79.08,-154.02zm0.69 -12.8c-63.81,6.6 -110.4,60.75 -104.86,125.48 4.99,58.35 59.17,112.57 124.08,107.44 60.51,-4.78 110.29,-58.61 104.92,-126.34 -4.83,-60.92 -57.43,-113.48 -124.13,-106.59z"/>
 </g>
</svg>
