<?xml version="1.0" encoding="UTF-8"?>
<!DOCTYPE svg PUBLIC "-//W3C//DTD SVG 1.1//EN" "http://www.w3.org/Graphics/SVG/1.1/DTD/svg11.dtd">
<!-- Creator: CorelDRAW (Оценочная версия) -->
<svg xmlns="http://www.w3.org/2000/svg" xml:space="preserve" width="45.3962mm" height="60.5662mm" version="1.1" style="shape-rendering:geometricPrecision; text-rendering:geometricPrecision; image-rendering:optimizeQuality; fill-rule:evenodd; clip-rule:evenodd"
viewBox="0 0 293.55 391.65"
 xmlns:xlink="http://www.w3.org/1999/xlink"
 xmlns:xodm="http://www.corel.com/coreldraw/odm/2003">
 <defs>
  <style type="text/css">
   <![CDATA[
    .fil0 {fill:white}
   ]]>
  </style>
 </defs>
 <g id="Слой_x0020_2">
  <metadata id="CorelCorpID_0Corel-Layer"/>
  <path class="fil0" d="M144.8 0c22.01,0.83 32.83,11.2 36.12,32.8 9.38,-0.45 24.76,-2.35 32.62,2.12 9.59,6.76 10.55,36.21 3.08,43.3 -6.72,6.38 -28.89,3.24 -38.72,3.75 -6.55,0.34 -17.96,-0.14 -25.36,-0.2 -19.93,-0.08 -39.96,0.28 -59.87,0.39 -14.83,0.08 -19.71,-5.04 -20.15,-19.97 -1.02,-35.01 13.79,-29.84 40.02,-29.94 5.35,-19.9 10.86,-29.06 32.28,-32.24zm2.03 19.88c7.07,0 12.8,5.73 12.8,12.8 0,7.07 -5.73,12.8 -12.8,12.8 -7.07,0 -12.8,-5.73 -12.8,-12.8 0,-7.07 5.73,-12.8 12.8,-12.8zm-119.11 27.62c10.54,-0.59 23.68,-0.26 34.44,-0.25l0.17 20.58c-11.27,0.29 -29.81,-2.93 -37.96,5.68 -3.63,8.97 -3.72,266.82 -0.9,290.36 1.4,2.08 4.62,5.89 7.31,5.94 73.35,1.33 147.03,0.63 220.44,0.38 5.11,-0.02 13.66,-1.32 18.1,-3.88 5.21,-14.39 0.53,-237.99 2.25,-272.48 0.24,-4.76 0.28,-19.22 -4.25,-22.31 -7.88,-5.38 -26.09,-3.74 -35.53,-3.63l0.05 -20.68 32.02 -0.03c4.24,-0.01 10.72,2.08 14.33,4.1 12.01,6.87 14.65,16.1 14.97,29.16 0.46,17.33 0.43,34.36 0.39,51.61l-0.07 109.26 0.05 77.79c0.02,13.99 0.1,28.42 -0.19,42.38 -0.75,37 -49.24,29.6 -75.67,29.53l-82.19 -0.15 -65.37 0.14c-69.13,0.34 -70.12,0.35 -69.88,-67.75l0.02 -70.34 -0.08 -117.3c-0.02,-19.72 -0.43,-39.71 0.15,-59.39 0.47,-16.15 12.67,-25.78 27.4,-28.71zm82.77 154.5c3.32,0.01 3.66,0.21 6.86,1.25 1.53,1.91 3.32,3.36 2.74,5.93 -2.41,10.58 -37.78,46.08 -46.18,46.03 -5.53,-2.21 -10.41,-8.32 -14.61,-12.83 -6.19,-5.79 -11.11,-10.54 -9.17,-19.92l2 -1.28c9.89,0.28 15.91,8.6 23.67,15.72l34.7 -34.9zm0.12 77.1c2.36,-0.05 4.1,0.47 6.38,0.97 3.43,3.59 2.57,1.8 3.22,6.75 -2.79,9.32 -36.9,45.5 -45.86,45.42 -5.9,-2.4 -11.38,-8.86 -16,-13.58 -5.56,-5.4 -9.63,-8.47 -9.8,-16.54 6.69,-8.93 21.99,7.37 26.98,12.29 11.57,-11.89 23.26,-23.66 35.07,-35.31zm35.27 -132.86c25.79,-0.9 68.19,-0.63 94.7,0.72 2.93,0.15 4.14,3.22 5.11,5.4 -0.33,4.76 -0.95,5.3 -4.09,8.98l-58.09 0.13c-10.26,0.04 -26.69,0.68 -36.45,-0.83 -4.34,-2.99 -3.15,-1.4 -5.02,-5.85 0.45,-4.51 0.93,-5.01 3.84,-8.54zm-35.39 -21.21c3.84,0.02 3.66,0.01 7.23,1.46 4.87,6.35 0.62,12.82 -4.86,18.13 -10.73,10.4 -23.75,26.83 -37.08,33.09 -3.95,1.86 -14.44,-10.05 -17.36,-13.08 -4.35,-4.12 -12.97,-11.87 -8.54,-18.3 8.9,-3.79 19.92,8 25.78,13.51 11.81,-11.82 22.26,-23.52 34.83,-34.82zm35.29 98.05c27.04,-0.13 54.21,-0.35 81.26,-0.42 8.49,-0.02 14.58,-1.68 18.48,6.7 -0.95,5.75 -0.05,3.53 -4.07,8.41 -28.05,1.03 -57.1,0.13 -85.22,0.49 -6.94,0.09 -10.87,-0.28 -14.14,-6.55 0.32,-4.5 0.87,-5.04 3.7,-8.63zm-0.68 76.9c25.28,-1.18 67.95,-0.36 94.59,0.36 2.85,0.08 4.53,3.21 5.78,5.38 0.06,4.52 -0.67,5.19 -3.37,8.91 -21.41,1.83 -71.79,0.29 -94.58,-0.44 -2.52,-0.08 -4.16,-2.95 -5.36,-4.84 -0.34,-4.56 0.48,-5.4 2.93,-9.36z"/>
 </g>
</svg>
