<?xml version="1.0" encoding="UTF-8"?>
<!DOCTYPE svg PUBLIC "-//W3C//DTD SVG 1.1//EN" "http://www.w3.org/Graphics/SVG/1.1/DTD/svg11.dtd">
<!-- Creator: CorelDRAW (Оценочная версия) -->
<svg xmlns="http://www.w3.org/2000/svg" xml:space="preserve" width="47.7494mm" height="50mm" version="1.1" style="shape-rendering:geometricPrecision; text-rendering:geometricPrecision; image-rendering:optimizeQuality; fill-rule:evenodd; clip-rule:evenodd"
viewBox="0 0 212.07 222.07"
 xmlns:xlink="http://www.w3.org/1999/xlink"
 xmlns:xodm="http://www.corel.com/coreldraw/odm/2003">
 <defs>
  <style type="text/css">
   <![CDATA[
    .fil0 {fill:white}
   ]]>
  </style>
 </defs>
 <g id="Слой_x0020_3">
  <metadata id="CorelCorpID_0Corel-Layer"/>
  <path class="fil0" d="M21.24 0.37c-10.27,1.12 -18.4,7.94 -20.46,18.33 -0.94,4.75 -0.4,31.32 -0.45,38.36l-0.01 115.69c0.04,16.04 -2.7,31.62 6.94,41.33 1.14,1.15 1.07,1.36 2.49,2.37 5.62,4.01 11.26,5.55 18.8,5.55l96.65 -0.04c5.54,0 13.9,0.44 19.01,-0.5 9.79,-1.8 16.91,-9.81 18.02,-20.38 0.62,-5.9 0.35,-12.92 0.37,-18.96 0.03,-8.15 1.92,-20.66 -7.69,-20.86 -2.44,-0.05 -4.88,0.93 -6.21,2.96 -3.69,5.59 0.34,29.21 -1.56,36.9 -1.43,5.79 -7.56,5.66 -13.85,5.61l-96.33 -0.01c-6.25,0.05 -12.44,0.75 -17.03,-2.38 -4.43,-3.02 -3.89,-9.4 -3.85,-15.76 0.24,-32.07 -0.09,-64.44 0.04,-96.65l-0.01 -57.86c-0.03,-6.08 -1.24,-13.63 2.94,-16.61 4.1,-2.93 11.62,-1.92 17.26,-1.96l58.18 0c12.8,-0.07 25.66,-0.06 38.47,-0.02 6.42,0.02 13.17,-1.33 14.22,5.36 0.68,4.35 0.09,14.4 0.09,19.37 0,6.13 -1.16,13.43 2.91,16.07 5.15,3.34 10.8,0.46 11.97,-4.68 0.83,-3.62 0.37,-14.77 0.36,-19.15 -0.02,-5.85 0.44,-13.29 -1.2,-18.32 -1.67,-5.13 -4.7,-8.72 -8.07,-11.01 -4.48,-3.06 -10.25,-2.96 -16.41,-2.98 -31.92,-0.09 -64.89,0.31 -96.65,-0.02 -5.72,-0.06 -13.46,-0.36 -18.95,0.24zm185.33 118.63c2.55,-2.53 7.57,-6.54 4.57,-12.44 -0.67,-1.32 -5.68,-5.94 -7.24,-7.32l-31.85 -30.88c-4.41,-4.02 -11.22,-2.49 -13.22,1.61 -2.98,6.11 3.17,10.31 5.5,12.59 3.35,3.27 6.37,6.62 9.74,9.65 1.46,1.32 3.58,3.25 4.97,4.74 0.99,1.06 1.44,1.54 2.41,2.43 0.49,0.45 0.73,0.63 1.21,1.04 0.31,0.26 0.42,0.34 0.71,0.65 0.38,0.4 0.19,0.16 0.51,0.63 -19.11,0.08 -38.26,0.1 -57.37,0.03 -4.23,-0.02 -40.09,-0.39 -42.56,0.32 -8.33,2.4 -8.03,14.5 1.55,15.49 3.89,0.41 10.04,0.03 14.19,0.04l85.27 0.04c-0.62,1.14 -7.52,7.78 -9.47,9.71 -0.95,0.94 -1.44,1.58 -2.31,2.54l-9.6 9.8c-4.76,7.04 1.31,13.86 8.06,12.22 3.11,-0.75 4.11,-2.26 5.82,-3.84l9.62 -9.78c3.28,-3.27 6.55,-6.35 9.7,-9.69 3.1,-3.29 6.62,-6.43 9.8,-9.59z"/>
 </g>
</svg>
