<?xml version="1.0" encoding="UTF-8"?>
<!DOCTYPE svg PUBLIC "-//W3C//DTD SVG 1.1//EN" "http://www.w3.org/Graphics/SVG/1.1/DTD/svg11.dtd">
<!-- Creator: CorelDRAW (Оценочная версия) -->
<svg xmlns="http://www.w3.org/2000/svg" xml:space="preserve" width="199.024mm" height="147.703mm" version="1.1" style="shape-rendering:geometricPrecision; text-rendering:geometricPrecision; image-rendering:optimizeQuality; fill-rule:evenodd; clip-rule:evenodd"
viewBox="0 0 2206.4 1637.45"
 xmlns:xlink="http://www.w3.org/1999/xlink"
 xmlns:xodm="http://www.corel.com/coreldraw/odm/2003">
 <defs>
  <style type="text/css">
   <![CDATA[
    .fil0 {fill:#373535}
   ]]>
  </style>
 </defs>
 <g id="Слой_x0020_3">
  <metadata id="CorelCorpID_0Corel-Layer"/>
  <path class="fil0" d="M70.16 300.74c-0.75,-21.15 -0.19,-43.09 -0.14,-64.32 0.1,-52.79 -8.03,-102.83 45.18,-142.31 30.04,-22.29 60.48,-21.98 103.24,-22.06l627.74 0.06c167.45,-0.4 335.14,-0.48 502.58,0.23 82.46,0.35 165.04,2.07 248.36,1.92 41.63,-0.08 83.41,-1.1 125.16,-1.35 83.62,-0.5 127.77,44.38 127.7,126.35 -0.02,20.86 -0.04,41.72 -0,62.58 0.06,33.13 4.36,38.38 -8.09,39.8l-768.85 -0.34c-167.52,0.19 -335.07,-0.51 -502.58,-0.03 -36.68,0.11 -474.81,2.2 -500.28,-0.54zm1267.27 1091.52c-83.6,-3.14 -172.4,-0.19 -256.59,-0.24l-764.63 -0.07c-42.57,0.08 -86.7,1.04 -129.09,-0.02 -40.33,-1.01 -68.7,-17.3 -88.02,-38.92 -25.92,-29.01 -29.13,-50.47 -29.06,-97.74 0.06,-42.37 0.24,-84.75 0.15,-127.11l0.43 -764.16c2.5,-6.79 13.46,-4.09 28.53,-4.08 10.43,0.01 20.86,0.02 31.29,0.06l700.09 -0.11c170.12,0.19 340.3,-0.48 510.4,0.16 84.62,0.32 169.6,0.34 254.22,-0.11 47.45,-0.25 219.63,-2.31 253.86,0.27 2.36,15.66 0.86,123.02 0.88,148.05 0.03,36.95 -5.45,37.31 17.73,56 10.31,8.31 33.51,23.78 46.21,27.95 3.28,-19.4 0.98,-62.1 1,-83.95l-0.01 -250.31c0.08,-60.55 4.29,-102.23 -17.58,-151.43 -16.5,-37.13 -46.9,-68.28 -81.29,-84.97 -45.61,-22.13 -91.21,-20.37 -148.45,-20.36 -55.41,0.01 -110.82,-0.04 -166.22,-0.1l-1001.25 -0.03c-56.45,-0.2 -297.55,-2.82 -334.16,1.07 -91.1,9.67 -158.65,76.84 -164.42,168.02 -3.31,52.27 0.07,114.53 -0.12,167.98l-0.09 835.03c0.01,49.37 -5.2,116.29 7.93,158.2 12.05,38.44 38.93,75.77 70.3,96.04 40.93,26.44 74.5,33.94 135.04,33.84 55.39,-0.1 110.83,0 166.22,0.04l668.8 0c110.14,-0.25 223.3,2.78 333.02,-0.33l-34.27 -52.36c-4.86,-7.54 -7.02,-9.11 -10.86,-16.31zm75.36 -504.63c-0.04,-11.09 0.4,-22.19 0.32,-33.27 -0.23,-28.38 -10.73,-13.9 69.35,-28.18 82.08,-14.63 173.51,-39.8 243.86,-82.87 12.64,-7.74 32.22,-21.43 40.93,-24.65 8.68,4.14 48.02,29.66 74.91,43.19 81.35,40.94 183.32,64.45 275.96,72.36 3.39,10.7 1.72,208.32 1.7,221.6 -0.37,266.35 -118.26,397.54 -342.38,489.42 -14.69,6.02 -24.5,-0.46 -38.99,-6.98 -33.99,-15.3 -73.49,-34.12 -103.02,-53.41 -140.24,-91.63 -198.42,-186.78 -218.64,-351.37 -5.44,-44.3 -3.81,-187.79 -4.01,-245.83zm-85.11 179.91c1.76,18.66 1.51,38.53 2.92,57.95 4.02,55.24 10.65,95.45 27.52,149.79 52.97,170.59 201.31,288.42 363.45,348.47 12.5,4.63 31.81,14.64 47.6,13.63 17.25,-1.1 30.42,-7.9 45.54,-14.14 89.4,-36.91 143.94,-66.64 221.81,-133.93 76.84,-66.41 144.25,-175.91 160.86,-314.03 12.04,-100.04 8.47,-242.22 8.66,-350.23 0.09,-51.67 -1.8,-69.51 -45.51,-73.08 -136.8,-11.2 -270.7,-46.53 -357.97,-116.74 -38.44,-30.92 -36.68,-26.51 -74.55,2.02 -70.66,53.25 -163.58,88.01 -252.59,103.2 -132.33,22.58 -148.06,-7.82 -148.13,90.46 -0.03,39.22 -1.86,212.8 0.39,236.62zm-1096.89 140.8c4.11,23.69 23.5,23.99 46.31,23.67l897.61 0.11c88.87,-0.36 101.89,9.16 98.29,-35.78 -2.2,-27.5 -5.39,-24.31 -45.49,-24.26 -22.82,0.03 -45.63,-0.11 -68.44,-0.07l-897.71 -0.15c-20.41,0.44 -34.53,13.61 -30.56,36.48zm1.17 -156.45c4.93,19.19 24.78,21.65 47.1,21.46l205.33 -0.03c248.97,0.22 504.77,-2 752.91,0.17 34.53,0.3 29.04,-8.17 28.84,-39.25 -0.16,-25.43 0.99,-21.46 -46.46,-21.39l-889.78 -0.08c-44.98,0.11 -111,-11.73 -97.94,39.12zm1480.53 139.13c-7.74,-3.84 -50.13,-48.2 -60.95,-58.66 -18.91,-18.3 -40.58,-49.25 -73.25,-44.58 -31.04,4.43 -52.4,40 -34.76,70.92 3.93,6.9 101.94,101.62 119.08,119.04 15.91,16.16 43.33,47.37 78.19,23.55 9.37,-6.41 21.3,-22.42 29.39,-31.35 26.21,-28.95 57.59,-67.51 82.33,-93.65 41.92,-44.29 94.45,-108.51 139.89,-159.31 47.04,-52.59 -14.27,-104.34 -56.07,-77.67 -10,6.38 -153.9,173.29 -168.18,189.74 -8.63,9.95 -18.79,21.43 -27.49,31.22 -4.96,5.59 -22.37,26.95 -28.17,30.76zm-1126.41 -539.45c5.45,4.44 33.78,110.4 37.65,125.51 7.73,30.2 8.29,48.98 65.84,41.22 16.25,-2.19 16.88,-18.02 21,-33.15l45.77 -171.69c9.02,-37.7 27.5,-60.6 -33.4,-54.38 -18.67,1.91 -22.58,12.5 -25.77,29.32 -6.49,34.18 -19.24,74.71 -26.43,109.64 -0.85,4.14 -1,6.8 -2.26,11.33l-4.17 8.65c-4.75,-7.61 -23.19,-76.83 -27.53,-92.22 -14.81,-52.46 -10.74,-68.29 -52.68,-67.25 -24.63,0.61 -29.02,6.36 -34.66,26.18l-38.46 137.95c-11.57,-25.57 -27.98,-146.03 -45.25,-158.75 -9.34,-6.88 -49.01,-9.34 -56.53,2.16 -6.6,12.15 34.91,149.51 43.14,181.67 4.21,16.46 10.5,43.42 16.21,57.67 8.48,21.19 55.54,13.17 60.51,11.26 17.06,-6.57 19.27,-30.64 24.32,-49.73 4.77,-18.03 11.09,-38.98 16.22,-57.85 2.73,-10.03 13.08,-51.34 16.49,-57.54zm479.68 -36.76c-2.95,13.04 -24.55,105.68 -25.99,108.07 -5.31,-10.32 -9.84,-33.54 -13.41,-46.37 -4.36,-15.69 -9.46,-32.31 -13.57,-47.55 -13.26,-49.13 -12.96,-70.07 -49.26,-70.5 -22.84,-0.27 -33.48,3.89 -38.59,22.52l-39.65 138.8 -33.32 -130.76c-4.02,-17.06 -5.76,-27.81 -25.22,-30.01 -13.17,-1.49 -42.18,-3.29 -45.12,10.15 -1.41,6.46 50.7,196.23 56.31,217.13 4.04,15.05 4.24,30.11 22.02,32.35 13.85,1.75 40.14,1.24 49.27,-4.89 19.05,-12.8 38.7,-140.98 52.32,-163.79 4.64,6.28 30.44,102.14 34.23,117.35 11.97,48.02 10.78,53.04 61.68,51.51 12.9,-0.39 18.51,-2.8 22.27,-14.76 12.5,-39.79 19.89,-78.12 32.27,-117.92 4.62,-14.83 32.4,-110.23 27.59,-118.89 -7.05,-13.37 -46.29,-11 -56.17,-3.64 -9.58,7.14 -14.03,35.1 -17.67,51.19zm202.41 88.76c-0.8,3.3 -1.62,7.47 -2.89,10.74 -0.09,0.24 -1.8,3.77 -1.84,3.84 -2.38,4.3 -0.92,1.56 -2.41,3.49l-25.95 -108.98c-4.32,-17.61 -6.79,-41.53 -19.49,-49.63 -14.36,-9.16 -44.16,-5.77 -55.8,2.35 -2.44,13.73 43.24,184.61 53.46,216.86 3.28,10.35 3.7,26.4 12.94,32.34 8.7,5.59 27.79,5.93 37.47,1.57 6.48,-22.09 -10.15,-60.29 44.04,-104.58 22.72,-18.58 11.7,1.27 23,-35.7 2.51,-8.2 3.48,-15.99 8.28,-22.07l11.73 34.26c10.76,2.14 42.52,-3.94 50.92,-7.73 0.78,-15.54 -17.28,-68.97 -21.82,-86.02 -3.89,-14.63 -5.79,-28.16 -19.12,-33.19 -10.42,-3.92 -36.4,-4.69 -46.87,2 -14.35,9.17 -22.82,58.37 -28.44,77.34l-17.21 63.11zm-929.6 -558.83c-27.85,4.73 -46.73,19.39 -43.78,52.55 5.22,58.78 104.88,53.62 94.93,-12.96 -3.54,-23.68 -27,-43.69 -51.15,-39.59zm-160.49 1.91c-13.74,5.28 -19.84,9.29 -26.6,20.96 -22.68,39.14 14.79,80.99 55.37,68.99 21.61,-6.39 40.47,-30.72 32.29,-60.21 -5.69,-20.53 -34.25,-40.05 -61.07,-29.73zm299.32 0.16c-13.92,5.76 -18.96,7.51 -26.54,20.85 -21.86,38.49 15.98,83.06 58.09,68.08 59.63,-21.2 22.84,-111.45 -31.55,-88.94zm951.68 527.68c12.17,0.05 31.02,-6.34 43.17,-8.98 24.13,-5.25 22.21,-0.7 28.04,-22.91 3.3,-12.56 24.66,-70.26 14.3,-79.16 -7.58,-6.5 -37.13,-6.22 -47.64,-3.15 -13.35,3.91 -15.98,16.97 -19,31.15 -6.02,28.28 -13.79,55.87 -18.88,83.04z"/>
 </g>
</svg>
