<?xml version="1.0" encoding="UTF-8"?>
<!DOCTYPE svg PUBLIC "-//W3C//DTD SVG 1.1//EN" "http://www.w3.org/Graphics/SVG/1.1/DTD/svg11.dtd">
<!-- Creator: CorelDRAW (Оценочная версия) -->
<svg xmlns="http://www.w3.org/2000/svg" xml:space="preserve" width="70.8265mm" height="69.7001mm" version="1.1" style="shape-rendering:geometricPrecision; text-rendering:geometricPrecision; image-rendering:optimizeQuality; fill-rule:evenodd; clip-rule:evenodd"
viewBox="0 0 1796.71 1768.14"
 xmlns:xlink="http://www.w3.org/1999/xlink"
 xmlns:xodm="http://www.corel.com/coreldraw/odm/2003">
 <defs>
  <style type="text/css">
   <![CDATA[
    .fil0 {fill:white}
   ]]>
  </style>
 </defs>
 <g id="Слой_x0020_2">
  <metadata id="CorelCorpID_0Corel-Layer"/>
  <path class="fil0" d="M871.44 279.35c21.29,-1.14 45.93,1.63 67.06,3.77 277.24,28.02 500.85,245.92 561.63,513.9 11.98,52.82 33.58,120.56 -32.06,142.7 -81.18,4.85 -67.86,-42.06 -79.66,-99.56 -46.99,-228.98 -235.35,-426.47 -476.17,-438.78 -50.67,-2.59 -99.51,-10.98 -79.93,-85.84 4.99,-19.1 21.28,-28.66 39.12,-36.18zm-13.98 -278.41c90.93,-4.96 200.51,10.06 287.04,35.41 230.12,67.09 423.54,224 536.63,435.34 59.3,108.83 97.3,224.06 113.89,346.95 5.76,42.67 -2.11,66.09 -40.69,84.03 -88.55,7.77 -73.74,-63.04 -87.45,-129.12 -17.23,-83.37 -46.49,-163.8 -86.86,-238.75 -115.02,-213.08 -308.95,-362.03 -548.82,-404.71 -32.14,-5.65 -64.59,-9.35 -97.17,-11.07 -40.36,-2.08 -91.3,11.59 -112.78,-32.88 -7.61,-15.83 -8.24,-34.12 -1.75,-50.44 8.11,-20.41 18.77,-27.16 37.96,-34.75zm-547.64 141.18c2.16,-0.24 4.31,-0.48 6.46,-0.71 40.88,-6.09 111.7,13.95 141.38,44.7 63.71,66.02 153.85,224.99 161.21,317.56 5.09,64.02 -76.09,133.14 -115.65,176.84 -19.79,21.86 -40.6,45.5 -38.06,78.35 2.23,28.97 24.16,70.26 38.8,95.19 77.01,131.03 184.13,249.83 301.14,347.05 50.19,41.7 150.88,120.77 217,127.79 11.16,1.19 31.8,-8.8 40.38,-16.62 38.53,-35.16 70.49,-79.26 109.83,-114.47 22.15,-19.84 47.61,-39.74 80.15,-40.07 103.66,-1.06 263.59,75.8 346,135.88 34.24,24.96 59.09,72.51 62.37,112.65 8.09,99.12 -41.6,164.54 -103.5,235.43 -63.74,63.42 -129.63,105.48 -220.41,120.84 -212.06,35.87 -476.79,-107.04 -647.78,-230.13 -301.38,-216.94 -611.6,-581.75 -682.36,-956.5 -18.03,-95.46 -0.68,-199.58 58.39,-276.46 62.7,-81.62 141.71,-141.42 244.65,-157.3z"/>
 </g>
</svg>
