<?xml version="1.0" encoding="utf-8" ?><svg xmlns="http://www.w3.org/2000/svg" xmlns:xlink="http://www.w3.org/1999/xlink" width="1536" height="1024" viewBox="0 0 1536 1024"><path fill="white" d="M0 0L1536 0L1536 1024L0 1024L0 0Z"/><path d="M205.354 137.748C263.673 131.211 316.213 173.288 322.59 231.638C328.968 289.989 286.758 342.427 228.404 348.647C170.275 354.843 118.095 312.821 111.742 254.694C105.389 196.568 147.259 144.261 205.354 137.748Z"/><path fill="white" d="M210.039 150.888C261.063 146.948 305.591 185.19 309.416 236.235C313.24 287.279 274.908 331.733 223.867 335.444C172.988 339.143 128.717 300.949 124.904 250.066C121.092 199.183 159.177 154.815 210.039 150.888Z"/><path d="M203.04 223.977C212.718 223.522 221.117 223.447 230.758 223.509C231.441 245.328 230.82 270.773 230.814 292.864L239.719 293.32L239.657 304.944C234.217 305.242 227.079 305.098 221.517 305.142C212.682 305.206 203.846 305.168 195.012 305.027L195.015 293.326L204.037 293.088L203.961 236.375L193.491 236.125L193.488 224.299L203.04 223.977Z"/><path d="M211.732 181.725C219.798 179.158 228.415 183.631 230.962 191.705C233.508 199.78 229.015 208.388 220.937 210.915C212.886 213.433 204.316 208.959 201.778 200.912C199.241 192.865 203.693 184.283 211.732 181.725Z"/><path d="M737.517 566.127C793.949 558.662 845.753 598.349 853.25 654.79C860.746 711.231 821.099 763.071 764.676 770.602C708.207 778.14 656.327 738.443 648.824 681.955C641.322 625.468 681.039 573.599 737.517 566.127Z"/><path fill="white" d="M738.8 577.494C789.003 570.699 835.196 605.933 841.929 656.157C848.663 706.381 813.382 752.543 763.162 759.218C713.027 765.881 666.972 730.665 660.25 680.526C653.528 630.387 688.681 584.278 738.8 577.494Z"/><path d="M716.423 609.236C728.007 608.269 729.584 616.614 734.539 625.884C737.181 630.826 740.297 638.919 740.004 644.307C739.846 647.216 730.665 652.818 728.151 654.502C735.828 670.445 750.766 684.589 765.964 693.413C769.122 689.514 772.254 684.908 776.782 682.822C784.731 682.344 797.545 688.393 804.476 692.623C815.777 699.521 812.608 707.586 806.282 716.004C793.717 726.465 786.347 725.714 770.803 721.775C737.097 713.233 661.187 634.885 716.423 609.236Z"/><path d="M429.79 580.522C440.397 580.345 460.404 577.839 468.987 585.153C470.83 586.724 473.321 591.171 473.48 593.686C474.358 607.66 473.965 621.924 473.939 635.956L473.935 722.821C474.01 730.142 475.038 740.389 471.213 746.551C469.872 748.711 466.517 752.763 463.964 753.247C459.573 754.09 455.123 754.594 450.655 754.754C399.637 756.391 347.32 753.662 296.176 754.806C283.469 755.091 276.156 747.659 276.05 734.88C275.675 689.686 276.338 644.478 275.815 599.285C275.702 589.54 280.495 584.375 288.963 580.724C294.207 580.211 304.838 580.467 310.483 580.436C310.334 587.657 309.506 594.331 314.572 600.277C319.08 605.568 325.71 605.815 330.414 600.61C335.867 594.576 335.119 587.967 335.014 580.445L405.532 580.526C405.519 584.303 405.289 589.011 405.629 592.611C406.635 603.258 420.773 608.461 427.069 598.678C430.912 592.707 429.963 587.057 429.79 580.522Z"/><path fill="white" d="M285.889 622.772C344.748 622.095 405.328 622.631 464.243 622.736L464.296 699.159C464.3 707.411 465.541 737.015 462.266 742.571C458.04 744.507 456.376 744.299 451.691 744.345L342.09 744.362L308.924 744.355C303.732 744.352 289.323 745.211 287.867 741.931C284.59 734.555 285.814 702.729 285.81 695.434L285.889 622.772Z"/><path d="M432.318 672.536C435.448 674.316 438.117 681.951 439.692 685.531C443.536 685.497 448.338 684.928 451.47 686.85L451.701 688.433C450.089 691.321 446.162 694.044 443.463 696.192C444.33 700.055 447.019 706.811 443.204 708.922C440.158 708.584 436.045 705.421 433.314 703.603C429.918 705.443 424.375 710.201 421.281 707.876C420.581 704.697 422.329 699.823 423.243 696.48C420.401 694.239 415.661 691.103 414.477 687.87L415.251 686.503C418.233 685.058 422.805 685.447 426.257 685.469C428.197 681.121 430.218 676.809 432.318 672.536Z"/><path d="M308.295 637.257C313.266 637.081 323.714 635.93 327.499 638.52C330.695 643.339 330.995 657.133 325.69 660.823C320.655 660.925 310.105 661.871 306.201 659.316C302.99 654.445 304.075 646.35 304.854 640.727C305.131 638.727 306.81 638.085 308.295 637.257Z"/><path d="M306.504 672.26C311.804 672.227 321.924 670.706 326.22 672.989C331.142 675.606 330.074 691.462 327.285 695.413C322.362 695.728 310.918 697.35 307.131 694.48C302.896 691.271 303.4 676.209 306.504 672.26Z"/><path d="M307.501 706.967C322.882 706.415 331.004 702.559 329.427 722.432C329.078 726.823 329.801 727.111 326.253 730.4C322.558 730.429 308.058 731.25 306.342 728.951C303.075 724.575 302.99 710.882 307.501 706.967Z"/><path d="M347.126 637.185C365.46 636.642 370.447 633.891 367.76 656.168C367.425 658.948 366.555 659.299 364.547 660.782C359.215 660.9 349.138 661.861 344.876 659.266C341.994 654.739 343.097 645.589 343.84 640.364C344.102 638.516 345.737 637.927 347.126 637.185Z"/><path d="M345.477 706.727C350.071 706.693 360.946 705.716 364.509 707.476C369.928 710.155 369.099 725.548 365.953 730.066C360.808 730.228 350.735 731.814 346.532 729.563C341.573 726.908 342.438 710.688 345.477 706.727Z"/><path d="M345.422 672.219C350.956 672.211 358.994 671.072 363.992 672.534C370.065 674.311 368.641 691.215 366.407 695.404C361.578 695.869 350.18 697.013 346.42 694.804C341.609 691.978 342.438 676.213 345.422 672.219Z"/><path d="M425.124 637.265C429.917 637.161 440.832 636.101 444.248 638.705C447.106 643.687 446.022 651.858 445.199 657.452C444.898 659.491 443.197 659.988 441.607 660.811C437.019 660.89 425.922 661.814 422.637 659.223C419.99 654.475 420.463 645.695 421.52 640.328C421.902 638.388 423.67 637.89 425.124 637.265Z"/><path d="M384.369 672.224C388.928 672.22 401.498 670.572 404.217 673.433C408.068 677.485 407.939 691.264 404.029 695.621C391.577 695.737 380.354 700.215 381.944 682.54C382.333 678.209 381.292 676.096 384.369 672.224Z"/><path d="M386.036 637.234C390.559 637.141 401.852 636.173 405.05 638.718C408.006 643.677 406.942 651.859 406.168 657.468C405.908 659.353 404.291 659.973 402.873 660.791C384.12 661.241 379.56 663.556 382.581 640.689C382.873 638.48 384.339 638.101 386.036 637.234Z"/><path d="M384.841 706.869C389.341 706.888 401.745 705.246 404.278 708.155C408.185 712.645 407.96 725.695 403.851 730.249C401.84 730.299 393.384 730.242 392.087 730.645C379.611 734.521 379.964 711.791 384.841 706.869Z"/><path d="M496.323 213.8L661.684 213.867C662.883 251.15 661.487 292.057 662.021 330.074L672.823 330.284C672.939 334.51 672.896 338.975 672.928 343.224C669.628 343.495 664.329 343.341 660.879 343.346C603.05 343.412 542.461 344.342 484.895 343.173C484.718 339.159 484.98 334.357 485.096 330.28L496.068 330.06L496.323 213.8Z"/><path fill="white" d="M558.277 300.2C562.767 300.069 597.231 298.258 601.63 302.437C603.085 303.819 602.488 317.03 602.353 320.043C602.218 323.073 603.72 330.316 600.679 332.239C585.84 332.175 570.628 332.371 555.835 331.901C555.865 324.211 553.773 305.169 558.277 300.2Z"/><path fill="white" d="M522.026 229.036C527.056 228.985 537.138 227.377 541.159 229.761C545.219 232.168 544.728 248.391 542.042 251.712C528.84 251.849 518.379 256.771 520.277 238.272C520.633 234.797 519.669 232.091 522.026 229.036Z"/><path fill="white" d="M616.364 228.955C621.266 228.997 631.905 227.443 635.567 229.884C639.621 232.586 639.3 247.873 636.411 251.549C623.859 251.889 612.745 256.535 614.613 238.815C614.999 235.152 613.949 232.231 616.364 228.955Z"/><path fill="white" d="M569.141 229.03C574.129 229.046 584.507 227.461 588.352 229.869C592.404 232.406 591.792 248.455 589.127 252.016C582.636 251.758 573.795 253.513 569.599 250.472C566.661 246.621 566.428 232.408 569.141 229.03Z"/><path fill="white" d="M534.485 265.17C536.397 265.08 538.224 265.147 540.133 265.193C547.029 269.174 544.467 281.23 541.989 287.317C538.981 288.415 534.125 288.051 530.733 288.009C527.287 288.072 524.703 288.59 522.114 286.64C518.832 282.001 520.42 272.173 520.58 265.664C524.806 265.317 530.164 265.303 534.485 265.17Z"/><path fill="white" d="M570.15 265.15C576.992 265.144 583.834 265.271 590.672 265.532C590.931 272.128 592.476 283.281 588.814 287.879C581.499 287.981 575.212 288.084 567.926 287.58C567.638 282.314 565.655 267.936 570.15 265.15Z"/><path fill="white" d="M615.323 265.525C622.105 264.985 630.877 265.099 637.625 265.656C638.36 272.594 638.668 280.493 637.276 287.325C633.354 288.104 626.197 288.22 622.158 288.353C611.551 288.704 614.382 272.841 615.323 265.525Z"/><path d="M1288.2 155.292C1289.83 153.597 1291.51 151.947 1293.23 150.342C1301.15 143.23 1311.58 139.572 1322.21 140.181C1333.23 140.686 1343.58 145.622 1350.92 153.869C1353.43 156.747 1355.85 160.382 1357.33 163.917C1371.13 196.869 1340.08 221.121 1318.02 239.727C1309.78 246.653 1298.58 258.052 1288.96 263.053C1287.17 263.673 1283.22 261.168 1281.96 260.071C1262.79 242.337 1232.49 222.606 1219.75 199.461C1206.12 174.678 1222.68 144.591 1250.19 140.507C1267.13 139.004 1276.46 143.51 1288.2 155.292Z"/><path d="M1215.78 257.486C1244.42 254.597 1256.23 269.413 1282.7 275.865C1294.17 279.354 1307.87 277.906 1318.65 282.527C1322.2 284.05 1324.84 293.949 1321.66 296.12C1304.46 307.878 1271.26 293.032 1253.11 294.012C1251.14 295.155 1251.77 294.35 1251.07 296.459C1260.19 301.43 1284.68 303.77 1295.28 305.154C1309.1 306.958 1324.73 307.521 1329.09 291.326C1328.49 287.82 1327.94 286.193 1326.83 282.843C1340.15 275.447 1353.21 268.42 1366.74 261.432C1379.69 254.737 1402.33 259.27 1390.12 274.822C1366.07 295.241 1322.07 330.228 1290.1 337.503C1270.46 341.976 1228.85 320.386 1207.17 322.296C1195.17 323.354 1181.23 332.786 1169.16 334.992C1163.94 332.711 1154.7 292.841 1157.06 287.413C1162.77 283.225 1169.65 281.494 1175.25 278.051C1189.61 269.211 1198.62 260.656 1215.78 257.486Z"/><path d="M857.422 148.812C863.583 148.469 871.265 148.661 877.549 148.668L877.649 160.695C871.062 160.863 860.225 158.983 855.46 164.015C853.339 169.255 853.287 319.969 854.934 333.727C855.751 334.944 857.636 337.17 859.204 337.198C902.074 337.975 945.138 337.568 988.048 337.418C991.035 337.407 996.033 336.645 998.624 335.153C1001.67 326.743 998.936 196.052 999.938 175.893C1000.08 173.11 1000.1 164.66 997.456 162.851C992.85 159.704 982.205 160.664 976.689 160.73L976.721 148.641L995.437 148.623C997.913 148.615 1001.7 149.84 1003.81 151.018C1010.83 155.036 1012.37 160.429 1012.56 168.064C1012.83 178.195 1012.81 188.146 1012.79 198.229L1012.75 262.088L1012.78 307.557C1012.79 315.733 1012.84 324.166 1012.67 332.325C1012.23 353.949 983.889 349.624 968.44 349.583L920.403 349.496L882.198 349.575C841.792 349.773 841.213 349.78 841.352 309.979L841.364 268.868L841.317 200.306C841.303 188.778 841.068 177.097 841.406 165.591C841.682 156.152 848.809 150.524 857.422 148.812Z"/><path d="M576.56 104.512C578.864 104.908 578.745 104.879 580.688 106.202C581.205 108.285 581.152 108.784 582.617 110.208C597.153 111.124 606.339 115.046 620.037 112.714C621.581 155.063 610.391 129.264 582.057 134.553L581.904 150.324C592.48 156.369 670.475 200.345 672.922 204.031C672.101 207.276 670.751 207.473 667.428 207.586C653.642 208.051 639.183 207.779 625.426 207.699L534.596 207.728C519.773 207.728 504.951 207.748 490.131 207.822C486.949 207.838 485.294 206.862 484.807 203.842C486.476 201.129 563.352 157.184 574.485 150.669C574.735 141.436 572.051 110.549 576.56 104.512Z"/><path d="M1097.51 606.284C1120.85 604.439 1119.8 620.855 1121.44 638.219C1127 638.148 1159.15 636.76 1161.79 639.888C1176.33 657.144 1131.7 652.675 1123.34 652.595C1123.49 657.729 1124.41 664.961 1124.95 670.255C1194.05 673.218 1167.28 660.882 1205.55 724.685C1210.29 722.315 1213.6 720.945 1218.47 719.064C1220.73 719.178 1223.61 719.521 1225.13 721.171C1234.87 731.745 1204.44 743.135 1198.52 743.214C1190.97 740.958 1170.54 701.1 1165.07 691.806C1150.53 691.921 1111.18 694.209 1099.94 690.22C1097.09 689.209 1095.02 685.864 1093.74 683.251C1090.14 675.908 1082.87 622.94 1085.59 616.078C1087.68 610.81 1092.65 608.377 1097.51 606.284Z"/><path d="M1079.28 639.789L1080.13 640.284C1081.42 643.479 1081.91 649.573 1082.36 653.219C1058.62 669.921 1048.87 696.182 1063.97 722.598C1071.31 735.418 1083.42 744.815 1097.66 748.741C1121.74 755.262 1147.7 742.118 1158.17 719.862C1161 713.849 1162.31 708.835 1164.04 702.443C1166.63 706.304 1169.76 710.712 1171.78 714.844C1173.8 718.955 1173.23 719.212 1171.98 722.868C1157.67 753.208 1125.06 770.164 1092.27 760.576C1074.89 755.343 1060.29 743.428 1051.68 727.444C1033.73 694.453 1046.57 657.112 1079.28 639.789Z"/><path d="M925.857 121.051C938.72 121.534 945.047 127.598 946.966 140.222C952.449 139.958 961.439 138.851 966.029 141.461C971.635 145.412 972.194 162.627 967.83 166.767C963.901 170.494 950.944 168.659 945.197 168.96C941.37 169.161 934.702 168.879 930.375 168.842C918.728 168.795 907.019 169.003 895.38 169.069C886.713 169.117 883.857 166.124 883.602 157.397C883.005 136.934 891.663 139.956 906.991 139.897C910.119 128.267 913.341 122.912 925.857 121.051Z"/><path fill="white" d="M925.005 132.95C927.592 132.217 930.375 132.93 932.291 134.818C934.207 136.706 934.961 139.478 934.267 142.077C933.573 144.676 931.537 146.702 928.935 147.383C924.968 148.421 920.905 146.07 919.827 142.113C918.75 138.155 921.059 134.068 925.005 132.95Z"/><path d="M1097.46 558.417C1109.06 556.027 1120.43 563.419 1122.94 574.995C1125.46 586.571 1118.2 598.018 1106.65 600.666C1099.07 602.405 1091.14 599.934 1085.88 594.196C1080.63 588.458 1078.86 580.338 1081.26 572.934C1083.65 565.531 1089.84 559.987 1097.46 558.417Z"/><path d="M1245.07 435.207C1250.86 435.194 1256.87 435.104 1262.64 435.208C1262.65 441.76 1261.43 450.94 1265.38 455.131C1266.15 457.831 1266.23 462.326 1264.78 464.825C1260.81 464.535 1259.81 457.451 1257.54 457.42C1254.97 457.384 1245.64 456.95 1245.07 460.577C1244.39 464.898 1243.36 464.795 1239.04 465.077L1237.63 464.587C1237.48 461.014 1237.6 458.017 1237.75 454.442L1239.28 454.659C1246.08 450.307 1244.89 442.559 1245.07 435.207Z"/><path fill="#DDDADD" d="M1237.75 454.442L1239.28 454.659C1239.53 458.579 1239.32 461.145 1239.04 465.077L1237.63 464.587C1237.48 461.014 1237.6 458.017 1237.75 454.442Z"/><path fill="white" d="M1250.6 440.139C1253.04 440.001 1253.92 439.686 1255.87 440.897C1257.68 444.228 1256.85 449.061 1256.67 453.109C1254.03 453.225 1251.76 453.718 1249.76 452.26C1248.95 450.201 1250.38 443.644 1250.6 440.139Z"/><path d="M1305.06 434.276C1314.81 434.352 1319.15 442.66 1316.23 451.277C1312.96 460.91 1304.13 456.402 1300.58 457.986L1300.63 460.441C1300.5 463.61 1301.07 464.506 1299.36 466.445C1297.03 466.815 1296.91 466.883 1294.68 466.303C1293.73 463.686 1294.13 439.78 1294.52 435.762L1296.01 434.86C1298.01 434.982 1298.61 435.691 1300.17 436.897L1305.06 434.276Z"/><path fill="white" d="M1302.61 439.384C1311.87 440.032 1312.6 446.57 1307.7 453.396C1305.01 453.571 1304.23 453.803 1302.03 452.34C1299.07 448.667 1299.63 442.817 1302.61 439.384Z"/><path d="M355.801 796.869C357.586 796.512 357.79 796.624 359.554 796.808C360.313 799.258 360.245 798.043 359.704 800.596C356.478 803.286 344.777 801.235 346.06 809.045C359.344 802.035 364.715 813.214 360.683 824.792C356.65 828.983 350.373 831.22 345.25 827.688C337.873 822.602 337.524 810.18 342.558 803.328C346.37 798.139 349.996 797.82 355.801 796.869Z"/><path fill="white" d="M348.539 811.443C357.691 811.782 358.086 818.375 353.313 824.646C351.609 824.579 350 824.596 348.565 823.621C346.947 822.54 345.905 820.786 345.727 818.849C345.41 815.481 346.512 813.883 348.539 811.443Z"/><path d="M926.482 206.523C941.558 205.997 966.339 206.156 981.83 206.941C983.544 207.027 984.251 208.825 984.817 210.098C984.623 212.88 984.262 213.198 982.426 215.344L948.476 215.421C942.479 215.446 932.876 215.817 927.17 214.937C924.632 213.187 925.327 214.116 924.237 211.516C924.502 208.878 924.78 208.589 926.482 206.523Z"/><path d="M273.725 396.146C283.797 396.562 287.378 402.584 285.544 412.052C283.546 422.369 272.358 417.753 269.759 419.25L269.712 421.795C269.655 425.045 270.132 426.485 268.317 428.553C265.584 428.52 266.572 428.898 264.458 427.365C262.335 423.011 262.986 402.553 263.629 397.664C267.529 395.594 266.659 400.272 273.725 396.146Z"/><path fill="white" d="M272.155 400.975C281.599 401.193 280.965 408.668 277.124 415.088C273.677 415.636 273.292 415.383 270.837 413.689C268.345 409.633 269.163 404.526 272.155 400.975Z"/><path d="M926.026 296.382C940.802 295.693 965.744 296.174 981.313 296.593C982.979 296.638 983.961 298.47 984.689 299.737C984.724 302.376 984.298 302.769 982.722 304.944C970.206 306.015 940.764 305.113 927.442 304.684C925.968 304.636 925.01 302.962 924.311 301.854C924.113 299.191 924.593 298.695 926.026 296.382Z"/><path d="M926.423 251.437C942.228 251.359 958.107 251.23 973.92 251.193C978.885 251.181 982.441 250.21 984.72 255.108C984.162 258.469 984.689 257.174 982.34 260.022C965.948 260.626 948.966 260.097 932.529 260.31C928.472 260.362 926.174 260.145 924.263 256.481C924.449 253.848 924.77 253.535 926.423 251.437Z"/><path d="M321.794 561.111C324.421 561.614 327.831 562.548 328.839 565.505C331.736 574.002 331.016 585.675 329.271 594.376C328.72 597.121 325.915 598.398 323.732 599.53C313.433 597.377 314.553 587.943 314.43 579.295C314.32 571.507 313.944 564.346 321.794 561.111Z"/><path d="M417.064 561.182C422.254 562.202 425.094 565.075 425.16 570.427C425.274 579.597 428.928 595.595 418.388 599.47C408.514 597.424 409.489 587.22 409.51 579.058C409.531 571.242 408.834 563.895 417.064 561.182Z"/><path d="M1216.96 435.212L1234.47 435.189C1234.53 439.784 1233.96 444.885 1234.41 449.448C1234.76 452.884 1235.32 452.662 1237.75 454.442C1237.6 458.017 1237.48 461.014 1237.63 464.587C1235.69 464.609 1234.48 464.877 1232.96 463.739C1232.78 462.72 1232.47 460.944 1232.04 460.066C1230.35 456.679 1219.46 457.103 1216.93 458.264C1216.41 460.276 1216.37 461.542 1216.2 463.623L1215.15 464.487C1212.65 464.542 1212.85 464.973 1211.5 463.75C1210.54 456.966 1214.31 451.074 1216.13 444.879C1216.54 443.484 1216.87 436.953 1216.96 435.212Z"/><path fill="white" d="M1222.61 439.687C1225.32 439.816 1225.78 439.368 1227.62 440.832C1228.92 443.968 1229.86 451.046 1226.98 453.236C1224.23 453.16 1223.32 453.602 1221.32 452.228C1220.71 450.089 1222.41 443.806 1222.61 439.687Z"/><path d="M520.148 396.928L537.801 396.928C537.72 401.797 536.916 411.618 539.223 415.679C541.216 419.187 543.307 424.181 538.701 426.622L536.944 425.953C535.074 422.961 535.649 423.414 535.495 419.477C532.151 419.448 524.328 418.847 521.724 420.368C521.692 420.711 521.654 421.053 521.61 421.394C521.268 423.923 520.829 424.278 518.873 425.733C515.856 425.851 516.545 426.267 514.362 424.931C513.091 419.639 518.206 413.189 519.625 408.618C519.963 407.531 520.114 398.569 520.148 396.928Z"/><path fill="white" d="M525.959 401.887L529.903 401.977C532.788 404.887 533.064 411.994 530.8 414.932C528.446 415.022 526.479 415.461 524.708 414.152C523.874 411.933 525.66 405.875 525.959 401.887Z"/><path d="M905.795 194.127C908.04 194.139 907.933 194.133 910.022 194.982C912.867 198.695 910.385 202.475 907.183 205.577C900.911 211.654 893.302 221.261 885.509 224.918C883.199 226.003 877.067 219.046 875.36 217.276C872.819 214.869 867.781 210.339 870.37 206.581C875.571 204.366 882.013 211.254 885.439 214.476C892.339 207.567 898.45 200.728 905.795 194.127Z"/><path d="M905.87 284.177C907.247 284.148 908.266 284.449 909.602 284.742C911.609 286.843 911.107 285.796 911.482 288.689C909.851 294.137 889.914 315.285 884.679 315.236C881.229 313.836 878.03 310.059 875.329 307.3C872.082 304.144 869.7 302.348 869.599 297.63C873.511 292.412 882.45 301.939 885.371 304.816C892.133 297.866 898.966 290.986 905.87 284.177Z"/><path d="M905.8 239.114C907.738 239.121 907.939 239.239 909.812 239.845C910.704 240.96 911.754 241.807 911.411 243.311C910 249.498 889.332 270.245 884.418 270.215C881.184 268.923 878.336 265.35 875.878 262.715C872.258 259.332 869.384 256.552 870.519 251.071L871.687 250.325C877.468 250.486 880.986 255.353 885.519 259.514L905.8 239.114Z"/><path d="M1195.41 434.617C1201.89 433.292 1208.23 437.45 1209.6 443.927C1210.96 450.403 1206.84 456.768 1200.38 458.176C1193.85 459.597 1187.42 455.433 1186.04 448.898C1184.66 442.363 1188.87 435.955 1195.41 434.617Z"/><path fill="white" d="M1194.69 439.512C1204.91 438.178 1205.19 447.149 1200.52 453.555C1190.89 453.874 1190.88 446.257 1194.69 439.512Z"/><path d="M1184.84 389.648C1191.02 387.662 1197.67 390.969 1199.82 397.105C1201.97 403.24 1198.84 409.971 1192.76 412.282C1188.69 413.832 1184.09 413.048 1180.76 410.233C1177.43 407.419 1175.89 403.018 1176.74 398.74C1177.58 394.462 1180.68 390.981 1184.84 389.648Z"/><path fill="white" d="M1186.33 393.695C1195.71 394.439 1195.68 401.71 1191.01 408.152C1181.44 408.375 1181.19 399.541 1186.33 393.695Z"/><path d="M478.71 396.331C482.937 395.573 487.246 397.144 489.993 400.446C492.74 403.748 493.503 408.271 491.991 412.292C490.478 416.313 486.924 419.211 482.682 419.882C476.215 420.906 470.131 416.53 469.042 410.073C467.953 403.616 472.266 397.485 478.71 396.331Z"/><path fill="white" d="M477.827 401.283C487.599 400.342 488.052 408.797 483.331 415.163C473.951 415.618 473.674 407.421 477.827 401.283Z"/><path d="M135.95 396.486C140.145 395.556 144.516 396.96 147.384 400.16C150.253 403.361 151.173 407.859 149.792 411.93C148.411 416 144.943 419.009 140.719 419.801C134.336 420.999 128.171 416.855 126.869 410.49C125.567 404.126 129.609 397.893 135.95 396.486Z"/><path fill="white" d="M137.815 400.415C146.207 402.867 146.016 412.455 138.845 415.923C131.005 413.132 130.841 404.564 137.815 400.415Z"/><path d="M1174.38 851.295C1179.51 851.175 1184.99 851.245 1190.14 851.228C1190.05 853.985 1189.93 857.741 1190.22 860.451C1190.76 865.438 1193.92 872.818 1192.45 877.69C1190.84 878.507 1191.13 878.211 1189.03 878.062C1187.56 875.873 1188.07 874.984 1188.04 871.991C1184.58 871.893 1177.58 871.19 1174.82 872.954C1174.63 874.618 1174.66 874.832 1174.07 876.461C1172.5 877.7 1172.21 878.137 1170.2 878.19L1169.31 877.337C1167.93 871.698 1172.17 865.297 1173.62 860.015C1174.11 858.202 1174.29 853.322 1174.38 851.295Z"/><path fill="white" d="M1179.28 855.184C1181.1 855.236 1181.53 855.184 1183.33 855.75C1185.37 859.247 1185.77 864.663 1183.23 867.877C1181.06 867.8 1180.09 868.011 1178.42 866.812C1177.71 864.498 1179.05 858.74 1179.28 855.184Z"/><path d="M320.763 806.787C324.756 805.16 329.318 805.843 332.66 808.567C336.003 811.291 337.592 815.622 336.806 819.862C336.019 824.102 332.982 827.575 328.886 828.918C322.85 830.898 316.331 827.74 314.142 821.775C311.953 815.811 314.881 809.184 320.763 806.787Z"/><path fill="white" d="M322.39 810.561C331.906 810.386 331.869 817.47 328.387 824.303C318.173 825.004 318.265 817.541 322.39 810.561Z"/><path d="M690.144 805.909C696.549 805.336 702.23 810.005 702.91 816.401C703.591 822.796 699.02 828.557 692.638 829.345C688.413 829.867 684.235 828.069 681.709 824.642C679.183 821.214 678.702 816.691 680.45 812.808C682.198 808.926 685.904 806.288 690.144 805.909Z"/><path fill="white" d="M689.781 810.018C698.305 811.565 698.17 819.271 693.35 824.787C683.808 824.365 683.864 815.555 689.781 810.018Z"/><path d="M1317.89 435.167C1326.81 434.637 1326.34 438.47 1331.29 445.506C1331.23 441.432 1330.16 436.809 1334.51 435.156L1336.32 436.41C1338.07 439.04 1337.69 442.312 1337.76 445.652C1340.11 441.897 1344.2 434.451 1349.42 434.942L1349.77 436.469C1348.88 439.618 1346.08 442.728 1344.01 445.391C1347.17 449.501 1349.19 453.136 1351.77 457.581C1342.17 458.279 1342.73 453.714 1337.72 446.181C1337.66 450.381 1338.5 456.22 1333.94 457.957C1330.24 454.859 1331.22 450.61 1331.38 446.101C1328.81 450.441 1325.17 457.683 1319.61 458.356L1319.14 457.731C1319.15 453.261 1322.61 449.34 1325.24 445.668L1317.89 435.167Z"/><path d="M1168.83 806.645L1184.26 806.661C1184.22 810.819 1183.86 818.428 1184.74 822.206C1186.22 823.196 1187.27 823.417 1187.23 825.123C1187.17 827.793 1187.64 831.03 1186.19 833.128C1182.63 830.228 1173.56 822.552 1168.8 828.087C1168.03 832.018 1168.69 833.287 1164.4 834.205L1162.51 833.432L1162.44 823.853L1164 823.731C1169.73 820.296 1168.72 812.726 1168.83 806.645Z"/><path fill="#DDDADD" d="M1164 823.731C1164.02 826.449 1163.88 831.789 1164.4 834.205L1162.51 833.432L1162.44 823.853L1164 823.731Z"/><path fill="white" d="M1173.87 810.777C1175.71 810.747 1176.71 810.524 1178.25 811.497C1180.16 815.002 1179.17 818.804 1178.73 822.913C1176.39 823.011 1174.83 823.404 1173.05 822.066C1172.3 819.864 1173.62 814.244 1173.87 810.777Z"/><path d="M1211.4 806.296C1219.66 808.319 1235.67 802.123 1230.71 820.96C1229.67 824.907 1227.07 826.251 1223.64 827.924C1221.47 827.72 1219.83 827.101 1217.75 826.457C1215.58 827.966 1218.18 832.305 1215.48 835.009C1212.86 835.202 1214.03 835.492 1211.83 834.195C1210.87 831.582 1211.37 810.579 1211.4 806.296Z"/><path fill="white" d="M1220.17 809.756C1228.1 811.921 1227.24 819.537 1221.98 824.291C1214.64 821.739 1214.8 814.407 1220.17 809.756Z"/><path d="M1144.02 806.634L1159.62 806.714C1159.67 811.346 1159.05 816.935 1159.85 821.4C1160.12 822.925 1160.78 822.852 1162.44 823.853L1162.51 833.432C1160.57 833.312 1160.55 833.316 1158.72 832.706C1158.18 831.295 1157.68 829.869 1157.22 828.431C1154.63 826.539 1146.32 825.807 1143.84 827.747C1143.91 830.182 1144.12 830.72 1143.01 832.763L1141.49 833.135L1140.08 832.068C1138.38 826.334 1142.22 820.38 1143.56 814.998C1143.9 813.6 1143.99 808.187 1144.02 806.634Z"/><path fill="white" d="M1149.21 810.738L1152.73 811.055C1155.34 813.383 1155.4 820.561 1153.27 823.042C1150.76 822.936 1149.8 823.305 1147.91 822.078C1147.29 820.318 1148.91 814.082 1149.21 810.738Z"/><path d="M1201.7 851.134C1205.45 849.841 1209.6 850.664 1212.57 853.287C1215.55 855.91 1216.88 859.93 1216.07 863.811C1215.25 867.691 1212.41 870.835 1208.64 872.04C1202.89 873.874 1196.74 870.742 1194.84 865.016C1192.94 859.29 1196 853.101 1201.7 851.134Z"/><path fill="white" d="M1204.26 854.244C1212.47 856.643 1211.9 863.945 1206.38 869.037C1198.7 866.33 1198 858.953 1204.26 854.244Z"/><path d="M990.761 806.838C994.381 805.381 998.506 805.99 1001.55 808.431C1004.6 810.873 1006.09 814.767 1005.45 818.619C1004.82 822.471 1002.16 825.681 998.49 827.017C992.95 829.035 986.815 826.237 984.705 820.729C982.595 815.222 985.29 809.039 990.761 806.838Z"/><path fill="white" d="M992.822 809.923C1001.63 810.728 1001.54 818.119 996.726 823.812C988.097 822.93 988.532 815.627 992.822 809.923Z"/><path d="M1386.04 434.458C1399.18 434.016 1400.03 446.555 1397.39 456.196C1396.91 457.938 1382.4 457.958 1379.96 457.172C1371.1 446.56 1384.3 445.379 1390.51 441.993L1390.76 440.674C1388.09 438.456 1381.69 441.372 1378.8 438.322L1379.26 437.077C1380.85 435.192 1383.45 435.03 1386.04 434.458Z"/><path fill="white" d="M1384.48 447.967C1387.82 447.834 1388.55 447.26 1391.17 448.659C1391.44 451.192 1390.98 451.147 1389.81 453.665C1387.23 453.777 1386.54 454.047 1384.47 452.757C1383.44 450.164 1383.68 451.147 1384.48 447.967Z"/><path d="M1122.92 806.976C1128.37 804.595 1134.72 807.11 1137.06 812.579C1139.4 818.049 1136.84 824.378 1131.36 826.68C1125.93 828.957 1119.68 826.427 1117.36 821.014C1115.05 815.601 1117.53 809.333 1122.92 806.976Z"/><path fill="white" d="M1125.56 809.812C1134.3 810.929 1133.3 818.655 1128.56 823.979C1120.71 822.541 1120.78 814.929 1125.56 809.812Z"/><path d="M1052.8 806.776C1058.36 804.74 1064.52 807.603 1066.54 813.168C1068.57 818.733 1065.7 824.888 1060.13 826.908C1054.58 828.924 1048.44 826.059 1046.42 820.505C1044.39 814.951 1047.25 808.807 1052.8 806.776Z"/><path fill="white" d="M1054.58 809.978C1063.54 810.677 1062.88 818.177 1058.11 823.696C1050.02 822.47 1050.28 815.463 1054.58 809.978Z"/><path d="M1262.94 389.521C1275.89 388.307 1277.75 394.283 1277.88 406.235C1277.9 408.612 1277.63 411.147 1275.9 412.782C1271.75 412.847 1272.26 410.492 1269.63 411.332C1265.32 412.704 1264.57 412.942 1260.18 412.312C1248.83 399.811 1267.35 399.78 1270.66 395.86C1266.4 391.414 1263.76 396.221 1258.9 394.155L1258.61 392.712C1259.56 390.486 1260.23 390.784 1262.94 389.521Z"/><path fill="white" d="M1265.43 402.013C1268.22 402.009 1269.18 401.621 1271.06 403.52C1271.04 405.806 1269.91 406.877 1268.54 408.789C1265.34 408.265 1265 408.152 1263.19 406.184C1263.51 403.479 1263.31 404.403 1265.43 402.013Z"/><path d="M677.504 397.086C681.84 396.869 687.071 396.971 691.48 396.939C691.488 402.302 691.786 413.599 691.164 418.468C688.984 420.564 690.065 420.077 687.125 420.353C684.205 417.173 686.262 413.69 684.547 411.471L681.449 411.102C679.391 415.312 678.121 418.909 672.887 419.354L671.805 418.119C671.885 415.253 674.144 412.819 675.911 410.313C670.159 405.261 670.214 400.246 677.504 397.086Z"/><path fill="white" d="M678.546 401.349C681.06 401.251 681.865 401.212 684.33 401.643C685.874 403.798 685.336 404.004 685.252 407.091C682.671 406.937 681.107 407.099 678.914 405.765C677.908 403.315 678.167 404.223 678.546 401.349Z"/><path d="M1204.48 389.996C1206.75 389.902 1207.06 389.863 1209.26 390.344C1214.36 396.131 1206.34 402.263 1211.8 407.286C1225.68 408.409 1215.01 396.968 1219.56 390.751C1221.74 389.748 1221.82 389.769 1224.25 390.229C1225.2 392.005 1224.87 402.523 1224.88 405.279C1225.17 407.155 1224.96 406.497 1226.81 408.043C1228.32 411.432 1228.28 414.512 1227.78 418.16C1225.49 419.687 1226.33 419.636 1224.24 419.236C1222.89 417.861 1222.38 414.832 1221.86 412.823C1219.38 411.95 1207.96 412.298 1204.42 412.303L1204.48 389.996Z"/><path d="M1385.56 390.21C1390.15 389.84 1396.22 389.995 1400.92 389.983C1400.92 393.412 1401.5 410.052 1400.21 411.938C1397.79 412.459 1396.27 412.455 1394.92 410.33C1395.17 406.226 1396.17 404.407 1391.93 403.414C1389.5 407.369 1387.29 412.21 1381.97 412.257L1381.1 411.055C1381.37 408.108 1383.52 405.716 1385.3 403.165C1379.69 398.133 1380.27 394.746 1385.56 390.21Z"/><path fill="white" d="M1389.51 394.113C1390.55 393.335 1391.94 393.209 1393.11 393.788C1394.27 394.368 1395.01 395.553 1395.02 396.854C1395.03 398.155 1394.3 399.349 1393.14 399.942C1391.55 400.759 1389.6 400.218 1388.65 398.698C1387.7 397.178 1388.08 395.185 1389.51 394.113Z"/><path d="M1277.24 434.476C1285.51 434.821 1291.53 438.212 1289.66 447.442C1287.04 449.267 1279.49 446.816 1274.98 448.606L1274.64 449.742C1278.17 455.29 1281.47 453.776 1287.25 452.652C1287.46 452.721 1288.42 453.001 1288.57 453.111L1288.8 455.084C1284.13 464.212 1261.59 454.797 1269.14 441.306C1271.78 436.574 1272.42 436.424 1277.24 434.476Z"/><path fill="white" d="M1277.74 438.534C1280.5 438.9 1283.93 439.986 1283.59 443.328L1281.78 443.917C1279.21 443.94 1276.98 444.257 1274.95 443.059C1275.36 440.729 1276.07 440.522 1277.74 438.534Z"/><path d="M1361.66 389.521C1370.78 388.763 1375.66 389.436 1377.07 400.38C1377.44 403.327 1377.18 410.366 1375.34 412.57C1372.48 412.687 1373.62 412.883 1370.71 411.002C1366.27 412.628 1365.63 412.838 1360.92 412.792C1358.01 410.852 1355.68 408.054 1356.12 404.401C1358.38 399.936 1364.9 398.875 1370.03 396.336L1370.36 395.224L1370 396.338L1369.67 394.658C1365.96 392.869 1363.93 394.932 1359.13 394.484C1358 392.646 1358.23 393.657 1358.72 391.295L1361.66 389.521Z"/><path fill="white" d="M1365.3 401.957C1368.05 402.02 1368.9 401.629 1370.57 403.848C1370.19 406.461 1369.41 406.936 1367.56 408.927C1364.12 407.733 1364.92 408.49 1362.89 406.198C1363.29 403.483 1363.14 404.351 1365.3 401.957Z"/><path d="M170.327 414.63C173.479 414.735 174.736 414.736 177.926 414.365C180.316 409.942 177.153 402.55 178.951 397.801C181.155 396.072 180.412 396.092 182.559 396.238C185.811 399.621 184.782 407.681 184.712 412.649L184.884 413.798C185.931 414.453 186.511 414.835 187.481 415.594C187.726 419.218 187.897 421.342 187.605 424.979C185.779 426.411 186.437 425.975 183.661 426.079C181.399 424.621 182.896 424.148 181.823 419.944C179.026 418.633 167.909 419.303 164.22 419.393L164.29 396.834C171.478 396.797 170.646 398.887 170.474 405.845C170.404 408.675 170.35 411.781 170.327 414.63Z"/><path d="M452.654 806.623C456.843 806.415 462.01 806.586 466.276 806.611C466.308 810.121 466.72 825.727 465.962 828.044C463.798 829.178 463.678 829.105 461.161 828.771C458.779 825.24 461.622 824.474 459.335 820.796L456.77 820.615C453.792 825.544 453.079 830.405 446.038 828.343C446.068 826.014 448.578 823.07 450.09 820.766C450.365 815.419 441.438 811.969 452.654 806.623Z"/><path fill="white" d="M453.71 810.886C456.327 810.855 456.631 810.788 459.093 811.52C460.252 813.813 459.761 814.099 459.491 816.94C456.772 816.553 456.193 816.618 453.854 815.33C452.843 812.93 453.089 813.838 453.71 810.886Z"/><path d="M198.75 396.159C205.249 396.132 212.26 399.455 211.942 406.787C208.041 411.63 202.712 408.37 197.027 410.918L196.859 412.139C200.361 417.112 204.561 415.313 209.474 413.681L210.195 416.008C206.149 429.621 172.22 408.122 198.75 396.159Z"/><path fill="white" d="M199.355 400.314C202.234 400.658 205.018 401.6 205.45 404.738L203.867 405.588C201.44 405.652 198.867 406.08 196.973 404.841C197.06 402.517 197.711 402.436 199.355 400.314Z"/><path d="M602.27 396.213C608.957 396.327 615.946 399.976 614.762 407.618C610.799 412.018 605.544 408.288 600.141 410.511L599.949 411.784C603.291 417.143 606.257 415.561 611.857 414.172C613.022 414.682 612.493 414.415 613.384 415.675L613.044 417.414C609.323 420.426 603.274 419.901 599.058 418.627C590.64 416.083 591.451 409.357 594.31 402.835C596.302 398.291 598.115 397.931 602.27 396.213Z"/><path fill="white" d="M603.699 400.208C606.364 401.233 607.277 401.489 608.655 403.93L608.18 405.314L605.938 406.147C603.107 406.018 601.479 406.441 599.755 404.146C600.509 402.131 601.892 401.489 603.699 400.208Z"/><path d="M983.306 411.717C985.541 407.719 991.827 394.036 997.246 397.558C1000.03 402.403 999.058 413.503 998.948 419.534C995.862 419.4 995.832 419.895 993.583 418.261C992.09 414.772 992.873 408.902 992.971 404.739C990.39 408.75 984.341 421.188 978.946 418.824C976.249 414.334 977.213 402.751 977.325 396.909C980.403 397.078 980.819 396.552 982.759 398.28C984.149 401.73 983.393 407.613 983.306 411.717Z"/><path d="M1231.48 389.892C1234.32 389.893 1235.16 389.562 1236.93 391.128C1238.23 394.499 1237.52 400.289 1237.48 404.329C1240.62 398.782 1242.78 393.423 1248.38 390.416C1250.93 390.368 1249.81 389.987 1251.82 391.708C1254.26 397.395 1253.12 406.269 1252.83 412.675C1250.81 412.628 1249.49 412.861 1247.92 411.66C1245.76 407.739 1246.78 402.177 1247.09 397.485C1244.38 401.697 1238.87 413.692 1233.28 411.552C1230.32 406.861 1231.37 395.765 1231.48 389.892Z"/><path d="M297.815 396.12C298.166 396.11 298.518 396.108 298.869 396.114C304.818 396.243 311.176 400.661 310.763 406.893C307.151 411.695 300.286 408.03 295.681 410.725C295.572 412.805 295.611 412.149 297.228 414.284C301.008 416.271 303.963 414.976 308.098 413.914L308.749 416.022C308.031 418.575 308.545 417.645 306.531 419.47C291.747 423.552 277.256 404.828 297.815 396.12Z"/><path fill="white" d="M297.559 400.467C300.865 400.554 302.865 400.994 304.258 404.212L303.82 405.194L302.286 405.714C299.695 405.778 297.854 406.085 295.524 405.033C295.538 402.529 295.826 402.986 297.559 400.467Z"/><path d="M1219.68 851.313C1225.7 851.183 1234.26 849.436 1237.52 855.232C1237.32 858.7 1237.49 857.591 1235.18 860.681C1238.23 864.716 1238.07 863.997 1238.26 868.513C1233.15 873.046 1226.57 872.01 1219.72 872.016L1219.68 851.313Z"/><path fill="white" d="M1224.47 863.288C1227.1 863.189 1228.47 863.026 1231.08 863.667C1232.8 865.526 1232.26 864.874 1232.46 868.048C1230.2 868.31 1229.25 868.326 1226.97 868.229C1224.75 866.314 1225.31 866.414 1224.47 863.288Z"/><path d="M1078.99 851.231C1084.83 851.019 1093.52 849.645 1096.66 855.218C1096.33 858.75 1096.51 857.642 1094.09 860.734C1097.38 864.379 1097.19 864.209 1097.28 868.513C1092.02 873.224 1085.73 872.128 1078.8 871.975C1079.13 865.096 1079.01 858.123 1078.99 851.231Z"/><path fill="white" d="M1083.76 863.256C1085.77 863.205 1087.46 863.285 1089.47 863.38C1091.78 865.068 1091.05 864.126 1091.84 867.683C1089.56 868.11 1088.58 868.125 1086.24 868.148C1083.95 866.328 1084.56 866.504 1083.76 863.256Z"/><path d="M552.975 396.197C558.94 396.369 566.047 400.798 565.24 407.195C561.463 411.431 555.982 408.559 550.137 410.658L549.808 411.915C553.342 417.047 556.967 415.53 562.279 414.005C562.67 414.497 563.002 415.716 563.231 416.382C562.65 417.656 562.54 418.083 561.079 418.656C542.937 425.769 534.964 401.894 552.975 396.197Z"/><path fill="white" d="M553.317 400.182C556.066 400.952 557.217 401.679 558.72 403.945L558.374 405.245L556.64 405.915C553.595 405.826 552.289 406.224 550.065 404.671C550.654 402.115 551.223 402.225 553.317 400.182Z"/><path d="M420.742 806.355C423.806 806.467 423.933 805.966 426.112 807.59C427.576 811.171 426.799 817.069 426.775 821.455C429.037 817.389 435.166 803.559 440.655 807.583C443.24 813.083 442.319 822.565 442.152 828.802C439.001 828.761 438.577 829.318 436.523 827.637C435.278 824.477 436.062 817.879 436.095 813.92C433.89 817.905 427.886 831.248 422.571 828.29C419.741 823.522 420.667 812.3 420.742 806.355Z"/><path d="M651.405 411.192C653.624 407.639 659.944 395.14 665.14 397.473C667.888 401.951 666.859 413.786 666.74 419.393C663.638 419.36 663.604 419.869 661.359 418.275C659.936 414.874 660.677 408.951 660.741 404.857C657.909 409.664 654.258 417.264 649.255 419.519C643.625 418.698 645.432 401.65 645.498 397.022C648.211 397.066 648.57 396.626 650.586 397.976C652.144 401.386 651.439 407.059 651.405 411.192Z"/><path d="M755.906 806.625C764.564 805.86 770.841 805.897 772.135 816.808C772.467 819.608 771.84 826.976 770.166 828.99C767.309 829.06 768.43 829.252 765.538 827.375C761.661 828.961 760.955 829.333 756.781 829.459C753.68 827.6 751.114 824.923 751.524 821.103C753.752 816.102 760.087 816.181 764.951 812.697C763.413 808.554 757.315 812.752 753.713 810.405L753.852 808.358L755.906 806.625Z"/><path fill="white" d="M760.909 818.362C764.264 818.657 763.712 818.066 765.577 819.916C765.661 822.221 764.54 823.317 763.194 825.287C759.947 824.515 759.894 824.803 758.209 822.618C758.863 819.833 758.648 820.706 760.909 818.362Z"/><path d="M1231.7 806.547C1241.38 806.76 1236.62 809.047 1242.66 814.011L1243.38 813.637C1243.39 811.053 1243.41 809.813 1243.82 807.274C1245.85 806.089 1244.94 806.353 1247.39 806.522C1249.09 808.155 1249.03 811.601 1249.29 814.104C1253.18 812.399 1252.89 804.681 1259.65 806.82C1259.29 809.238 1256.13 813.582 1254.64 815.885C1256.67 819.081 1259.27 822.83 1260.52 826.323L1259.54 827.875C1253.73 826.717 1251.95 821.416 1248.83 816.501C1248.87 819.793 1249.19 823.498 1248.14 826.554C1246.34 827.394 1246.35 827.269 1244.47 826.934C1242.94 824.64 1243.61 822.734 1243.2 819.25L1242.46 818.955C1240.31 821.92 1238.52 824.767 1235.61 826.988C1233.23 827.572 1233.9 827.798 1232.25 826.866C1232.82 823.634 1236.23 818.94 1238.12 815.987C1236.27 812.809 1233.85 809.564 1231.7 806.547Z"/><path d="M860.226 397.055C866.208 397.024 867.108 397.126 869.31 403.666C870.21 406.34 871.242 409.333 872.18 412.025C873.707 407.117 875.027 399.727 879.304 397.416C881.644 397.32 881.596 396.903 882.953 398.003C882.38 401.722 877.659 412.869 876.001 417.217C874.483 421.218 872.517 427.407 867.756 428.588C865.885 429.052 863.031 429.273 861.381 428.21L861.108 426.382C862.75 422.025 864.891 425.296 868.03 421.277C869.046 415.074 862.408 404.494 860.226 397.055Z"/><path d="M931.606 396.946C934.084 396.886 935.134 396.648 937.32 397.731C940.976 401.555 942.029 407.052 943.613 412.215C945.447 407.845 947.096 394.006 954.532 397.518C954.488 400.604 950.14 410.573 948.74 414.091C947.344 417.87 945.98 422.249 943.656 425.537C941.536 428.538 935.854 430.49 933.086 427.592C933.104 424.906 932.699 425.671 934.165 424.041C936.706 423.579 937.079 423.608 939.277 422.371C941.469 416.879 934.236 403.168 931.606 396.946Z"/><path d="M215.642 396.805C218.024 396.705 218.948 396.429 220.963 397.492C223.021 401.467 220.859 400.189 221.905 404.415C223.44 405.508 226.785 405.175 228.489 405.195C232.18 405.239 228.851 400.677 232.305 396.167L233.799 396.108C234.438 396.431 236.034 397.07 236.095 397.55C236.687 402.223 236.918 415.936 236.007 419.796C233.955 419.674 232.944 419.827 231.269 418.775C229.077 414.972 231.491 413.111 229.516 410.521C226.332 410.149 225.683 410.071 222.393 410.524C220.677 413.633 222.995 415.444 221.004 419.035C218.375 419.812 219.425 419.698 216.604 418.974C214.741 416.461 215.609 401.003 215.642 396.805Z"/><path d="M1161.12 435.108L1181.92 435.161C1182.02 439.398 1182.89 454.775 1181.06 457.454C1179.08 457.75 1178.64 457.979 1176.87 457.032C1175.09 454.032 1175.79 447.648 1175.89 443.921C1175.96 442.347 1175.87 442.32 1175.44 440.781C1173.13 439.243 1170.31 439.858 1167.34 440.035C1167.26 445.432 1168.88 453.545 1165.63 457.237C1163.1 457.816 1164.05 457.931 1161.68 457.203C1160.59 453.133 1161.07 439.854 1161.12 435.108Z"/><path d="M618.979 397.01C621.452 396.87 621.962 396.673 624.149 397.618C626.253 401.562 623.503 400.714 625.035 404.602C627.44 405.975 627.771 406.156 630.51 406.474C635.345 404.678 631.806 400.763 634.584 397.119C636.765 396.921 637.401 396.639 639.161 397.702C640.258 400.087 639.713 415.551 639.697 419.488C637.405 419.508 636.361 419.779 634.538 418.597C632.341 415.135 634.821 414.215 633.274 410.88C630.525 410.111 628.992 410.369 626.165 410.507C623.723 412.987 626.686 416.919 623.201 419.982C621.407 420.093 620.911 419.644 619.333 418.804C618.363 415.563 618.915 401.262 618.979 397.01Z"/><path d="M1331.28 389.888C1334.73 390.032 1334.82 389.439 1337.05 391.363C1337.49 393.627 1337.42 393.892 1337.2 396.254L1337.13 396.897L1338.08 397.974C1350.01 401.386 1342.87 395.249 1347.68 389.79C1350.16 389.354 1349.13 389.123 1351.36 390.683C1353.22 393.917 1352.28 407.696 1352.1 412.324L1348.33 412.287C1343.91 409.541 1347.68 408.135 1346.28 403.896C1336.05 397.355 1339.42 408.982 1335.45 412.554C1328.92 412.485 1331.2 395.28 1331.28 389.888Z"/><path d="M706.592 806.385C716.13 806.209 710.771 810.541 713.24 814.615C715.924 815.273 717.364 815.024 720.061 814.812C723.267 812.724 719.982 809.347 722.2 806.555C725.325 806.566 724.927 806.052 726.854 807.578C727.834 810.223 727.319 825.021 727.334 828.826C724.892 828.932 724.612 829.019 722.315 828.345C720.588 825.833 721.173 824.778 721.565 821.302L720.662 820.244C717.149 819.692 716.642 819.728 713.18 820.175C711.332 823.289 714.173 826.425 711.765 828.734C708.506 828.727 709.034 829.254 707.061 827.64C706.045 824.867 706.587 810.298 706.592 806.385Z"/><path d="M1308.24 389.923C1311.25 389.993 1312.1 389.6 1314.06 391.304C1313.69 394.423 1313.44 396.303 1316.97 397.089C1325.38 398.964 1333.04 401.182 1324.59 410.955C1320.12 412.443 1313.11 412.22 1308.23 412.291C1308.4 404.591 1308.51 397.611 1308.24 389.923Z"/><path fill="white" d="M1315.18 402.041C1316.63 400.724 1318.85 400.777 1320.23 402.16C1321.61 403.544 1321.66 405.77 1320.35 407.213C1319.44 408.207 1318.06 408.622 1316.75 408.292C1315.44 407.963 1314.43 406.942 1314.1 405.636C1313.77 404.329 1314.19 402.949 1315.18 402.041Z"/><path d="M1284.8 390.066L1302.71 389.955C1302.72 394.785 1303.93 409.239 1301.5 412.203C1298.74 412.623 1299.73 412.88 1297.63 411.565C1295.62 407.671 1296.43 399.357 1296.57 394.623C1291.03 394.268 1290.4 395.661 1290.15 401.095C1289.88 406.893 1288.46 414.946 1280.13 412.201C1279.54 410.137 1279.67 410.882 1280.25 408.591C1286.55 403.781 1284.83 397.593 1284.8 390.066Z"/><path d="M1104.43 850.832C1107.16 850.602 1110.89 850.043 1113.31 851.439C1118.98 854.714 1120.57 865.809 1117.37 871.177C1112.57 871.399 1107.39 872.422 1103.35 872.254C1100.62 869.728 1099.38 868.448 1099.72 864.618C1102.04 859.448 1107.76 859.89 1112.48 856.654C1110.22 854.23 1106.49 855.708 1102.11 855.462L1101.13 854.277L1101.39 852.502L1104.43 850.832Z"/><path fill="white" d="M1107.14 862.449C1110.56 862.701 1110.59 862.212 1112.36 864.113C1112.28 866.297 1111.32 867.033 1109.86 868.852C1107.59 868.353 1107.04 868.444 1105.62 866.791C1105.59 864.249 1105.65 864.98 1107.14 862.449Z"/><path d="M571.385 397.172C577.035 396.918 583.127 397.033 588.814 397.034C588.922 401.347 590.239 417.327 587.393 419.374C586.01 419.277 584.765 419.501 584.043 418.65C581.797 416.006 582.751 405.284 582.84 401.705C580.625 401.557 580.427 401.548 578.271 401.999C574.428 406.656 577.834 418.46 570.411 420.266C568.658 419.851 567.401 419.818 566.338 418.444C566.495 416.333 566.3 415.479 568.36 414.037C571.889 411.567 571.209 402.298 571.385 397.172Z"/><path d="M910.984 397.073L928.672 396.939C928.633 402.559 929.277 414.008 928.022 418.943L926.79 419.44C924.026 418.95 924.932 419.498 923.111 417.613C921.774 413.964 922.479 406.049 922.583 401.683C910.734 401.038 919.65 410.791 914.044 417.405C912.353 419.399 908.162 420.509 906.116 418.606C906.341 416.496 906.207 415.612 908.224 414.202C911.612 411.834 910.848 402.106 910.984 397.073Z"/><path d="M1354.49 435.047C1356.93 434.975 1357.35 434.853 1359.62 435.585C1361.55 438.412 1361.01 441.806 1361.04 445.516C1364.58 441.086 1367.22 436.395 1372.92 435.172L1373.66 436.294C1373.21 439.272 1369.95 443.026 1368.03 445.583C1369.78 447.721 1372.05 451.157 1373.7 453.512C1374.42 454.635 1374.98 455.69 1375.62 456.854C1370.12 461.805 1363.75 449.28 1360.98 445.62C1360.89 449.319 1361.31 454.508 1359.64 457.483C1357.44 457.971 1358.53 458.033 1356.27 456.966C1353.27 452.916 1354.5 440.951 1354.49 435.047Z"/><path d="M366.126 806.433C368.705 806.45 370.119 806.132 371.935 807.644C369.609 820.404 394.249 809.566 382.325 827.229C376.984 829.397 371.723 828.921 366.029 828.836L366.126 806.433Z"/><path fill="white" d="M372.686 819.09C373.506 818.165 374.763 817.758 375.969 818.025C377.176 818.292 378.143 819.192 378.497 820.377C378.85 821.561 378.534 822.845 377.671 823.73C376.38 825.054 374.268 825.105 372.913 823.845C371.559 822.585 371.458 820.474 372.686 819.09Z"/><path d="M1151.78 864.899C1154.46 860.161 1158.12 851.631 1164.04 851.38C1167.44 854.772 1166.91 869.111 1164.93 872.873C1162.85 872.464 1162.66 872.507 1161.02 871.255C1159.71 867.76 1160.32 862.645 1160.38 858.646C1157.69 862.545 1153.64 872.593 1148.27 871.224C1145.14 867.326 1146.21 856.29 1146.32 851.008C1148.67 851.051 1149.35 850.83 1151.11 852.166C1152.67 855.288 1151.9 861.08 1151.78 864.899Z"/><path d="M821.174 806.441C822.755 806.466 824.122 806.532 825.698 806.639C828.883 809.103 825.321 808.045 827.555 812.513C833.54 817.576 844.152 812.237 838.111 826.484C832.209 829.579 827.755 828.915 821.178 828.811L821.174 806.441Z"/><path fill="white" d="M827.656 819.084C828.853 817.747 830.885 817.58 832.284 818.703C833.683 819.826 833.959 821.848 832.913 823.305C832.185 824.32 830.955 824.85 829.717 824.682C828.479 824.514 827.435 823.676 827.003 822.503C826.571 821.33 826.823 820.015 827.656 819.084Z"/><path d="M1035.15 864.739C1037.42 860.945 1042.58 850.145 1047.57 851.531C1050.44 855.636 1049.55 866.606 1049.5 871.945C1046.55 871.892 1046.87 872.346 1044.75 871.006C1043.34 867.72 1043.98 862.374 1043.95 858.344C1041.7 862.324 1036.92 872.96 1031.7 871.663C1028.69 867.451 1029.66 856.69 1029.74 851.211C1032.02 851.122 1032.68 850.869 1034.47 852.047C1036.08 855.296 1035.27 860.761 1035.15 864.739Z"/><path d="M782.763 816.509C785.857 812.308 789.052 806.95 794.736 806.27L795.207 807.506C794.596 810.494 791.376 813.965 789.365 816.468L795.911 825.923C796.735 827.068 796.675 826.988 796.889 828.39C789.72 830.329 786.542 822.754 782.979 817.541C782.982 821.433 783.641 826.344 781.007 829.007C778.279 829.24 779.383 829.433 776.819 828.111C775.732 824.109 776.372 811.288 776.462 806.504C778.828 806.448 779.156 806.388 781.411 806.971C783.309 809.669 782.748 812.903 782.763 816.509Z"/><path d="M1070.6 806.492L1074.47 806.739C1079.03 811.761 1073.82 817.374 1077.27 822.502C1079.59 823.401 1080.03 823.134 1082.6 822.685C1084.91 819.256 1082.41 811.177 1084.18 806.837C1086.89 806.506 1085.86 806.244 1088.02 807.633C1089.56 810.748 1088.92 817.54 1088.86 821.491C1089.54 823.13 1091.35 823.252 1091.37 824.928C1091.39 827.789 1092.74 832.867 1089.23 833.665C1087.22 831.898 1086.84 829.964 1085.9 827.391C1084.14 826.742 1073.43 827.176 1070.53 827.188C1070.68 820.413 1070.58 813.298 1070.6 806.492Z"/><path d="M664.157 816.275L664.732 815.495C667.669 811.525 670.316 807.23 675.539 806.454L676.235 807.577C675.706 810.768 672.846 813.714 670.732 816.362L677.802 827.092C677.972 827.301 678.067 827.902 678.146 828.218C671.547 831.285 667.642 822.552 664.122 817.876C664.055 821.078 664.477 826.221 662.736 828.479C660.539 828.801 660.301 828.956 658.33 828.148C657.06 824.234 657.76 811.175 657.867 806.498C660.021 806.48 660.478 806.503 662.586 806.902C664.685 809.653 664.063 812.338 664.157 816.275Z"/><path d="M1195.29 806.443C1201.58 805.968 1208.93 807.672 1207.94 815.754C1204.29 820.474 1198.51 817.359 1194.98 819.905C1195.74 821.719 1196.19 821.863 1197.78 822.978C1200.75 823.558 1202.8 822.897 1205.77 822.3C1206.8 823.501 1206.67 824.007 1207.07 825.676L1206.09 826.754C1191.45 830.492 1179.48 816.312 1195.29 806.443Z"/><path d="M1286.88 806.624L1287.38 806.591C1291.55 806.352 1293 805.682 1297.03 807.723C1301.97 810.223 1303.89 826.819 1298.07 827.592C1293.25 823.852 1294.52 827.897 1286.23 827.267C1283.87 824.983 1282.75 823.181 1283.07 819.823C1285.41 814.63 1291.52 815.18 1295.43 812.51L1294.55 810.952C1292.05 809.803 1288.72 810.722 1285.7 810.987C1284.49 809.401 1284.85 810.311 1284.91 808.068L1286.88 806.624Z"/><path d="M1054.5 851.161C1056.63 851.17 1056.92 851.201 1058.99 851.696C1061.26 854.984 1059.55 854.248 1060.79 858.3C1062.6 859.072 1064.92 858.797 1066.94 858.752C1069.25 856.769 1066.93 855.206 1068.79 851.204C1070.76 850.442 1070.31 850.758 1072.84 851.447C1073.94 852.913 1073.53 869.22 1073.53 872.385C1071.48 872.164 1071.11 872.134 1069.18 871.472C1067.09 868.395 1068.77 867.34 1067.63 864.135C1065.16 863.309 1063.73 863.583 1061.14 863.721C1059.56 865.88 1060.86 867.572 1060.09 871.33L1058.32 872.08C1055.52 871.727 1056.17 872.232 1054.51 870.592C1054.57 864.115 1054.56 857.638 1054.5 851.161Z"/><path d="M1124.97 851.296L1141.28 851.19C1141.29 855.349 1142.19 868.7 1140.58 871.772C1137.53 872.036 1138.58 872.386 1136.36 870.844C1134.73 867.175 1135.46 859.905 1135.57 855.481C1134.24 855.252 1133.08 855.402 1131.73 855.485C1128.04 859.116 1131.43 869.599 1124.52 872.642C1121.97 872.178 1122.24 872.62 1120.57 871.16C1120.63 866.161 1123.31 867.325 1124.45 863.963C1125.24 861.604 1124.99 854.088 1124.97 851.296Z"/><path d="M1094.69 806.594L1113.05 806.624C1113.03 811.327 1113.51 822.705 1112.54 826.451C1110.39 827.231 1111.27 827.105 1108.81 826.427C1106.69 823.652 1107.56 818.288 1107.71 814.511C1107.82 813.144 1107.64 812.88 1107.3 811.531C1105.32 810.427 1102.5 810.18 1100.57 811.473C1098.6 817.371 1102.55 823.178 1098.17 827.6C1092.53 827.936 1094.68 811.068 1094.69 806.594Z"/><path d="M1263.41 806.537L1267.53 806.727C1270.63 808.892 1267.54 810.839 1269.73 814.097C1274.56 812.274 1271.48 805.736 1280.56 806.671L1281 807.502L1274.91 815.803L1281.08 825.244C1281.59 825.949 1281.38 825.555 1281.3 826.737C1275.15 828.696 1272.08 821.235 1269.03 816.769C1268.91 819.822 1269.27 824.882 1267.74 827.065C1265.07 827.259 1265.69 827.579 1263.54 826.575C1262.91 822.237 1263.33 811.419 1263.41 806.537Z"/><path d="M895.836 396.239C899.519 396.412 901.682 396.591 904.363 399.149L904.281 400.564C899.038 405.037 893.914 398.518 890.752 405.312C890.734 408.579 891.864 411.565 894.099 413.951C897.062 415.532 899.282 414.491 903.073 414.595L904.527 416.489C902.698 420.854 896.042 421.024 892.354 419.109C888.834 417.276 886.209 414.091 885.081 410.285C882.729 402.204 888.795 397.787 895.836 396.239Z"/><path d="M1163.18 389.428C1167.17 389.269 1171.25 388.628 1174.07 391.904C1174.51 395.867 1158.17 392.241 1161.12 402.93C1162.94 409.524 1167.63 408.127 1172.76 406.907C1173.45 407.647 1173.43 408.488 1173.71 409.651L1172.73 411.148C1157.8 418.781 1145.28 398.274 1163.18 389.428Z"/><path d="M299.08 806.602C303.648 806.012 308.141 805.133 311.419 809.128L311.191 810.511C308.26 812.308 307.661 811.552 303.444 810.896C302.357 811.294 300.696 811.691 300.258 812.641C294.743 824.582 303.136 824.954 310.36 823.301L310.922 825.761C307.095 836.908 277.727 820.458 299.08 806.602Z"/><path d="M239.811 396.964C244.599 396.922 255.141 396.582 259.456 397.098C260.608 398.845 260.309 398.104 260.097 400.578L258.84 401.475C256.453 401.388 255.642 401.182 253.467 401.997C252.465 403.781 253.179 409.359 253.34 411.753C253.443 414.512 253.782 416.444 252.737 418.969C251.038 419.752 250.481 419.487 248.642 419.182C243.029 414.034 251.409 406.069 244.586 401.683C242.802 401.675 241.653 401.886 240.192 400.91L239.811 396.964Z"/><path d="M797.809 806.543C802.684 806.493 815.39 805.518 818.308 807.914L818.463 809.542C816.224 811.996 816.27 810.693 811.916 811.583C810.703 813.926 811.268 820.332 811.34 823.342C811.489 827.605 811.84 827.432 808.57 829.828C803.832 828.965 804.921 816.308 804.858 812.127C801.964 810.103 801.496 812.517 798.217 810.468L797.809 806.543Z"/><path d="M396.94 806.525C402.157 806.497 411.763 806.21 416.56 806.729C418.187 808.554 417.764 807.535 418.066 809.801C416.283 811.524 413.678 811.469 411.046 811.816C409.923 813.278 410.319 818.401 410.339 820.513C410.405 824.028 410.882 825.932 409.145 828.647C406.599 829.245 407.603 829.19 404.959 828.371C403.778 825.103 404.153 816.354 404.169 812.467C401.489 809.828 400.687 812.876 397.308 810.193L396.94 806.525Z"/><path d="M494.16 397.087C499.453 396.997 508.387 396.622 513.306 397.21C514.844 399.275 514.467 398.138 514.429 400.753C512.582 402.046 511.008 401.311 507.768 402.181C506.886 403.792 507.459 411.568 507.533 413.928C507.649 416.209 507.837 416.881 507.114 418.983C505.247 419.711 505.011 419.541 502.951 419.149C499.098 415.229 502.198 410.095 501.597 404.75C500.979 399.263 497.711 403.483 494.417 400.923L494.16 397.087Z"/><path d="M730.253 806.688C735.457 806.625 744.738 806.28 749.557 806.743C751.029 808.87 750.67 807.718 750.638 810.333C748.844 811.66 747.279 810.861 743.994 811.646C742.93 813.352 743.319 819.085 743.344 821.46C743.409 824.625 743.764 826.231 742.256 828.742C739.588 829.349 740.635 829.297 737.865 828.412C736.829 825.201 737.263 816.494 737.228 812.476C734.483 810.084 733.692 812.78 730.493 810.525L730.253 806.688Z"/><path d="M1033.42 806.504C1037.66 806.242 1041.39 805.216 1043.94 809.132C1041.86 814.234 1038.37 808.708 1033.45 812.001C1031.61 815.658 1031.92 819.838 1035.23 822.524C1037.97 823.552 1040.01 822.869 1042.96 822.365L1043.5 825.063L1042.14 826.591C1032.09 830.812 1016.73 816.915 1033.42 806.504Z"/><path d="M1014.63 806.525C1018.33 806.103 1021.43 805.9 1024.71 807.945C1024.89 809.863 1025.02 809.108 1023.5 811.01C1014.37 809.281 1008.95 816.057 1016.29 822.486C1018.87 823.684 1021.38 822.864 1024.18 822.313C1024.39 825.159 1024.76 824.349 1023.43 826.314C1013.35 831.53 997.344 816.364 1014.63 806.525Z"/><path d="M957.873 396.966C962.072 396.922 972.566 395.661 974.908 398.941L974.098 400.904C971.863 402.524 969.036 401.297 965.178 402.031C963.969 403.794 964.313 408.382 964.309 410.811C964.462 414.072 965.319 417.154 962.633 419.202C960.117 419.293 960.321 419.705 958.663 418.57C957.844 414.624 958.111 402.256 957.873 396.966Z"/><path d="M968.736 806.594C972.695 806.553 980.338 805.526 982.927 808.242L982.763 809.876C980.548 811.438 978.611 810.529 974.963 811.167C973.718 813.128 973.984 816.987 973.911 819.538C974.074 822.581 974.693 825.083 973.012 827.143C970.536 827.306 971.198 827.599 969.224 826.609C968.163 823.094 968.682 810.833 968.736 806.594Z"/><path d="M387.515 806.414C389.698 806.358 390.695 806.094 392.497 807.139C394.884 811.408 393.621 822.851 393.601 828.729C391.306 828.846 390.864 829.012 388.807 828.176C386.039 823.851 387.408 812.317 387.515 806.414Z"/><path d="M842.363 806.497C844.647 806.432 845.143 806.27 847.183 807.122C849.707 811.548 848.462 823.192 848.355 828.973C846.507 828.989 845.286 829.177 843.609 828.405C840.846 824.32 842.248 812.175 842.363 806.497Z"/></svg>